{
copyright = "Copyright (c) 2018 by Vladimir Nikolic. All rights reserved.";
designer = "Vladimir Nikolic";
designerURL = "http://www.coroflot.com/vladimirnikolic";
familyName = "Angelica 3D";
customParameters = (
{
name = glyphOrder;
value = (
.notdef,
NULL,
periodcentered,
guillemotright,
periodcentered.loclCAT,
periodcentered.loclCAT.case,
A,
B,
C,
D,
E,
F,
G,
H,
I,
J,
K,
L,
M,
N,
O,
P,
Q,
R,
S,
T,
U,
V,
W,
X,
Y,
Z,
a,
b,
c,
d,
e,
f,
g,
h,
i,
j,
k,
l,
m,
n,
o,
p,
q,
r,
s,
t,
u,
v,
w,
x,
y,
z,
at,
grave,
space,
exclam,
quotedbl,
numbersign,
dollar,
percent,
ampersand,
quotesingle,
parenleft,
parenright,
plus,
comma,
hyphen,
period,
slash,
zero,
one,
two,
three,
four,
five,
six,
seven,
eight,
nine,
colon,
semicolon,
less,
equal,
greater,
question,
uni00A0,
exclamdown,
cent,
sterling,
yen,
dieresis,
asterisk,
copyright,
ordfeminine,
registered,
degree,
acute,
paragraph,
cedilla,
ordmasculine,
braceleft,
bar,
braceright,
asciitilde,
bracketleft,
backslash,
bracketright,
asciicircum,
underscore,
questiondown,
multiply,
divide,
oslash,
AE,
ae,
eth,
Eth,
Euro,
trademark,
ellipsis,
guilsinglleft,
guilsinglright,
minus,
germandbls,
Germandbls,
uni0327,
uni0326,
uni0328,
uni030C.alt,
uni030A,
uni0304,
tildecomb,
uni0302,
acutecomb,
uni0308,
uni0307,
uni030B,
uni030C,
gravecomb,
uni0306,
aring,
adieresis,
atilde,
acircumflex,
aacute,
agrave,
Agrave,
Aacute,
Acircumflex,
Atilde,
Adieresis,
Aring,
dotlessi,
idieresis,
icircumflex,
iacute,
igrave,
edieresis,
ecircumflex,
eacute,
egrave,
ccedilla,
Ccedilla,
Egrave,
Eacute,
Ecircumflex,
Edieresis,
Igrave,
Iacute,
Icircumflex,
Idieresis,
odieresis,
otilde,
ocircumflex,
oacute,
ograve,
ntilde,
Ntilde,
Ograve,
Oacute,
Ocircumflex,
Otilde,
Odieresis,
yacute,
udieresis,
ucircumflex,
uacute,
ugrave,
Ugrave,
Uacute,
Ucircumflex,
Udieresis,
Yacute,
cacute,
aogonek,
abreve,
amacron,
Amacron,
Abreve,
Aogonek,
Cacute,
Dcroat,
dcaron,
Dcaron,
cdotaccent,
ccaron,
Cdotaccent,
Ccaron,
emacron,
Emacron,
ecaron,
eogonek,
edotaccent,

glyphs = (
{
glyphname = periodcentered;
layers = (
{
layerId = "36A2F76C-EA0C-4AFB-832E-E1AC112461C1";
paths = (
{
nodes = (
"194 431 LINE",
"281 344 LINE",
"281 172 LINE",
"109 172 LINE",
"22 259 LINE",
"16 259 LINE",
"16 437 LINE",
"194 437 LINE"
);
},
{
nodes = (
"159 402 LINE",
"51 402 LINE",
"51 294 LINE",
"159 294 LINE"
);
}
);
width = 310;
}
);
unicode = 00B7;
},
{
glyphname = guillemotright;
layers = (
{
layerId = "36A2F76C-EA0C-4AFB-832E-E1AC112461C1";
paths = (
{
nodes = (
"21 121 LINE",
"358 334 LINE",
"115 490 LINE",
"38 567 LINE",
"21 578 LINE",
"78 724 LINE",
"393 524 LINE",
"350 567 LINE",
"333 578 LINE",
"390 724 LINE",
"883 411 LINE",
"883 406 LINE",
"970 319 LINE",
"970 200 LINE",
"481 -110 LINE",
"393 -22 LINE",
"390 -25 LINE",
"349 59 LINE",
"154 -60 LINE",
"81 -22 LINE",
"78 -25 LINE"
);
},
{
nodes = (
"95 28 LINE",
"536 308 LINE",
"536 391 LINE",
"95 671 LINE",
"64 593 LINE",
"447 349 LINE",
"64 106 LINE"
);
},
{
nodes = (
"407 28 LINE",
"848 308 LINE",
"848 391 LINE",
"407 671 LINE",
"376 593 LINE",
"759 349 LINE",
"376 106 LINE"
);
},
{
nodes = (
"670 334 LINE",
"594 382 LINE",
"653 323 LINE"
);
}
);
width = 998;
}
);
unicode = 00BB;
},
{
glyphname = periodcentered.loclCAT;
layers = (
{
layerId = "36A2F76C-EA0C-4AFB-832E-E1AC112461C1";
paths = (
{
nodes = (
"194 431 LINE",
"281 344 LINE",
"281 172 LINE",
"109 172 LINE",
"22 259 LINE",
"16 259 LINE",
"16 437 LINE",
"194 437 LINE"
);
},
{
nodes = (
"159 402 LINE",
"51 402 LINE",
"51 294 LINE",
"159 294 LINE"
);
}
);
width = 304;
}
);
},
{
glyphname = periodcentered.loclCAT.case;
layers = (
{
layerId = "36A2F76C-EA0C-4AFB-832E-E1AC112461C1";
paths = (
{
nodes = (
"194 431 LINE",
"281 344 LINE",
"281 172 LINE",
"109 172 LINE",
"22 259 LINE",
"16 259 LINE",
"16 437 LINE",
"194 437 LINE"
);
},
{
nodes = (
"159 402 LINE",
"51 402 LINE",
"51 294 LINE",
"159 294 LINE"
);
}
);
width = 302;
}
);
},
{
glyphname = A;
layers = (
{
layerId = "36A2F76C-EA0C-4AFB-832E-E1AC112461C1";
paths = (
{
nodes = (
"292 730 LINE",
"406 730 LINE",
"410 721 LINE",
"494 637 LINE",
"835 -122 LINE",
"349 -122 LINE",
"280 -53 LINE",
"213 -53 LINE",
"205 -70 OFFCURVE",
"187 -109 OFFCURVE",
"182 -122 QCURVE",
"42 -122 LINE",
"-45 -35 LINE",
"-53 -35 LINE"
);
},
{
nodes = (
"1 0 LINE",
"71 0 LINE",
"102 69 LINE",
"248 69 LINE",
"279 0 LINE",
"696 0 LINE",
"384 695 LINE",
"314 695 LINE"
);
},
{
nodes = (
"175 231 LINE",
"217 139 LINE",
"133 139 LINE"
);
}
);
width = 698;
}
);
unicode = 0041;
},
{
glyphname = B;
layers = (
{
layerId = "36A2F76C-EA0C-4AFB-832E-E1AC112461C1";
paths = (
{
nodes = (
"740 293 LINE",
"741 293 OFFCURVE",
"741 292 QCURVE"
);
},
{
nodes = (
"645 196 LINE",
"645 198 OFFCURVE",
"644 198 QCURVE"
);
},
{
nodes = (
"38 -35 LINE",
"32 -35 LINE",
"32 730 LINE",
"484 730 LINE SMOOTH",
"538 730 OFFCURVE",
"627 683 OFFCURVE",
"655 642 QCURVE",
"720 578 LINE SMOOTH",
"748 550 OFFCURVE",
"780 475 OFFCURVE",
"780 430 QCURVE SMOOTH",
"780 356 OFFCURVE",
"733 300 QCURVE",
"741 292 LINE",
"749 285 LINE",
"815 219 OFFCURVE",
"815 120 QCURVE SMOOTH",
"815 70 OFFCURVE",
"778 -18 OFFCURVE",
"713 -84 OFFCURVE",
"625 -122 OFFCURVE",
"574 -122 QCURVE SMOOTH",
"125 -122 LINE"
);
},
{
nodes = (
"623 179 OFFCURVE",
"601 128 OFFCURVE",
"564 91 OFFCURVE",
"513 69 OFFCURVE",
"484 69 QCURVE",
"484 347 LINE",
"513 347 OFFCURVE",
"564 325 OFFCURVE",
"601 288 OFFCURVE",
"623 237 OFFCURVE",
"623 208 QCURVE SMOOTH"
);
},
{
nodes = (
"588 476 OFFCURVE",
"529 417 OFFCURVE",
"484 417 QCURVE",
"484 625 LINE",
"529 625 OFFCURVE",
"588 566 OFFCURVE",
"588 521 QCURVE SMOOTH"
);
},
{
nodes = (
"624 411 OFFCURVE",
"658 480 OFFCURVE",
"658 520 QCURVE SMOOTH",
"658 557 OFFCURVE",
"631 621 OFFCURVE",
"584 668 OFFCURVE",
"521 695 OFFCURVE",
"484 695 QCURVE SMOOTH",
"67 695 LINE",
"67 0 LINE",
"484 0 LINE SMOOTH",
"528 0 OFFCURVE",
"605 33 OFFCURVE",
"661 90 OFFCURVE",
"693 166 OFFCURVE",
"693 210 QCURVE SMOOTH",
"693 267 OFFCURVE",
"641 357 OFFCURVE",
"593 386 QCURVE"
);
}
);
width = 838;
}
);
unicode = 0042;
},
{
glyphname = C;
layers = (
{
layerId = "36A2F76C-EA0C-4AFB-832E-E1AC112461C1";
paths = (
{
nodes = (
"606 468 LINE",
"606 244 LINE",
"727 244 LINE",
"727 238 LINE",
"814 151 LINE",
"814 95 OFFCURVE",
"776 -5 OFFCURVE",
"711 -79 OFFCURVE",
"624 -122 OFFCURVE",
"574 -122 QCURVE SMOOTH",
"365 -122 LINE SMOOTH",
"315 -122 OFFCURVE",
"228 -84 OFFCURVE",
"196 -52 QCURVE SMOOTH",
"134 10 LINE",
"87 43 OFFCURVE",
"32 146 OFFCURVE",
"32 209 QCURVE SMOOTH",
"32 487 LINE SMOOTH",
"32 538 OFFCURVE",
"70 627 OFFCURVE",
"136 693 OFFCURVE",
"224 731 OFFCURVE",
"275 731 QCURVE SMOOTH",
"484 731 LINE SMOOTH",
"540 731 OFFCURVE",
"635 678 OFFCURVE",
"669 633 QCURVE",
"732 570 LINE SMOOTH",
"770 532 OFFCURVE",
"814 426 OFFCURVE",
"814 365 QCURVE",
"713 365 LINE"
);
},
{
nodes = (
"692 487 LINE",
"692 530 OFFCURVE",
"659 606 OFFCURVE",
"603 663 OFFCURVE",
"527 696 OFFCURVE",
"484 696 QCURVE SMOOTH",
"275 696 LINE SMOOTH",
"232 696 OFFCURVE",
"156 663 OFFCURVE",
"100 606 OFFCURVE",
"67 530 OFFCURVE",
"67 487 QCURVE SMOOTH",
"67 209 LINE SMOOTH",
"67 166 OFFCURVE",
"100 90 OFFCURVE",
"156 33 OFFCURVE",
"232 0 OFFCURVE",
"275 0 QCURVE SMOOTH",
"484 0 LINE SMOOTH",
"527 0 OFFCURVE",
"603 33 OFFCURVE",
"659 90 OFFCURVE",
"692 166 OFFCURVE",
"692 209 QCURVE",
"623 209 LINE",
"623 180 OFFCURVE",
"601 129 OFFCURVE",
"564 92 OFFCURVE",
"513 70 OFFCURVE",
"484 70 QCURVE",
"484 626 LINE",
"513 626 OFFCURVE",
"564 604 OFFCURVE",
"601 567 OFFCURVE",
"623 516 OFFCURVE",
"623 487 QCURVE"
);
}
);
width = 838;
}
);
unicode = 0043;
},
{
glyphname = D;
layers = (
{
layerId = "36A2F76C-EA0C-4AFB-832E-E1AC112461C1";
paths = (
{
nodes = (
"37 -35 LINE",
"31 -35 LINE",
"31 730 LINE",
"483 730 LINE SMOOTH",
"545 730 OFFCURVE",
"649 675 OFFCURVE",
"682 628 QCURVE",
"744 566 LINE SMOOTH",
"776 534 OFFCURVE",
"814 447 OFFCURVE",
"814 397 QCURVE SMOOTH",
"814 312 LINE SMOOTH",
"814 290 OFFCURVE",
"815 247 OFFCURVE",
"815 225 QCURVE SMOOTH",
"815 196 OFFCURVE",
"815 138 OFFCURVE",
"813 109 QCURVE SMOOTH",
"810 61 OFFCURVE",
"772 -24 OFFCURVE",
"708 -86 OFFCURVE",
"622 -122 OFFCURVE",
"573 -122 QCURVE SMOOTH",
"124 -122 LINE"
);
},
{
nodes = (
"693 359 OFFCURVE",
"692 444 OFFCURVE",
"692 487 QCURVE SMOOTH",
"692 530 OFFCURVE",
"659 606 OFFCURVE",
"602 662 OFFCURVE",
"526 695 OFFCURVE",
"483 695 QCURVE SMOOTH",
"66 695 LINE",
"66 0 LINE",
"483 0 LINE SMOOTH",
"526 0 OFFCURVE",
"600 31 OFFCURVE",
"655 86 OFFCURVE",
"689 159 OFFCURVE",
"691 201 QCURVE SMOOTH",
"693 230 OFFCURVE",
"693 286 OFFCURVE",
"693 315 QCURVE SMOOTH"
);
},
{
nodes = (
"483 626 LINE",
"511 626 OFFCURVE",
"562 604 OFFCURVE",
"600 566 OFFCURVE",
"622 515 OFFCURVE",
"622 487 QCURVE SMOOTH",
"622 227 LINE SMOOTH",
"622 194 OFFCURVE",
"605 136 OFFCURVE",
"570 94 OFFCURVE",
"518 69 OFFCURVE",
"483 69 QCURVE"
);
}
);
width = 845;
}
);
unicode = 0044;
},
{
glyphname = E;
layers = (
{
layerId = "36A2F76C-EA0C-4AFB-832E-E1AC112461C1";
paths = (
{
nodes = (
"696 98 LINE",
"783 11 LINE",
"783 -122 LINE",
"128 -122 LINE",
"41 -35 LINE",
"35 -35 LINE",
"35 730 LINE",
"696 730 LINE",
"696 724 LINE",
"783 637 LINE",
"783 503 LINE",
"610 503 LINE",
"610 452 LINE",
"696 452 LINE",
"696 446 LINE",
"783 359 LINE",
"783 225 LINE",
"610 225 LINE",
"610 104 LINE",
"696 104 LINE"
);
},
{
nodes = (
"661 69 LINE",
"488 69 LINE",
"488 347 LINE",
"661 347 LINE",
"661 417 LINE",
"488 417 LINE",
"488 625 LINE",
"661 625 LINE",
"661 695 LINE",
"70 695 LINE",
"70 0 LINE",
"661 0 LINE"
);
}
);
width = 816;
}
);
unicode = 0045;
},
{
glyphname = F;
layers = (
{
layerId = "36A2F76C-EA0C-4AFB-832E-E1AC112461C1";
paths = (
{
nodes = (
"695 446 LINE",
"782 359 LINE",
"782 226 LINE",
"608 226 LINE",
"608 -122 LINE",
"127 -122 LINE",
"40 -35 LINE",
"34 -35 LINE",
"34 730 LINE",
"695 730 LINE",
"695 724 LINE",
"782 637 LINE",
"782 504 LINE",
"608 504 LINE",
"608 452 LINE",
"695 452 LINE"
);
},
{
nodes = (
"660 417 LINE",
"486 417 LINE",
"486 626 LINE",
"660 626 LINE",
"660 695 LINE",
"69 695 LINE",
"69 0 LINE",
"486 0 LINE",
"486 348 LINE",
"660 348 LINE"
);
}
);
width = 819;
}
);
unicode = 0046;
},
{
glyphname = G;
layers = (
{
layerId = "36A2F76C-EA0C-4AFB-832E-E1AC112461C1";
paths = (
{
nodes = (
"603 468 LINE",
"603 348 LINE",
"724 348 LINE",
"724 342 LINE",
"811 255 LINE",
"811 118 LINE SMOOTH",
"811 68 OFFCURVE",
"773 -19 OFFCURVE",
"708 -84 OFFCURVE",
"621 -122 OFFCURVE",
"571 -122 QCURVE SMOOTH",
"362 -122 LINE SMOOTH",
"311 -122 OFFCURVE",
"224 -84 OFFCURVE",
"192 -52 QCURVE SMOOTH",
"129 10 LINE",
"83 43 OFFCURVE",
"29 146 OFFCURVE",
"29 208 QCURVE SMOOTH",
"29 487 LINE SMOOTH",
"29 538 OFFCURVE",
"67 626 OFFCURVE",
"133 692 OFFCURVE",
"221 730 OFFCURVE",
"272 730 QCURVE SMOOTH",
"481 730 LINE SMOOTH",
"538 730 OFFCURVE",
"633 676 OFFCURVE",
"667 631 QCURVE",
"729 569 LINE SMOOTH",
"767 531 OFFCURVE",
"811 426 OFFCURVE",
"811 365 QCURVE",
"710 365 LINE",
"623 452 LINE",
"619 452 LINE"
);
},
{
nodes = (
"689 487 LINE",
"689 530 OFFCURVE",
"656 606 OFFCURVE",
"600 662 OFFCURVE",
"524 695 OFFCURVE",
"481 695 QCURVE SMOOTH",
"272 695 LINE SMOOTH",
"229 695 OFFCURVE",
"153 662 OFFCURVE",
"97 606 OFFCURVE",
"64 530 OFFCURVE",
"64 487 QCURVE SMOOTH",
"64 208 LINE SMOOTH",
"64 165 OFFCURVE",
"97 89 OFFCURVE",
"153 33 OFFCURVE",
"229 0 OFFCURVE",
"272 0 QCURVE SMOOTH",
"481 0 LINE SMOOTH",
"524 0 OFFCURVE",
"600 33 OFFCURVE",
"656 89 OFFCURVE",
"689 165 OFFCURVE",
"689 208 QCURVE SMOOTH",
"689 313 LINE",
"550 313 LINE",
"550 243 LINE",
"620 243 LINE",
"620 208 LINE SMOOTH",
"620 179 OFFCURVE",
"598 129 OFFCURVE",
"560 91 OFFCURVE",
"509 69 OFFCURVE",
"481 69 QCURVE",
"481 625 LINE",
"509 625 OFFCURVE",
"560 604 OFFCURVE",
"598 566 OFFCURVE",
"620 516 OFFCURVE",
"620 487 QCURVE"
);
}
);
width = 848;
}
);
unicode = 0047;
},
{
glyphname = H;
layers = (
{
layerId = "36A2F76C-EA0C-4AFB-832E-E1AC112461C1";
paths = (
{
nodes = (
"727 724 LINE",
"814 637 LINE",
"814 -122 LINE",
"681 -122 LINE",
"606 -47 LINE",
"606 -122 LINE",
"124 -122 LINE",
"37 -35 LINE",
"31 -35 LINE",
"31 730 LINE",
"519 730 LINE",
"519 724 LINE",
"588 655 LINE",
"588 730 LINE",
"727 730 LINE"
);
},
{
nodes = (
"692 695 LINE",
"623 695 LINE",
"623 417 LINE",
"484 417 LINE",
"484 695 LINE",
"66 695 LINE",
"66 0 LINE",
"484 0 LINE",
"484 348 LINE",
"623 348 LINE",
"623 0 LINE",
"692 0 LINE"
);
}
);
width = 848;
}
);
unicode = 0048;
},
{
glyphname = I;
layers = (
{
layerId = "36A2F76C-EA0C-4AFB-832E-E1AC112461C1";
paths = (
{
nodes = (
"522 724 LINE",
"609 637 LINE",
"609 -122 LINE",
"128 -122 LINE",
"41 -35 LINE",
"35 -35 LINE",
"35 730 LINE",
"522 730 LINE"
);
},
{
nodes = (
"487 695 LINE",
"70 695 LINE",
"70 0 LINE",
"487 0 LINE"
);
}
);
width = 641;
}
);
unicode = 0049;
},
{
glyphname = J;
layers = (
{
layerId = "36A2F76C-EA0C-4AFB-832E-E1AC112461C1";
paths = (
{
nodes = (
"587 724 LINE",
"674 637 LINE",
"674 119 LINE SMOOTH",
"674 69 OFFCURVE",
"636 -19 OFFCURVE",
"571 -84 OFFCURVE",
"484 -122 OFFCURVE",
"434 -122 QCURVE SMOOTH",
"124 -122 LINE",
"37 -35 LINE",
"31 -35 LINE",
"31 104 LINE",
"100 104 LINE",
"100 730 LINE",
"587 730 LINE"
);
},
{
nodes = (
"552 695 LINE",
"135 695 LINE",
"135 69 LINE",
"66 69 LINE",
"66 0 LINE",
"344 0 LINE SMOOTH",
"387 0 OFFCURVE",
"463 33 OFFCURVE",
"519 90 OFFCURVE",
"552 166 OFFCURVE",
"552 209 QCURVE SMOOTH"
);
}
);
width = 702;
}
);
unicode = 004A;
},
{
glyphname = K;
layers = (
{
layerId = "36A2F76C-EA0C-4AFB-832E-E1AC112461C1";
paths = (
{
nodes = (
"40 -35 LINE",
"34 -35 LINE",
"34 730 LINE",
"521 730 LINE",
"521 724 LINE",
"563 681 LINE",
"585 730 LINE",
"731 730 LINE",
"728 724 LINE",
"816 637 LINE",
"663 296 LINE",
"862 -122 LINE",
"711 -122 LINE",
"624 -35 LINE",
"619 -35 LINE",
"608 -10 LINE",
"608 -122 LINE",
"127 -122 LINE"
);
},
{
nodes = (
"538 386 LINE",
"677 695 LINE",
"608 695 LINE",
"486 424 LINE",
"486 695 LINE",
"69 695 LINE",
"69 0 LINE",
"486 0 LINE",
"486 270 LINE",
"503 309 LINE",
"642 0 LINE",
"712 0 LINE"
);
}
);
width = 842;
}
);
unicode = 004B;
},
{
glyphname = L;
layers = (
{
layerId = "36A2F76C-EA0C-4AFB-832E-E1AC112461C1";
paths = (
{
nodes = (
"729 98 LINE",
"816 11 LINE",
"816 -122 LINE",
"126 -122 LINE",
"39 -35 LINE",
"33 -35 LINE",
"33 730 LINE",
"520 730 LINE",
"520 724 LINE",
"607 637 LINE",
"607 104 LINE",
"729 104 LINE"
);
},
{
nodes = (
"694 69 LINE",
"485 69 LINE",
"485 695 LINE",
"68 695 LINE",
"68 0 LINE",
"694 0 LINE"
);
}
);
width = 822;
}
);
unicode = 004C;
},
{
glyphname = M;
layers = (
{
layerId = "36A2F76C-EA0C-4AFB-832E-E1AC112461C1";
paths = (
{
nodes = (
"1149 724 LINE",
"1236 637 LINE",
"1236 -122 LINE",
"755 -122 LINE",
"668 -35 LINE",
"662 -35 LINE",
"662 164 LINE",
"610 216 LINE",
"610 -122 LINE",
"129 -122 LINE",
"42 -35 LINE",
"36 -35 LINE",
"36 730 LINE",
"510 730 LINE",
"514 721 LINE",
"598 637 LINE",
"616 598 LINE",
"631 632 OFFCURVE",
"661 701 OFFCURVE",
"675 730 QCURVE",
"1149 730 LINE"
);
},
{
nodes = (
"1114 695 LINE",
"697 695 LINE",
"671 637 OFFCURVE",
"619 522 OFFCURVE",
"593 463 QCURVE",
"567 521 OFFCURVE",
"515 637 OFFCURVE",
"488 695 QCURVE",
"71 695 LINE",
"71 0 LINE",
"488 0 LINE",
"488 540 LINE",
"593 309 LINE",
"697 540 LINE",
"697 0 LINE",
"1114 0 LINE"
);
}
);
width = 1275;
}
);
unicode = 004D;
},
{
glyphname = N;
layers = (
{
layerId = "36A2F76C-EA0C-4AFB-832E-E1AC112461C1";
paths = (
{
nodes = (
"726 724 LINE",
"813 637 LINE",
"813 -122 LINE",
"680 -122 LINE",
"605 -47 LINE",
"605 -122 LINE",
"124 -122 LINE",
"37 -35 LINE",
"31 -35 LINE",
"31 730 LINE",
"505 730 LINE",
"509 721 LINE",
"587 643 LINE",
"587 730 LINE",
"726 730 LINE"
);
},
{
nodes = (
"691 695 LINE",
"622 695 LINE",
"622 386 LINE",
"483 695 LINE",
"66 695 LINE",
"66 0 LINE",
"483 0 LINE",
"483 540 LINE",
"622 232 LINE",
"622 0 LINE",
"691 0 LINE"
);
}
);
width = 851;
}
);
unicode = 004E;
},
{
glyphname = O;
layers = (
{
layerId = "36A2F76C-EA0C-4AFB-832E-E1AC112461C1";
paths = (
{
nodes = (
"134 10 LINE",
"88 43 OFFCURVE",
"34 146 OFFCURVE",
"34 208 QCURVE SMOOTH",
"34 486 LINE SMOOTH",
"34 537 OFFCURVE",
"72 626 OFFCURVE",
"138 692 OFFCURVE",
"226 730 OFFCURVE",
"277 730 QCURVE SMOOTH",
"486 730 LINE SMOOTH",
"547 730 OFFCURVE",
"650 675 OFFCURVE",
"683 628 QCURVE",
"745 567 LINE SMOOTH",
"778 534 OFFCURVE",
"816 447 OFFCURVE",
"816 396 QCURVE SMOOTH",
"816 111 LINE SMOOTH",
"816 63 OFFCURVE",
"776 -22 OFFCURVE",
"710 -85 OFFCURVE",
"623 -122 OFFCURVE",
"576 -122 QCURVE SMOOTH",
"367 -122 LINE SMOOTH",
"316 -122 OFFCURVE",
"229 -84 OFFCURVE",
"197 -52 QCURVE SMOOTH"
);
},
{
nodes = (
"694 486 LINE SMOOTH",
"694 529 OFFCURVE",
"661 605 OFFCURVE",
"605 662 OFFCURVE",
"529 695 OFFCURVE",
"486 695 QCURVE SMOOTH",
"277 695 LINE SMOOTH",
"234 695 OFFCURVE",
"158 662 OFFCURVE",
"102 605 OFFCURVE",
"69 529 OFFCURVE",
"69 486 QCURVE SMOOTH",
"69 208 LINE SMOOTH",
"69 165 OFFCURVE",
"102 89 OFFCURVE",
"158 33 OFFCURVE",
"234 0 OFFCURVE",
"277 0 QCURVE SMOOTH",
"486 0 LINE SMOOTH",
"526 0 OFFCURVE",
"602 32 OFFCURVE",
"659 86 OFFCURVE",
"694 159 OFFCURVE",
"694 201 QCURVE SMOOTH"
);
},
{
nodes = (
"486 625 LINE",
"515 625 OFFCURVE",
"566 603 OFFCURVE",
"603 566 OFFCURVE",
"625 515 OFFCURVE",
"625 486 QCURVE SMOOTH",
"625 232 LINE SMOOTH",
"625 199 OFFCURVE",
"609 139 OFFCURVE",
"575 95 OFFCURVE",
"523 69 OFFCURVE",
"486 69 QCURVE"
);
}
);
width = 848;
}
);
unicode = 004F;
},
{
glyphname = P;
layers = (
{
layerId = "36A2F76C-EA0C-4AFB-832E-E1AC112461C1";
paths = (
{
nodes = (
"39 -35 LINE",
"33 -35 LINE",
"33 730 LINE",
"485 730 LINE SMOOTH",
"539 730 OFFCURVE",
"628 682 OFFCURVE",
"656 641 QCURVE",
"720 578 LINE SMOOTH",
"749 550 OFFCURVE",
"781 474 OFFCURVE",
"781 430 QCURVE SMOOTH",
"781 392 OFFCURVE",
"754 324 OFFCURVE",
"707 271 OFFCURVE",
"643 235 OFFCURVE",
"607 229 QCURVE",
"607 -122 LINE",
"126 -122 LINE"
);
},
{
nodes = (
"589 500 OFFCURVE",
"573 462 OFFCURVE",
"544 433 OFFCURVE",
"506 417 OFFCURVE",
"485 417 QCURVE",
"485 626 LINE",
"506 626 OFFCURVE",
"544 609 OFFCURVE",
"573 581 OFFCURVE",
"589 542 OFFCURVE",
"589 521 QCURVE SMOOTH"
);
},
{
nodes = (
"485 348 LINE",
"521 348 OFFCURVE",
"584 375 OFFCURVE",
"631 422 OFFCURVE",
"659 484 OFFCURVE",
"659 520 QCURVE SMOOTH",
"659 556 OFFCURVE",
"632 620 OFFCURVE",
"585 668 OFFCURVE",
"522 695 OFFCURVE",
"485 695 QCURVE SMOOTH",
"68 695 LINE",
"68 0 LINE",
"485 0 LINE"
);
}
);
width = 796;
}
);
unicode = 0050;
},
{
glyphname = Q;
layers = (
{
layerId = "36A2F76C-EA0C-4AFB-832E-E1AC112461C1";
paths = (
{
nodes = (
"132 10 LINE",
"86 43 OFFCURVE",
"32 146 OFFCURVE",
"32 208 QCURVE SMOOTH",
"32 486 LINE SMOOTH",
"32 537 OFFCURVE",
"70 626 OFFCURVE",
"136 692 OFFCURVE",
"224 730 OFFCURVE",
"275 730 QCURVE SMOOTH",
"484 730 LINE SMOOTH",
"545 730 OFFCURVE",
"648 675 OFFCURVE",
"681 628 QCURVE",
"743 567 LINE SMOOTH",
"776 534 OFFCURVE",
"814 447 OFFCURVE",
"814 396 QCURVE SMOOTH",
"814 364 OFFCURVE",
"815 300 OFFCURVE",
"815 268 QCURVE SMOOTH",
"815 142 LINE SMOOTH",
"815 103 OFFCURVE",
"793 22 OFFCURVE",
"760 -29 QCURVE",
"802 -122 LINE",
"663 -122 LINE",
"649 -108 LINE",
"602 -122 OFFCURVE",
"574 -122 QCURVE SMOOTH",
"365 -122 LINE SMOOTH",
"314 -122 OFFCURVE",
"227 -84 OFFCURVE",
"195 -52 QCURVE SMOOTH"
);
},
{
nodes = (
"623 472 OFFCURVE",
"623 419 OFFCURVE",
"623 353 OFFCURVE",
"623 282 OFFCURVE",
"621 220 OFFCURVE",
"618 172 OFFCURVE",
"615 162 QCURVE",
"650 83 LINE",
"676 118 OFFCURVE",
"693 190 OFFCURVE",
"693 232 QCURVE SMOOTH",
"693 295 OFFCURVE",
"692 422 OFFCURVE",
"692 486 QCURVE SMOOTH",
"692 529 OFFCURVE",
"659 605 OFFCURVE",
"603 662 OFFCURVE",
"527 695 OFFCURVE",
"484 695 QCURVE SMOOTH",
"275 695 LINE SMOOTH",
"232 695 OFFCURVE",
"156 662 OFFCURVE",
"100 605 OFFCURVE",
"67 529 OFFCURVE",
"67 486 QCURVE SMOOTH",
"67 208 LINE SMOOTH",
"67 165 OFFCURVE",
"100 89 OFFCURVE",
"156 33 OFFCURVE",
"232 0 OFFCURVE",
"275 0 QCURVE SMOOTH",
"484 0 LINE SMOOTH",
"523 0 OFFCURVE",
"560 14 QCURVE",
"531 78 LINE",
"508 69 OFFCURVE",
"484 69 QCURVE",
"484 625 LINE",
"513 625 OFFCURVE",
"564 603 OFFCURVE",
"601 566 OFFCURVE",
"623 515 OFFCURVE",
"623 486 QCURVE SMOOTH"
);
},
{
nodes = (
"663 0 LINE",
"595 150 LINE",
"526 150 LINE",
"543 112 OFFCURVE",
"576 37 OFFCURVE",
"593 0 QCURVE"
);
}
);
width = 848;
}
);
unicode = 0051;
},
{
glyphname = R;
layers = (
{
layerId = "36A2F76C-EA0C-4AFB-832E-E1AC112461C1";
paths = (
{
nodes = (
"43 -35 LINE",
"37 -35 LINE",
"37 730 LINE",
"489 730 LINE SMOOTH",
"543 730 OFFCURVE",
"633 681 OFFCURVE",
"661 639 QCURVE",
"724 577 LINE SMOOTH",
"753 549 OFFCURVE",
"785 474 OFFCURVE",
"785 430 QCURVE SMOOTH",
"785 364 OFFCURVE",
"738 280 OFFCURVE",
"685 253 QCURVE",
"704 209 OFFCURVE",
"748 113 OFFCURVE",
"793 15 OFFCURVE",
"836 -80 OFFCURVE",
"855 -122 QCURVE",
"715 -122 LINE",
"628 -35 LINE",
"623 -35 LINE",
"611 -8 LINE",
"611 -122 LINE",
"130 -122 LINE"
);
},
{
nodes = (
"593 477 OFFCURVE",
"533 417 OFFCURVE",
"489 417 QCURVE",
"489 625 LINE",
"533 625 OFFCURVE",
"593 565 OFFCURVE",
"593 521 QCURVE SMOOTH"
);
},
{
nodes = (
"612 383 OFFCURVE",
"663 457 OFFCURVE",
"663 520 QCURVE SMOOTH",
"663 556 OFFCURVE",
"636 620 OFFCURVE",
"589 668 OFFCURVE",
"525 695 OFFCURVE",
"489 695 QCURVE SMOOTH",
"72 695 LINE",
"72 0 LINE",
"489 0 LINE",
"489 347 LINE",
"645 0 LINE",
"715 0 LINE",
"632 180 OFFCURVE",
"553 360 QCURVE"
);
}
);
width = 812;
}
);
unicode = 0052;
},
{
glyphname = S;
layers = (
{
layerId = "36A2F76C-EA0C-4AFB-832E-E1AC112461C1";
paths = (
{
nodes = (
"683 351 LINE",
"739 295 LINE",
"747 288 LINE",
"779 256 OFFCURVE",
"816 170 OFFCURVE",
"816 121 QCURVE SMOOTH",
"816 72 OFFCURVE",
"779 -16 OFFCURVE",
"714 -83 OFFCURVE",
"626 -122 OFFCURVE",
"576 -122 QCURVE SMOOTH",
"367 -122 LINE SMOOTH",
"316 -122 OFFCURVE",
"229 -84 OFFCURVE",
"197 -52 QCURVE SMOOTH",
"134 10 LINE",
"88 43 OFFCURVE",
"34 146 OFFCURVE",
"34 208 QCURVE SMOOTH",
"34 313 LINE",
"159 313 LINE",
"121 350 LINE",
"81 379 OFFCURVE",
"34 467 OFFCURVE",
"34 521 QCURVE SMOOTH",
"34 564 OFFCURVE",
"67 641 OFFCURVE",
"123 697 OFFCURVE",
"199 730 OFFCURVE",
"243 730 QCURVE SMOOTH",
"486 730 LINE SMOOTH",
"541 730 OFFCURVE",
"636 679 OFFCURVE",
"669 634 QCURVE",
"735 569 LINE SMOOTH",
"773 531 OFFCURVE",
"817 425 OFFCURVE",
"817 364 QCURVE",
"683 364 LINE"
);
},
{
nodes = (
"486 0 LINE SMOOTH",
"529 0 OFFCURVE",
"605 34 OFFCURVE",
"662 92 OFFCURVE",
"694 168 OFFCURVE",
"694 211 QCURVE SMOOTH",
"694 254 OFFCURVE",
"661 329 OFFCURVE",
"604 385 OFFCURVE",
"529 417 OFFCURVE",
"486 417 QCURVE",
"486 625 LINE",
"515 625 OFFCURVE",
"566 603 OFFCURVE",
"603 566 OFFCURVE",
"625 515 OFFCURVE",
"625 486 QCURVE",
"695 486 LINE",
"695 529 OFFCURVE",
"662 605 OFFCURVE",
"605 662 OFFCURVE",
"529 695 OFFCURVE",
"486 695 QCURVE SMOOTH",
"243 695 LINE SMOOTH",
"207 695 OFFCURVE",
"144 668 OFFCURVE",
"96 620 OFFCURVE",
"69 557 OFFCURVE",
"69 521 QCURVE SMOOTH",
"69 485 OFFCURVE",
"96 422 OFFCURVE",
"144 374 OFFCURVE",
"207 347 OFFCURVE",
"243 347 QCURVE SMOOTH",
"486 347 LINE SMOOTH",
"515 347 OFFCURVE",
"566 325 OFFCURVE",
"603 288 OFFCURVE",
"625 237 OFFCURVE",
"625 208 QCURVE SMOOTH",
"625 179 OFFCURVE",
"603 128 OFFCURVE",
"566 91 OFFCURVE",
"515 69 OFFCURVE",
"486 69 QCURVE",
"486 278 LINE",
"69 278 LINE",
"69 208 LINE SMOOTH",
"69 165 OFFCURVE",
"102 89 OFFCURVE",
"158 33 OFFCURVE",
"234 0 OFFCURVE",
"277 0 QCURVE SMOOTH"
);
}
);
width = 838;
}
);
unicode = 0053;
},
{
glyphname = T;
layers = (
{
layerId = "36A2F76C-EA0C-4AFB-832E-E1AC112461C1";
paths = (
{
nodes = (
"778 724 LINE",
"865 637 LINE",
"865 503 LINE",
"725 503 LINE",
"725 -122 LINE",
"247 -122 LINE",
"160 -35 LINE",
"154 -35 LINE",
"153 503 LINE",
"106 503 LINE",
"19 590 LINE",
"13 590 LINE",
"13 730 LINE",
"778 730 LINE"
);
},
{
nodes = (
"743 695 LINE",
"48 695 LINE",
"48 625 LINE",
"188 625 LINE",
"189 0 LINE",
"603 0 LINE",
"603 625 LINE",
"743 625 LINE"
);
}
);
width = 877;
}
);
unicode = 0054;
},
{
glyphname = U;
layers = (
{
layerId = "36A2F76C-EA0C-4AFB-832E-E1AC112461C1";
paths = (
{
nodes = (
"135 10 LINE",
"89 43 OFFCURVE",
"34 146 OFFCURVE",
"34 208 QCURVE SMOOTH",
"34 730 LINE",
"521 730 LINE",
"521 724 LINE",
"590 655 LINE",
"590 730 LINE",
"730 730 LINE",
"730 724 LINE",
"817 637 LINE",
"817 411 LINE SMOOTH",
"817 362 OFFCURVE",
"818 266 OFFCURVE",
"818 218 QCURVE SMOOTH",
"818 191 LINE SMOOTH",
"818 171 OFFCURVE",
"818 130 OFFCURVE",
"817 110 QCURVE SMOOTH",
"815 62 OFFCURVE",
"776 -23 OFFCURVE",
"711 -86 OFFCURVE",
"625 -122 OFFCURVE",
"576 -122 QCURVE SMOOTH",
"368 -122 LINE SMOOTH",
"317 -122 OFFCURVE",
"230 -84 OFFCURVE",
"197 -51 QCURVE SMOOTH"
);
},
{
nodes = (
"696 405 OFFCURVE",
"695 598 OFFCURVE",
"695 695 QCURVE",
"625 695 LINE",
"625 255 LINE SMOOTH",
"625 220 OFFCURVE",
"621 159 OFFCURVE",
"600 128 QCURVE SMOOTH",
"578 96 OFFCURVE",
"524 69 OFFCURVE",
"486 69 QCURVE",
"486 695 LINE",
"69 695 LINE",
"69 208 LINE SMOOTH",
"69 165 OFFCURVE",
"102 89 OFFCURVE",
"159 33 OFFCURVE",
"235 0 OFFCURVE",
"278 0 QCURVE SMOOTH",
"486 0 LINE SMOOTH",
"528 0 OFFCURVE",
"603 31 OFFCURVE",
"659 86 OFFCURVE",
"693 159 OFFCURVE",
"695 201 QCURVE SMOOTH",
"697 228 OFFCURVE",
"696 281 OFFCURVE",
"696 308 QCURVE SMOOTH"
);
}
);
width = 855;
}
);
unicode = 0055;
},
{
glyphname = V;
layers = (
{
layerId = "36A2F76C-EA0C-4AFB-832E-E1AC112461C1";
paths = (
{
nodes = (
"777 724 LINE",
"865 637 LINE",
"523 -122 LINE",
"414 -122 LINE",
"327 -35 LINE",
"322 -35 LINE",
"-23 730 LINE",
"471 730 LINE",
"475 721 LINE",
"559 637 LINE",
"575 601 LINE",
"633 730 LINE",
"780 730 LINE"
);
},
{
nodes = (
"726 695 LINE",
"656 695 LINE",
"552 463 LINE",
"448 695 LINE",
"31 695 LINE",
"344 0 LINE",
"413 0 LINE"
);
}
);
width = 838;
}
);
unicode = 0056;
},
{
glyphname = W;
layers = (
{
layerId = "36A2F76C-EA0C-4AFB-832E-E1AC112461C1";
paths = (
{
nodes = (
"1271 724 LINE",
"1359 637 LINE",
"1018 -122 LINE",
"907 -122 LINE",
"820 -35 LINE",
"815 -35 LINE",
"675 275 LINE",
"496 -122 LINE",
"387 -122 LINE",
"300 -35 LINE",
"295 -35 LINE",
"-50 730 LINE",
"444 730 LINE",
"448 721 LINE",
"532 637 LINE",
"548 601 LINE",
"606 730 LINE",
"964 730 LINE",
"968 721 LINE",
"1052 637 LINE",
"1069 599 LINE",
"1083 632 OFFCURVE",
"1114 697 OFFCURVE",
"1128 730 QCURVE",
"1274 730 LINE"
);
},
{
nodes = (
"1220 695 LINE",
"1151 695 LINE",
"1047 463 LINE",
"942 695 LINE",
"629 695 LINE",
"525 463 LINE",
"421 695 LINE",
"4 695 LINE",
"317 0 LINE",
"386 0 LINE",
"612 502 LINE",
"838 0 LINE",
"908 0 LINE"
);
}
);
width = 1331;
}
);
unicode = 0057;
},
{
glyphname = X;
layers = (
{
layerId = "36A2F76C-EA0C-4AFB-832E-E1AC112461C1";
paths = (
{
nodes = (
"775 725 LINE",
"863 637 LINE",
"682 118 LINE",
"887 -122 LINE",
"699 -122 LINE",
"623 -46 LINE",
"615 -66 OFFCURVE",
"602 -105 OFFCURVE",
"597 -122 QCURVE",
"113 -122 LINE",
"26 -35 LINE",
"19 -35 LINE",
"201 485 LINE",
"-7 730 LINE",
"187 730 LINE",
"210 702 LINE",
"260 652 LINE",
"287 730 LINE",
"777 730 LINE"
);
},
{
nodes = (
"728 695 LINE",
"311 695 LINE",
"271 579 LINE",
"172 695 LINE",
"68 695 LINE",
"240 492 LINE",
"68 0 LINE",
"485 0 LINE",
"526 115 LINE",
"624 0 LINE",
"728 0 LINE",
"556 202 LINE"
);
}
);
width = 892;
}
);
unicode = 0058;
},
{
glyphname = Y;
layers = (
{
layerId = "36A2F76C-EA0C-4AFB-832E-E1AC112461C1";
paths = (
{
nodes = (
"10 -35 LINE",
"3 -35 LINE",
"185 486 LINE",
"-23 731 LINE",
"171 731 LINE",
"192 705 LINE",
"243 653 LINE",
"271 731 LINE",
"761 731 LINE",
"759 726 LINE",
"847 638 LINE",
"582 -122 LINE",
"97 -122 LINE"
);
},
{
nodes = (
"255 580 LINE",
"156 696 LINE",
"52 696 LINE",
"224 493 LINE",
"52 0 LINE",
"469 0 LINE",
"712 696 LINE",
"295 696 LINE"
);
}
);
width = 856;
}
);
unicode = 0059;
},
{
glyphname = Z;
layers = (
{
layerId = "36A2F76C-EA0C-4AFB-832E-E1AC112461C1";
paths = (
{
nodes = (
"27 591 LINE",
"21 591 LINE",
"21 730 LINE",
"786 730 LINE",
"786 724 LINE",
"873 637 LINE",
"873 528 LINE",
"661 105 LINE",
"786 105 LINE",
"786 99 LINE",
"873 12 LINE",
"873 -122 LINE",
"114 -122 LINE",
"27 -35 LINE",
"21 -35 LINE",
"21 79 LINE",
"233 504 LINE",
"114 504 LINE"
);
},
{
nodes = (
"751 626 LINE",
"751 695 LINE",
"56 695 LINE",
"56 626 LINE",
"334 626 LINE",
"56 70 LINE",
"56 0 LINE",
"751 0 LINE",
"751 70 LINE",
"473 70 LINE"
);
}
);
width = 906;
}
);
unicode = 005A;
},
{
glyphname = a;
layers = (
{
layerId = "36A2F76C-EA0C-4AFB-832E-E1AC112461C1";
paths = (
{
nodes = (
"292 730 LINE",
"406 730 LINE",
"410 721 LINE",
"494 637 LINE",
"835 -122 LINE",
"349 -122 LINE",
"280 -53 LINE",
"213 -53 LINE",
"205 -70 OFFCURVE",
"187 -109 OFFCURVE",
"182 -122 QCURVE",
"42 -122 LINE",
"-45 -35 LINE",
"-53 -35 LINE"
);
},
{
nodes = (
"1 0 LINE",
"71 0 LINE",
"102 69 LINE",
"248 69 LINE",
"279 0 LINE",
"696 0 LINE",
"384 695 LINE",
"314 695 LINE"
);
},
{
nodes = (
"175 231 LINE",
"217 139 LINE",
"133 139 LINE"
);
}
);
width = 698;
}
);
unicode = 0061;
},
{
glyphname = b;
layers = (
{
layerId = "36A2F76C-EA0C-4AFB-832E-E1AC112461C1";
paths = (
{
nodes = (
"740 293 LINE",
"741 293 OFFCURVE",
"741 292 QCURVE"
);
},
{
nodes = (
"645 196 LINE",
"645 198 OFFCURVE",
"644 198 QCURVE"
);
},
{
nodes = (
"38 -35 LINE",
"32 -35 LINE",
"32 730 LINE",
"484 730 LINE SMOOTH",
"538 730 OFFCURVE",
"627 683 OFFCURVE",
"655 642 QCURVE",
"720 578 LINE SMOOTH",
"748 550 OFFCURVE",
"780 475 OFFCURVE",
"780 430 QCURVE SMOOTH",
"780 356 OFFCURVE",
"733 300 QCURVE",
"741 292 LINE",
"749 285 LINE",
"815 219 OFFCURVE",
"815 120 QCURVE SMOOTH",
"815 70 OFFCURVE",
"778 -18 OFFCURVE",
"713 -84 OFFCURVE",
"625 -122 OFFCURVE",
"574 -122 QCURVE SMOOTH",
"125 -122 LINE"
);
},
{
nodes = (
"623 179 OFFCURVE",
"601 128 OFFCURVE",
"564 91 OFFCURVE",
"513 69 OFFCURVE",
"484 69 QCURVE",
"484 347 LINE",
"513 347 OFFCURVE",
"564 325 OFFCURVE",
"601 288 OFFCURVE",
"623 237 OFFCURVE",
"623 208 QCURVE SMOOTH"
);
},
{
nodes = (
"588 476 OFFCURVE",
"529 417 OFFCURVE",
"484 417 QCURVE",
"484 625 LINE",
"529 625 OFFCURVE",
"588 566 OFFCURVE",
"588 521 QCURVE SMOOTH"
);
},
{
nodes = (
"624 411 OFFCURVE",
"658 480 OFFCURVE",
"658 520 QCURVE SMOOTH",
"658 557 OFFCURVE",
"631 621 OFFCURVE",
"584 668 OFFCURVE",
"521 695 OFFCURVE",
"484 695 QCURVE SMOOTH",
"67 695 LINE",
"67 0 LINE",
"484 0 LINE SMOOTH",
"528 0 OFFCURVE",
"605 33 OFFCURVE",
"661 90 OFFCURVE",
"693 166 OFFCURVE",
"693 210 QCURVE SMOOTH",
"693 267 OFFCURVE",
"641 357 OFFCURVE",
"593 386 QCURVE"
);
}
);
width = 838;
}
);
unicode = 0062;
},
{
glyphname = c;
layers = (
{
layerId = "36A2F76C-EA0C-4AFB-832E-E1AC112461C1";
paths = (
{
nodes = (
"606 468 LINE",
"606 244 LINE",
"727 244 LINE",
"727 238 LINE",
"814 151 LINE",
"814 95 OFFCURVE",
"776 -5 OFFCURVE",
"711 -79 OFFCURVE",
"624 -122 OFFCURVE",
"574 -122 QCURVE SMOOTH",
"365 -122 LINE SMOOTH",
"315 -122 OFFCURVE",
"228 -84 OFFCURVE",
"196 -52 QCURVE SMOOTH",
"134 10 LINE",
"87 43 OFFCURVE",
"32 146 OFFCURVE",
"32 209 QCURVE SMOOTH",
"32 487 LINE SMOOTH",
"32 538 OFFCURVE",
"70 627 OFFCURVE",
"136 693 OFFCURVE",
"224 731 OFFCURVE",
"275 731 QCURVE SMOOTH",
"484 731 LINE SMOOTH",
"540 731 OFFCURVE",
"635 678 OFFCURVE",
"669 633 QCURVE",
"732 570 LINE SMOOTH",
"770 532 OFFCURVE",
"814 426 OFFCURVE",
"814 365 QCURVE",
"713 365 LINE"
);
},
{
nodes = (
"692 487 LINE",
"692 530 OFFCURVE",
"659 606 OFFCURVE",
"603 663 OFFCURVE",
"527 696 OFFCURVE",
"484 696 QCURVE SMOOTH",
"275 696 LINE SMOOTH",
"232 696 OFFCURVE",
"156 663 OFFCURVE",
"100 606 OFFCURVE",
"67 530 OFFCURVE",
"67 487 QCURVE SMOOTH",
"67 209 LINE SMOOTH",
"67 166 OFFCURVE",
"100 90 OFFCURVE",
"156 33 OFFCURVE",
"232 0 OFFCURVE",
"275 0 QCURVE SMOOTH",
"484 0 LINE SMOOTH",
"527 0 OFFCURVE",
"603 33 OFFCURVE",
"659 90 OFFCURVE",
"692 166 OFFCURVE",
"692 209 QCURVE",
"623 209 LINE",
"623 180 OFFCURVE",
"601 129 OFFCURVE",
"564 92 OFFCURVE",
"513 70 OFFCURVE",
"484 70 QCURVE",
"484 626 LINE",
"513 626 OFFCURVE",
"564 604 OFFCURVE",
"601 567 OFFCURVE",
"623 516 OFFCURVE",
"623 487 QCURVE"
);
}
);
width = 838;
}
);
unicode = 0063;
},
{
glyphname = d;
layers = (
{
layerId = "36A2F76C-EA0C-4AFB-832E-E1AC112461C1";
paths = (
{
nodes = (
"37 -35 LINE",
"31 -35 LINE",
"31 730 LINE",
"483 730 LINE SMOOTH",
"545 730 OFFCURVE",
"649 675 OFFCURVE",
"682 628 QCURVE",
"744 566 LINE SMOOTH",
"776 534 OFFCURVE",
"814 447 OFFCURVE",
"814 397 QCURVE SMOOTH",
"814 312 LINE SMOOTH",
"814 290 OFFCURVE",
"815 247 OFFCURVE",
"815 225 QCURVE SMOOTH",
"815 196 OFFCURVE",
"815 138 OFFCURVE",
"813 109 QCURVE SMOOTH",
"810 61 OFFCURVE",
"772 -24 OFFCURVE",
"708 -86 OFFCURVE",
"622 -122 OFFCURVE",
"573 -122 QCURVE SMOOTH",
"124 -122 LINE"
);
},
{
nodes = (
"693 359 OFFCURVE",
"692 444 OFFCURVE",
"692 487 QCURVE SMOOTH",
"692 530 OFFCURVE",
"659 606 OFFCURVE",
"602 662 OFFCURVE",
"526 695 OFFCURVE",
"483 695 QCURVE SMOOTH",
"66 695 LINE",
"66 0 LINE",
"483 0 LINE SMOOTH",
"526 0 OFFCURVE",
"600 31 OFFCURVE",
"655 86 OFFCURVE",
"689 159 OFFCURVE",
"691 201 QCURVE SMOOTH",
"693 230 OFFCURVE",
"693 286 OFFCURVE",
"693 315 QCURVE SMOOTH"
);
},
{
nodes = (
"483 626 LINE",
"511 626 OFFCURVE",
"562 604 OFFCURVE",
"600 566 OFFCURVE",
"622 515 OFFCURVE",
"622 487 QCURVE SMOOTH",
"622 227 LINE SMOOTH",
"622 194 OFFCURVE",
"605 136 OFFCURVE",
"570 94 OFFCURVE",
"518 69 OFFCURVE",
"483 69 QCURVE"
);
}
);
width = 845;
}
);
unicode = 0064;
},
{
glyphname = e;
layers = (
{
layerId = "36A2F76C-EA0C-4AFB-832E-E1AC112461C1";
paths = (
{
nodes = (
"696 98 LINE",
"783 11 LINE",
"783 -122 LINE",
"128 -122 LINE",
"41 -35 LINE",
"35 -35 LINE",
"35 730 LINE",
"696 730 LINE",
"696 724 LINE",
"783 637 LINE",
"783 503 LINE",
"610 503 LINE",
"610 452 LINE",
"696 452 LINE",
"696 446 LINE",
"783 359 LINE",
"783 225 LINE",
"610 225 LINE",
"610 104 LINE",
"696 104 LINE"
);
},
{
nodes = (
"661 69 LINE",
"488 69 LINE",
"488 347 LINE",
"661 347 LINE",
"661 417 LINE",
"488 417 LINE",
"488 625 LINE",
"661 625 LINE",
"661 695 LINE",
"70 695 LINE",
"70 0 LINE",
"661 0 LINE"
);
}
);
width = 816;
}
);
unicode = 0065;
},
{
glyphname = f;
layers = (
{
layerId = "36A2F76C-EA0C-4AFB-832E-E1AC112461C1";
paths = (
{
nodes = (
"695 446 LINE",
"782 359 LINE",
"782 226 LINE",
"608 226 LINE",
"608 -122 LINE",
"127 -122 LINE",
"40 -35 LINE",
"34 -35 LINE",
"34 730 LINE",
"695 730 LINE",
"695 724 LINE",
"782 637 LINE",
"782 504 LINE",
"608 504 LINE",
"608 452 LINE",
"695 452 LINE"
);
},
{
nodes = (
"660 417 LINE",
"486 417 LINE",
"486 626 LINE",
"660 626 LINE",
"660 695 LINE",
"69 695 LINE",
"69 0 LINE",
"486 0 LINE",
"486 348 LINE",
"660 348 LINE"
);
}
);
width = 819;
}
);
unicode = 0066;
},
{
glyphname = g;
layers = (
{
layerId = "36A2F76C-EA0C-4AFB-832E-E1AC112461C1";
paths = (
{
nodes = (
"603 468 LINE",
"603 348 LINE",
"724 348 LINE",
"724 342 LINE",
"811 255 LINE",
"811 118 LINE SMOOTH",
"811 68 OFFCURVE",
"773 -19 OFFCURVE",
"708 -84 OFFCURVE",
"621 -122 OFFCURVE",
"571 -122 QCURVE SMOOTH",
"362 -122 LINE SMOOTH",
"311 -122 OFFCURVE",
"224 -84 OFFCURVE",
"192 -52 QCURVE SMOOTH",
"129 10 LINE",
"83 43 OFFCURVE",
"29 146 OFFCURVE",
"29 208 QCURVE SMOOTH",
"29 487 LINE SMOOTH",
"29 538 OFFCURVE",
"67 626 OFFCURVE",
"133 692 OFFCURVE",
"221 730 OFFCURVE",
"272 730 QCURVE SMOOTH",
"481 730 LINE SMOOTH",
"538 730 OFFCURVE",
"633 676 OFFCURVE",
"667 631 QCURVE",
"729 569 LINE SMOOTH",
"767 531 OFFCURVE",
"811 426 OFFCURVE",
"811 365 QCURVE",
"710 365 LINE",
"623 452 LINE",
"619 452 LINE"
);
},
{
nodes = (
"689 487 LINE",
"689 530 OFFCURVE",
"656 606 OFFCURVE",
"600 662 OFFCURVE",
"524 695 OFFCURVE",
"481 695 QCURVE SMOOTH",
"272 695 LINE SMOOTH",
"229 695 OFFCURVE",
"153 662 OFFCURVE",
"97 606 OFFCURVE",
"64 530 OFFCURVE",
"64 487 QCURVE SMOOTH",
"64 208 LINE SMOOTH",
"64 165 OFFCURVE",
"97 89 OFFCURVE",
"153 33 OFFCURVE",
"229 0 OFFCURVE",
"272 0 QCURVE SMOOTH",
"481 0 LINE SMOOTH",
"524 0 OFFCURVE",
"600 33 OFFCURVE",
"656 89 OFFCURVE",
"689 165 OFFCURVE",
"689 208 QCURVE SMOOTH",
"689 313 LINE",
"550 313 LINE",
"550 243 LINE",
"620 243 LINE",
"620 208 LINE SMOOTH",
"620 179 OFFCURVE",
"598 129 OFFCURVE",
"560 91 OFFCURVE",
"509 69 OFFCURVE",
"481 69 QCURVE",
"481 625 LINE",
"509 625 OFFCURVE",
"560 604 OFFCURVE",
"598 566 OFFCURVE",
"620 516 OFFCURVE",
"620 487 QCURVE"
);
}
);
width = 848;
}
);
unicode = 0067;
},
{
glyphname = h;
layers = (
{
layerId = "36A2F76C-EA0C-4AFB-832E-E1AC112461C1";
paths = (
{
nodes = (
"727 724 LINE",
"814 637 LINE",
"814 -122 LINE",
"681 -122 LINE",
"606 -47 LINE",
"606 -122 LINE",
"124 -122 LINE",
"37 -35 LINE",
"31 -35 LINE",
"31 730 LINE",
"519 730 LINE",
"519 724 LINE",
"588 655 LINE",
"588 730 LINE",
"727 730 LINE"
);
},
{
nodes = (
"692 695 LINE",
"623 695 LINE",
"623 417 LINE",
"484 417 LINE",
"484 695 LINE",
"66 695 LINE",
"66 0 LINE",
"484 0 LINE",
"484 348 LINE",
"623 348 LINE",
"623 0 LINE",
"692 0 LINE"
);
}
);
width = 848;
}
);
unicode = 0068;
},
{
glyphname = i;
layers = (
{
layerId = "36A2F76C-EA0C-4AFB-832E-E1AC112461C1";
paths = (
{
nodes = (
"522 724 LINE",
"609 637 LINE",
"609 -122 LINE",
"128 -122 LINE",
"41 -35 LINE",
"35 -35 LINE",
"35 730 LINE",
"522 730 LINE"
);
},
{
nodes = (
"487 695 LINE",
"70 695 LINE",
"70 0 LINE",
"487 0 LINE"
);
}
);
width = 641;
}
);
unicode = 0069;
},
{
glyphname = j;
layers = (
{
layerId = "36A2F76C-EA0C-4AFB-832E-E1AC112461C1";
paths = (
{
nodes = (
"587 724 LINE",
"674 637 LINE",
"674 119 LINE SMOOTH",
"674 69 OFFCURVE",
"636 -19 OFFCURVE",
"571 -84 OFFCURVE",
"484 -122 OFFCURVE",
"434 -122 QCURVE SMOOTH",
"124 -122 LINE",
"37 -35 LINE",
"31 -35 LINE",
"31 104 LINE",
"100 104 LINE",
"100 730 LINE",
"587 730 LINE"
);
},
{
nodes = (
"552 695 LINE",
"135 695 LINE",
"135 69 LINE",
"66 69 LINE",
"66 0 LINE",
"344 0 LINE SMOOTH",
"387 0 OFFCURVE",
"463 33 OFFCURVE",
"519 90 OFFCURVE",
"552 166 OFFCURVE",
"552 209 QCURVE SMOOTH"
);
}
);
width = 702;
}
);
unicode = 006A;
},
{
glyphname = k;
layers = (
{
layerId = "36A2F76C-EA0C-4AFB-832E-E1AC112461C1";
paths = (
{
nodes = (
"40 -35 LINE",
"34 -35 LINE",
"34 730 LINE",
"521 730 LINE",
"521 724 LINE",
"563 681 LINE",
"585 730 LINE",
"731 730 LINE",
"728 724 LINE",
"816 637 LINE",
"663 296 LINE",
"862 -122 LINE",
"711 -122 LINE",
"624 -35 LINE",
"619 -35 LINE",
"608 -10 LINE",
"608 -122 LINE",
"127 -122 LINE"
);
},
{
nodes = (
"538 386 LINE",
"677 695 LINE",
"608 695 LINE",
"486 424 LINE",
"486 695 LINE",
"69 695 LINE",
"69 0 LINE",
"486 0 LINE",
"486 270 LINE",
"503 309 LINE",
"642 0 LINE",
"712 0 LINE"
);
}
);
width = 842;
}
);
unicode = 006B;
},
{
glyphname = l;
layers = (
{
layerId = "36A2F76C-EA0C-4AFB-832E-E1AC112461C1";
paths = (
{
nodes = (
"729 98 LINE",
"816 11 LINE",
"816 -122 LINE",
"126 -122 LINE",
"39 -35 LINE",
"33 -35 LINE",
"33 730 LINE",
"520 730 LINE",
"520 724 LINE",
"607 637 LINE",
"607 104 LINE",
"729 104 LINE"
);
},
{
nodes = (
"694 69 LINE",
"485 69 LINE",
"485 695 LINE",
"68 695 LINE",
"68 0 LINE",
"694 0 LINE"
);
}
);
width = 822;
}
);
unicode = 006C;
},
{
glyphname = m;
layers = (
{
layerId = "36A2F76C-EA0C-4AFB-832E-E1AC112461C1";
paths = (
{
nodes = (
"1149 724 LINE",
"1236 637 LINE",
"1236 -122 LINE",
"755 -122 LINE",
"668 -35 LINE",
"662 -35 LINE",
"662 164 LINE",
"610 216 LINE",
"610 -122 LINE",
"129 -122 LINE",
"42 -35 LINE",
"36 -35 LINE",
"36 730 LINE",
"510 730 LINE",
"514 721 LINE",
"598 637 LINE",
"616 598 LINE",
"631 632 OFFCURVE",
"661 701 OFFCURVE",
"675 730 QCURVE",
"1149 730 LINE"
);
},
{
nodes = (
"1114 695 LINE",
"697 695 LINE",
"671 637 OFFCURVE",
"619 522 OFFCURVE",
"593 463 QCURVE",
"567 521 OFFCURVE",
"515 637 OFFCURVE",
"488 695 QCURVE",
"71 695 LINE",
"71 0 LINE",
"488 0 LINE",
"488 540 LINE",
"593 309 LINE",
"697 540 LINE",
"697 0 LINE",
"1114 0 LINE"
);
}
);
width = 1275;
}
);
unicode = 006D;
},
{
glyphname = n;
layers = (
{
layerId = "36A2F76C-EA0C-4AFB-832E-E1AC112461C1";
paths = (
{
nodes = (
"726 724 LINE",
"813 637 LINE",
"813 -122 LINE",
"680 -122 LINE",
"605 -47 LINE",
"605 -122 LINE",
"124 -122 LINE",
"37 -35 LINE",
"31 -35 LINE",
"31 730 LINE",
"505 730 LINE",
"509 721 LINE",
"587 643 LINE",
"587 730 LINE",
"726 730 LINE"
);
},
{
nodes = (
"691 695 LINE",
"622 695 LINE",
"622 386 LINE",
"483 695 LINE",
"66 695 LINE",
"66 0 LINE",
"483 0 LINE",
"483 540 LINE",
"622 232 LINE",
"622 0 LINE",
"691 0 LINE"
);
}
);
width = 851;
}
);
unicode = 006E;
},
{
glyphname = o;
layers = (
{
layerId = "36A2F76C-EA0C-4AFB-832E-E1AC112461C1";
paths = (
{
nodes = (
"134 10 LINE",
"88 43 OFFCURVE",
"34 146 OFFCURVE",
"34 208 QCURVE SMOOTH",
"34 486 LINE SMOOTH",
"34 537 OFFCURVE",
"72 626 OFFCURVE",
"138 692 OFFCURVE",
"226 730 OFFCURVE",
"277 730 QCURVE SMOOTH",
"486 730 LINE SMOOTH",
"547 730 OFFCURVE",
"650 675 OFFCURVE",
"683 628 QCURVE",
"745 567 LINE SMOOTH",
"778 534 OFFCURVE",
"816 447 OFFCURVE",
"816 396 QCURVE SMOOTH",
"816 111 LINE SMOOTH",
"816 63 OFFCURVE",
"776 -22 OFFCURVE",
"710 -85 OFFCURVE",
"623 -122 OFFCURVE",
"576 -122 QCURVE SMOOTH",
"367 -122 LINE SMOOTH",
"316 -122 OFFCURVE",
"229 -84 OFFCURVE",
"197 -52 QCURVE SMOOTH"
);
},
{
nodes = (
"694 486 LINE SMOOTH",
"694 529 OFFCURVE",
"661 605 OFFCURVE",
"605 662 OFFCURVE",
"529 695 OFFCURVE",
"486 695 QCURVE SMOOTH",
"277 695 LINE SMOOTH",
"234 695 OFFCURVE",
"158 662 OFFCURVE",
"102 605 OFFCURVE",
"69 529 OFFCURVE",
"69 486 QCURVE SMOOTH",
"69 208 LINE SMOOTH",
"69 165 OFFCURVE",
"102 89 OFFCURVE",
"158 33 OFFCURVE",
"234 0 OFFCURVE",
"277 0 QCURVE SMOOTH",
"486 0 LINE SMOOTH",
"526 0 OFFCURVE",
"602 32 OFFCURVE",
"659 86 OFFCURVE",
"694 159 OFFCURVE",
"694 201 QCURVE SMOOTH"
);
},
{
nodes = (
"486 625 LINE",
"515 625 OFFCURVE",
"566 603 OFFCURVE",
"603 566 OFFCURVE",
"625 515 OFFCURVE",
"625 486 QCURVE SMOOTH",
"625 232 LINE SMOOTH",
"625 199 OFFCURVE",
"609 139 OFFCURVE",
"575 95 OFFCURVE",
"523 69 OFFCURVE",
"486 69 QCURVE"
);
}
);
width = 848;
}
);
unicode = 006F;
},
{
glyphname = p;
layers = (
{
layerId = "36A2F76C-EA0C-4AFB-832E-E1AC112461C1";
paths = (
{
nodes = (
"39 -35 LINE",
"33 -35 LINE",
"33 730 LINE",
"485 730 LINE SMOOTH",
"539 730 OFFCURVE",
"628 682 OFFCURVE",
"656 641 QCURVE",
"720 578 LINE SMOOTH",
"749 550 OFFCURVE",
"781 474 OFFCURVE",
"781 430 QCURVE SMOOTH",
"781 392 OFFCURVE",
"754 324 OFFCURVE",
"707 271 OFFCURVE",
"643 235 OFFCURVE",
"607 229 QCURVE",
"607 -122 LINE",
"126 -122 LINE"
);
},
{
nodes = (
"589 500 OFFCURVE",
"573 462 OFFCURVE",
"544 433 OFFCURVE",
"506 417 OFFCURVE",
"485 417 QCURVE",
"485 626 LINE",
"506 626 OFFCURVE",
"544 609 OFFCURVE",
"573 581 OFFCURVE",
"589 542 OFFCURVE",
"589 521 QCURVE SMOOTH"
);
},
{
nodes = (
"485 348 LINE",
"521 348 OFFCURVE",
"584 375 OFFCURVE",
"631 422 OFFCURVE",
"659 484 OFFCURVE",
"659 520 QCURVE SMOOTH",
"659 556 OFFCURVE",
"632 620 OFFCURVE",
"585 668 OFFCURVE",
"522 695 OFFCURVE",
"485 695 QCURVE SMOOTH",
"68 695 LINE",
"68 0 LINE",
"485 0 LINE"
);
}
);
width = 796;
}
);
unicode = 0070;
},
{
glyphname = q;
layers = (
{
layerId = "36A2F76C-EA0C-4AFB-832E-E1AC112461C1";
paths = (
{
nodes = (
"132 10 LINE",
"86 43 OFFCURVE",
"32 146 OFFCURVE",
"32 208 QCURVE SMOOTH",
"32 486 LINE SMOOTH",
"32 537 OFFCURVE",
"70 626 OFFCURVE",
"136 692 OFFCURVE",
"224 730 OFFCURVE",
"275 730 QCURVE SMOOTH",
"484 730 LINE SMOOTH",
"545 730 OFFCURVE",
"648 675 OFFCURVE",
"681 628 QCURVE",
"743 567 LINE SMOOTH",
"776 534 OFFCURVE",
"814 447 OFFCURVE",
"814 396 QCURVE SMOOTH",
"814 364 OFFCURVE",
"815 300 OFFCURVE",
"815 268 QCURVE SMOOTH",
"815 142 LINE SMOOTH",
"815 103 OFFCURVE",
"793 22 OFFCURVE",
"760 -29 QCURVE",
"802 -122 LINE",
"663 -122 LINE",
"649 -108 LINE",
"602 -122 OFFCURVE",
"574 -122 QCURVE SMOOTH",
"365 -122 LINE SMOOTH",
"314 -122 OFFCURVE",
"227 -84 OFFCURVE",
"195 -52 QCURVE SMOOTH"
);
},
{
nodes = (
"623 472 OFFCURVE",
"623 419 OFFCURVE",
"623 353 OFFCURVE",
"623 282 OFFCURVE",
"621 220 OFFCURVE",
"618 172 OFFCURVE",
"615 162 QCURVE",
"650 83 LINE",
"676 118 OFFCURVE",
"693 190 OFFCURVE",
"693 232 QCURVE SMOOTH",
"693 295 OFFCURVE",
"692 422 OFFCURVE",
"692 486 QCURVE SMOOTH",
"692 529 OFFCURVE",
"659 605 OFFCURVE",
"603 662 OFFCURVE",
"527 695 OFFCURVE",
"484 695 QCURVE SMOOTH",
"275 695 LINE SMOOTH",
"232 695 OFFCURVE",
"156 662 OFFCURVE",
"100 605 OFFCURVE",
"67 529 OFFCURVE",
"67 486 QCURVE SMOOTH",
"67 208 LINE SMOOTH",
"67 165 OFFCURVE",
"100 89 OFFCURVE",
"156 33 OFFCURVE",
"232 0 OFFCURVE",
"275 0 QCURVE SMOOTH",
"484 0 LINE SMOOTH",
"523 0 OFFCURVE",
"560 14 QCURVE",
"531 78 LINE",
"508 69 OFFCURVE",
"484 69 QCURVE",
"484 625 LINE",
"513 625 OFFCURVE",
"564 603 OFFCURVE",
"601 566 OFFCURVE",
"623 515 OFFCURVE",
"623 486 QCURVE SMOOTH"
);
},
{
nodes = (
"663 0 LINE",
"595 150 LINE",
"526 150 LINE",
"543 112 OFFCURVE",
"576 37 OFFCURVE",
"593 0 QCURVE"
);
}
);
width = 848;
}
);
unicode = 0071;
},
{
glyphname = r;
layers = (
{
layerId = "36A2F76C-EA0C-4AFB-832E-E1AC112461C1";
paths = (
{
nodes = (
"43 -35 LINE",
"37 -35 LINE",
"37 730 LINE",
"489 730 LINE SMOOTH",
"543 730 OFFCURVE",
"633 681 OFFCURVE",
"661 639 QCURVE",
"724 577 LINE SMOOTH",
"753 549 OFFCURVE",
"785 474 OFFCURVE",
"785 430 QCURVE SMOOTH",
"785 364 OFFCURVE",
"738 280 OFFCURVE",
"685 253 QCURVE",
"704 209 OFFCURVE",
"748 113 OFFCURVE",
"793 15 OFFCURVE",
"836 -80 OFFCURVE",
"855 -122 QCURVE",
"715 -122 LINE",
"628 -35 LINE",
"623 -35 LINE",
"611 -8 LINE",
"611 -122 LINE",
"130 -122 LINE"
);
},
{
nodes = (
"593 477 OFFCURVE",
"533 417 OFFCURVE",
"489 417 QCURVE",
"489 625 LINE",
"533 625 OFFCURVE",
"593 565 OFFCURVE",
"593 521 QCURVE SMOOTH"
);
},
{
nodes = (
"612 383 OFFCURVE",
"663 457 OFFCURVE",
"663 520 QCURVE SMOOTH",
"663 556 OFFCURVE",
"636 620 OFFCURVE",
"589 668 OFFCURVE",
"525 695 OFFCURVE",
"489 695 QCURVE SMOOTH",
"72 695 LINE",
"72 0 LINE",
"489 0 LINE",
"489 347 LINE",
"645 0 LINE",
"715 0 LINE",
"632 180 OFFCURVE",
"553 360 QCURVE"
);
}
);
width = 812;
}
);
unicode = 0072;
},
{
glyphname = s;
layers = (
{
layerId = "36A2F76C-EA0C-4AFB-832E-E1AC112461C1";
paths = (
{
nodes = (
"683 351 LINE",
"739 295 LINE",
"747 288 LINE",
"779 256 OFFCURVE",
"816 170 OFFCURVE",
"816 121 QCURVE SMOOTH",
"816 72 OFFCURVE",
"779 -16 OFFCURVE",
"714 -83 OFFCURVE",
"626 -122 OFFCURVE",
"576 -122 QCURVE SMOOTH",
"367 -122 LINE SMOOTH",
"316 -122 OFFCURVE",
"229 -84 OFFCURVE",
"197 -52 QCURVE SMOOTH",
"134 10 LINE",
"88 43 OFFCURVE",
"34 146 OFFCURVE",
"34 208 QCURVE SMOOTH",
"34 313 LINE",
"159 313 LINE",
"121 350 LINE",
"81 379 OFFCURVE",
"34 467 OFFCURVE",
"34 521 QCURVE SMOOTH",
"34 564 OFFCURVE",
"67 641 OFFCURVE",
"123 697 OFFCURVE",
"199 730 OFFCURVE",
"243 730 QCURVE SMOOTH",
"486 730 LINE SMOOTH",
"541 730 OFFCURVE",
"636 679 OFFCURVE",
"669 634 QCURVE",
"735 569 LINE SMOOTH",
"773 531 OFFCURVE",
"817 425 OFFCURVE",
"817 364 QCURVE",
"683 364 LINE"
);
},
{
nodes = (
"486 0 LINE SMOOTH",
"529 0 OFFCURVE",
"605 34 OFFCURVE",
"662 92 OFFCURVE",
"694 168 OFFCURVE",
"694 211 QCURVE SMOOTH",
"694 254 OFFCURVE",
"661 329 OFFCURVE",
"604 385 OFFCURVE",
"529 417 OFFCURVE",
"486 417 QCURVE",
"486 625 LINE",
"515 625 OFFCURVE",
"566 603 OFFCURVE",
"603 566 OFFCURVE",
"625 515 OFFCURVE",
"625 486 QCURVE",
"695 486 LINE",
"695 529 OFFCURVE",
"662 605 OFFCURVE",
"605 662 OFFCURVE",
"529 695 OFFCURVE",
"486 695 QCURVE SMOOTH",
"243 695 LINE SMOOTH",
"207 695 OFFCURVE",
"144 668 OFFCURVE",
"96 620 OFFCURVE",
"69 557 OFFCURVE",
"69 521 QCURVE SMOOTH",
"69 485 OFFCURVE",
"96 422 OFFCURVE",
"144 374 OFFCURVE",
"207 347 OFFCURVE",
"243 347 QCURVE SMOOTH",
"486 347 LINE SMOOTH",
"515 347 OFFCURVE",
"566 325 OFFCURVE",
"603 288 OFFCURVE",
"625 237 OFFCURVE",
"625 208 QCURVE SMOOTH",
"625 179 OFFCURVE",
"603 128 OFFCURVE",
"566 91 OFFCURVE",
"515 69 OFFCURVE",
"486 69 QCURVE",
"486 278 LINE",
"69 278 LINE",
"69 208 LINE SMOOTH",
"69 165 OFFCURVE",
"102 89 OFFCURVE",
"158 33 OFFCURVE",
"234 0 OFFCURVE",
"277 0 QCURVE SMOOTH"
);
}
);
width = 838;
}
);
unicode = 0073;
},
{
glyphname = t;
layers = (
{
layerId = "36A2F76C-EA0C-4AFB-832E-E1AC112461C1";
paths = (
{
nodes = (
"778 724 LINE",
"865 637 LINE",
"865 503 LINE",
"725 503 LINE",
"725 -122 LINE",
"247 -122 LINE",
"160 -35 LINE",
"154 -35 LINE",
"153 503 LINE",
"106 503 LINE",
"19 590 LINE",
"13 590 LINE",
"13 730 LINE",
"778 730 LINE"
);
},
{
nodes = (
"743 695 LINE",
"48 695 LINE",
"48 625 LINE",
"188 625 LINE",
"189 0 LINE",
"603 0 LINE",
"603 625 LINE",
"743 625 LINE"
);
}
);
width = 877;
}
);
unicode = 0074;
},
{
glyphname = u;
layers = (
{
layerId = "36A2F76C-EA0C-4AFB-832E-E1AC112461C1";
paths = (
{
nodes = (
"135 10 LINE",
"89 43 OFFCURVE",
"34 146 OFFCURVE",
"34 208 QCURVE SMOOTH",
"34 730 LINE",
"521 730 LINE",
"521 724 LINE",
"590 655 LINE",
"590 730 LINE",
"730 730 LINE",
"730 724 LINE",
"817 637 LINE",
"817 411 LINE SMOOTH",
"817 362 OFFCURVE",
"818 266 OFFCURVE",
"818 218 QCURVE SMOOTH",
"818 191 LINE SMOOTH",
"818 171 OFFCURVE",
"818 130 OFFCURVE",
"817 110 QCURVE SMOOTH",
"815 62 OFFCURVE",
"776 -23 OFFCURVE",
"711 -86 OFFCURVE",
"625 -122 OFFCURVE",
"576 -122 QCURVE SMOOTH",
"368 -122 LINE SMOOTH",
"317 -122 OFFCURVE",
"230 -84 OFFCURVE",
"197 -51 QCURVE SMOOTH"
);
},
{
nodes = (
"696 405 OFFCURVE",
"695 598 OFFCURVE",
"695 695 QCURVE",
"625 695 LINE",
"625 255 LINE SMOOTH",
"625 220 OFFCURVE",
"621 159 OFFCURVE",
"600 128 QCURVE SMOOTH",
"578 96 OFFCURVE",
"524 69 OFFCURVE",
"486 69 QCURVE",
"486 695 LINE",
"69 695 LINE",
"69 208 LINE SMOOTH",
"69 165 OFFCURVE",
"102 89 OFFCURVE",
"159 33 OFFCURVE",
"235 0 OFFCURVE",
"278 0 QCURVE SMOOTH",
"486 0 LINE SMOOTH",
"528 0 OFFCURVE",
"603 31 OFFCURVE",
"659 86 OFFCURVE",
"693 159 OFFCURVE",
"695 201 QCURVE SMOOTH",
"697 228 OFFCURVE",
"696 281 OFFCURVE",
"696 308 QCURVE SMOOTH"
);
}
);
width = 855;
}
);
unicode = 0075;
},
{
glyphname = v;
layers = (
{
layerId = "36A2F76C-EA0C-4AFB-832E-E1AC112461C1";
paths = (
{
nodes = (
"777 724 LINE",
"865 637 LINE",
"523 -122 LINE",
"414 -122 LINE",
"327 -35 LINE",
"322 -35 LINE",
"-23 730 LINE",
"471 730 LINE",
"475 721 LINE",
"559 637 LINE",
"575 601 LINE",
"633 730 LINE",
"780 730 LINE"
);
},
{
nodes = (
"726 695 LINE",
"656 695 LINE",
"552 463 LINE",
"448 695 LINE",
"31 695 LINE",
"344 0 LINE",
"413 0 LINE"
);
}
);
width = 838;
}
);
unicode = 0076;
},
{
glyphname = w;
layers = (
{
layerId = "36A2F76C-EA0C-4AFB-832E-E1AC112461C1";
paths = (
{
nodes = (
"1271 724 LINE",
"1359 637 LINE",
"1018 -122 LINE",
"907 -122 LINE",
"820 -35 LINE",
"815 -35 LINE",
"675 275 LINE",
"496 -122 LINE",
"387 -122 LINE",
"300 -35 LINE",
"295 -35 LINE",
"-50 730 LINE",
"444 730 LINE",
"448 721 LINE",
"532 637 LINE",
"548 601 LINE",
"606 730 LINE",
"964 730 LINE",
"968 721 LINE",
"1052 637 LINE",
"1069 599 LINE",
"1083 632 OFFCURVE",
"1114 697 OFFCURVE",
"1128 730 QCURVE",
"1274 730 LINE"
);
},
{
nodes = (
"1220 695 LINE",
"1151 695 LINE",
"1047 463 LINE",
"942 695 LINE",
"629 695 LINE",
"525 463 LINE",
"421 695 LINE",
"4 695 LINE",
"317 0 LINE",
"386 0 LINE",
"612 502 LINE",
"838 0 LINE",
"908 0 LINE"
);
}
);
width = 1331;
}
);
unicode = 0077;
},
{
glyphname = x;
layers = (
{
layerId = "36A2F76C-EA0C-4AFB-832E-E1AC112461C1";
paths = (
{
nodes = (
"775 725 LINE",
"863 637 LINE",
"682 118 LINE",
"887 -122 LINE",
"699 -122 LINE",
"623 -46 LINE",
"615 -66 OFFCURVE",
"602 -105 OFFCURVE",
"597 -122 QCURVE",
"113 -122 LINE",
"26 -35 LINE",
"19 -35 LINE",
"201 485 LINE",
"-7 730 LINE",
"187 730 LINE",
"210 702 LINE",
"260 652 LINE",
"287 730 LINE",
"777 730 LINE"
);
},
{
nodes = (
"728 695 LINE",
"311 695 LINE",
"271 579 LINE",
"172 695 LINE",
"68 695 LINE",
"240 492 LINE",
"68 0 LINE",
"485 0 LINE",
"526 115 LINE",
"624 0 LINE",
"728 0 LINE",
"556 202 LINE"
);
}
);
width = 892;
}
);
unicode = 0078;
},
{
glyphname = y;
layers = (
{
layerId = "36A2F76C-EA0C-4AFB-832E-E1AC112461C1";
paths = (
{
nodes = (
"10 -35 LINE",
"3 -35 LINE",
"185 486 LINE",
"-23 731 LINE",
"171 731 LINE",
"192 705 LINE",
"243 653 LINE",
"271 731 LINE",
"761 731 LINE",
"759 726 LINE",
"847 638 LINE",
"582 -122 LINE",
"97 -122 LINE"
);
},
{
nodes = (
"255 580 LINE",
"156 696 LINE",
"52 696 LINE",
"224 493 LINE",
"52 0 LINE",
"469 0 LINE",
"712 696 LINE",
"295 696 LINE"
);
}
);
width = 856;
}
);
unicode = 0079;
},
{
glyphname = z;
layers = (
{
layerId = "36A2F76C-EA0C-4AFB-832E-E1AC112461C1";
paths = (
{
nodes = (
"27 591 LINE",
"21 591 LINE",
"21 730 LINE",
"786 730 LINE",
"786 724 LINE",
"873 637 LINE",
"873 528 LINE",
"661 105 LINE",
"786 105 LINE",
"786 99 LINE",
"873 12 LINE",
"873 -122 LINE",
"114 -122 LINE",
"27 -35 LINE",
"21 -35 LINE",
"21 79 LINE",
"233 504 LINE",
"114 504 LINE"
);
},
{
nodes = (
"751 626 LINE",
"751 695 LINE",
"56 695 LINE",
"56 626 LINE",
"334 626 LINE",
"56 70 LINE",
"56 0 LINE",
"751 0 LINE",
"751 70 LINE",
"473 70 LINE"
);
}
);
width = 906;
}
);
unicode = 007A;
},
{
glyphname = at;
layers = (
{
layerId = "36A2F76C-EA0C-4AFB-832E-E1AC112461C1";
paths = (
{
nodes = (
"785 415 LINE",
"781 422 OFFCURVE",
"773 434 OFFCURVE",
"768 441 QCURVE",
"750 452 LINE",
"752 450 OFFCURVE",
"754 446 QCURVE"
);
},
{
nodes = (
"391 45 LINE",
"446 46 LINE",
"446 155 LINE",
"422 152 OFFCURVE",
"391 116 OFFCURVE",
"391 93 QCURVE SMOOTH"
);
},
{
nodes = (
"58 421 LINE",
"96 508 OFFCURVE",
"158 567 QCURVE",
"190 600 OFFCURVE",
"265 649 OFFCURVE",
"306 668 QCURVE",
"395 705 OFFCURVE",
"487 705 QCURVE SMOOTH",
"579 705 OFFCURVE",
"668 668 QCURVE",
"755 629 OFFCURVE",
"816 568 QCURVE SMOOTH",
"825 558 OFFCURVE",
"843 540 OFFCURVE",
"851 529 QCURVE",
"904 476 LINE SMOOTH",
"964 416 OFFCURVE",
"1003 329 QCURVE",
"1040 240 OFFCURVE",
"1040 149 QCURVE SMOOTH",
"1040 57 OFFCURVE",
"1003 -32 QCURVE SMOOTH",
"992 -58 OFFCURVE",
"959 -111 OFFCURVE",
"939 -137 QCURVE",
"947 -145 LINE",
"886 -196 OFFCURVE",
"790 -263 OFFCURVE",
"757 -278 QCURVE",
"670 -314 OFFCURVE",
"577 -314 QCURVE SMOOTH",
"484 -314 OFFCURVE",
"397 -278 QCURVE SMOOTH",
"358 -261 OFFCURVE",
"287 -214 OFFCURVE",
"255 -182 QCURVE SMOOTH",
"250 -177 LINE",
"250 -178 LINE",
"200 -128 LINE",
"189 -119 OFFCURVE",
"168 -101 OFFCURVE",
"158 -90 QCURVE SMOOTH",
"93 -25 OFFCURVE",
"57 57 QCURVE",
"21 144 OFFCURVE",
"21 239 QCURVE SMOOTH",
"21 333 OFFCURVE",
"57 420 QCURVE"
);
},
{
nodes = (
"481 278 LINE",
"481 11 LINE",
"364 10 LINE",
"314 10 OFFCURVE",
"269 75 OFFCURVE",
"269 120 QCURVE SMOOTH",
"269 183 LINE SMOOTH",
"269 202 OFFCURVE",
"284 237 OFFCURVE",
"309 263 OFFCURVE",
"344 278 OFFCURVE",
"364 278 QCURVE SMOOTH"
);
},
{
nodes = (
"56 325 OFFCURVE",
"56 239 QCURVE SMOOTH",
"56 154 OFFCURVE",
"90 71 QCURVE",
"124 -7 OFFCURVE",
"183 -65 QCURVE SMOOTH",
"212 -95 OFFCURVE",
"282 -141 OFFCURVE",
"320 -158 QCURVE",
"402 -192 OFFCURVE",
"487 -192 QCURVE SMOOTH",
"573 -192 OFFCURVE",
"655 -158 QCURVE",
"716 -131 OFFCURVE",
"768 -87 QCURVE",
"685 -87 LINE",
"641 -113 OFFCURVE",
"542 -143 OFFCURVE",
"487 -143 QCURVE SMOOTH",
"408 -143 OFFCURVE",
"269 -83 OFFCURVE",
"165 21 OFFCURVE",
"105 160 OFFCURVE",
"105 239 QCURVE SMOOTH",
"105 318 OFFCURVE",
"165 457 OFFCURVE",
"269 561 OFFCURVE",
"408 621 OFFCURVE",
"487 621 QCURVE SMOOTH",
"566 621 OFFCURVE",
"705 561 OFFCURVE",
"809 457 OFFCURVE",
"869 318 OFFCURVE",
"869 239 QCURVE SMOOTH",
"869 174 OFFCURVE",
"828 58 OFFCURVE",
"792 10 QCURVE",
"751 11 LINE",
"751 183 LINE",
"751 188 LINE",
"751 345 LINE SMOOTH",
"751 374 OFFCURVE",
"729 426 OFFCURVE",
"691 465 OFFCURVE",
"639 487 OFFCURVE",
"610 487 QCURVE SMOOTH",
"223 487 LINE",
"224 439 LINE",
"478 439 LINE",
"478 326 LINE",
"373 325 LINE",
"335 325 OFFCURVE",
"283 303 OFFCURVE",
"264 283 QCURVE SMOOTH",
"245 264 OFFCURVE",
"222 212 OFFCURVE",
"222 183 QCURVE SMOOTH",
"222 99 LINE SMOOTH",
"222 71 OFFCURVE",
"246 21 OFFCURVE",
"285 -16 OFFCURVE",
"336 -37 OFFCURVE",
"364 -37 QCURVE SMOOTH",
"591 -37 LINE",
"817 -36 LINE",
"837 -11 OFFCURVE",
"871 42 OFFCURVE",
"884 71 QCURVE",
"918 154 OFFCURVE",
"918 239 QCURVE SMOOTH",
"918 325 OFFCURVE",
"884 407 QCURVE",
"850 485 OFFCURVE",
"791 543 QCURVE SMOOTH",
"733 602 OFFCURVE",
"655 636 QCURVE",
"573 670 OFFCURVE",
"487 670 QCURVE SMOOTH",
"402 670 OFFCURVE",
"320 636 QCURVE",
"282 619 OFFCURVE",
"212 573 OFFCURVE",
"183 543 QCURVE SMOOTH",
"124 485 OFFCURVE",
"90 407 QCURVE"
);
}
);
width = 1076;
}
);
unicode = 0040;
},
{
glyphname = grave;
layers = (
{
layerId = "36A2F76C-EA0C-4AFB-832E-E1AC112461C1";
paths = (
{
nodes = (
"238 988 LINE",
"432 1081 LINE",
"435 1071 LINE",
"520 987 LINE",
"604 754 LINE",
"464 699 LINE",
"376 786 LINE",
"373 785 LINE"
);
},
{
nodes = (
"387 829 LINE",
"473 863 LINE",
"412 1033 LINE",
"290 974 LINE"
);
}
);
width = 765;
}
);
unicode = 0060;
},
{
glyphname = exclam;
layers = (
{
layerId = "36A2F76C-EA0C-4AFB-832E-E1AC112461C1";
paths = (
{
nodes = (
"384 730 LINE",
"384 724 LINE",
"471 637 LINE",
"471 -122 LINE",
"98 -122 LINE",
"11 -35 LINE",
"5 -35 LINE",
"5 730 LINE"
);
},
{
nodes = (
"40 695 LINE",
"40 147 LINE",
"349 147 LINE",
"349 695 LINE"
);
},
{
nodes = (
"40 91 LINE",
"40 0 LINE",
"349 0 LINE",
"349 91 LINE"
);
}
);
width = 390;
}
);
unicode = 0021;
},
{
glyphname = quotedbl;
layers = (
{
layerId = "36A2F76C-EA0C-4AFB-832E-E1AC112461C1";
paths = (
{
nodes = (
"526 730 LINE",
"614 642 LINE",
"555 286 LINE",
"370 286 LINE",
"329 326 LINE",
"323 286 LINE",
"138 286 LINE",
"51 373 LINE",
"45 373 LINE",
"14 735 LINE",
"527 735 LINE"
);
},
{
nodes = (
"486 700 LINE",
"284 700 LINE",
"310 408 LINE",
"437 408 LINE"
);
},
{
nodes = (
"254 700 LINE",
"52 700 LINE",
"78 408 LINE",
"205 408 LINE"
);
}
);
width = 635;
}
);
unicode = 0022;
},
{
glyphname = numbersign;
layers = (
{
layerId = "36A2F76C-EA0C-4AFB-832E-E1AC112461C1";
paths = (
{
nodes = (
"123 44 LINE",
"102 44 LINE",
"15 131 LINE",
"8 131 LINE",
"41 293 LINE",
"66 293 LINE",
"52 307 LINE",
"45 307 LINE",
"79 469 LINE",
"213 469 LINE",
"244 615 LINE",
"550 615 LINE",
"549 609 LINE",
"636 522 LINE",
"624 469 LINE",
"631 469 LINE",
"630 463 LINE",
"717 376 LINE",
"684 220 LINE",
"659 220 LINE",
"679 200 LINE",
"647 44 LINE",
"535 44 LINE",
"507 -89 LINE",
"208 -89 LINE",
"121 -2 LINE",
"114 -2 LINE"
);
},
{
nodes = (
"157 33 LINE",
"249 33 LINE",
"277 166 LINE",
"327 166 LINE",
"299 33 LINE",
"391 33 LINE",
"419 166 LINE",
"531 166 LINE",
"550 258 LINE",
"438 258 LINE",
"456 342 LINE",
"568 342 LINE",
"588 434 LINE",
"476 434 LINE",
"507 580 LINE",
"415 580 LINE",
"384 434 LINE",
"334 434 LINE",
"365 580 LINE",
"273 580 LINE",
"242 434 LINE",
"108 434 LINE",
"88 342 LINE",
"222 342 LINE",
"204 258 LINE",
"70 258 LINE",
"51 166 LINE",
"185 166 LINE"
);
},
{
nodes = (
"314 342 LINE",
"364 342 LINE",
"346 258 LINE",
"296 258 LINE"
);
}
);
width = 728;
}
);
unicode = 0023;
},
{
glyphname = dollar;
layers = (
{
layerId = "36A2F76C-EA0C-4AFB-832E-E1AC112461C1";
paths = (
{
nodes = (
"130 74 LINE",
"85 106 OFFCURVE",
"30 218 OFFCURVE",
"30 287 QCURVE",
"144 287 LINE",
"112 318 LINE",
"75 344 OFFCURVE",
"31 424 OFFCURVE",
"31 474 QCURVE SMOOTH",
"31 511 OFFCURVE",
"59 580 OFFCURVE",
"108 633 OFFCURVE",
"174 666 OFFCURVE",
"212 668 QCURVE",
"212 730 LINE",
"474 730 LINE",
"474 724 LINE",
"546 651 LINE",
"566 640 OFFCURVE",
"601 608 OFFCURVE",
"615 588 QCURVE",
"680 524 LINE SMOOTH",
"712 492 OFFCURVE",
"751 396 OFFCURVE",
"751 340 QCURVE",
"636 340 LINE",
"696 280 LINE SMOOTH",
"722 254 OFFCURVE",
"751 188 OFFCURVE",
"751 150 QCURVE SMOOTH",
"751 111 OFFCURVE",
"721 41 OFFCURVE",
"670 -11 OFFCURVE",
"601 -42 OFFCURVE",
"561 -42 QCURVE",
"561 -122 LINE",
"305 -122 LINE",
"218 -35 LINE",
"212 -35 LINE",
"212 -5 LINE",
"200 3 OFFCURVE",
"194 11 QCURVE"
);
},
{
nodes = (
"439 317 LINE",
"442 317 LINE",
"467 316 OFFCURVE",
"501 314 OFFCURVE",
"504 313 QCURVE",
"503 314 LINE",
"526 304 OFFCURVE",
"553 264 OFFCURVE",
"553 238 QCURVE SMOOTH",
"553 211 OFFCURVE",
"526 171 OFFCURVE",
"503 162 QCURVE SMOOTH",
"501 161 OFFCURVE",
"473 159 OFFCURVE",
"452 159 QCURVE",
"448 158 OFFCURVE",
"439 158 QCURVE"
);
},
{
nodes = (
"326 157 LINE",
"326 318 LINE",
"360 318 LINE",
"360 157 LINE",
"357 157 LINE"
);
},
{
nodes = (
"192 400 LINE",
"170 410 OFFCURVE",
"142 450 OFFCURVE",
"142 476 QCURVE SMOOTH",
"142 502 OFFCURVE",
"170 543 OFFCURVE",
"192 552 QCURVE",
"199 556 OFFCURVE",
"247 557 QCURVE",
"247 396 LINE",
"197 398 OFFCURVE",
"191 401 QCURVE"
);
},
{
nodes = (
"360 394 LINE",
"332 394 LINE",
"326 394 LINE",
"326 559 LINE",
"340 559 LINE SMOOTH",
"345 559 OFFCURVE",
"355 559 OFFCURVE",
"360 558 QCURVE"
);
},
{
nodes = (
"471 80 LINE SMOOTH",
"504 80 OFFCURVE",
"562 106 OFFCURVE",
"604 149 OFFCURVE",
"629 207 OFFCURVE",
"629 240 QCURVE SMOOTH",
"629 288 OFFCURVE",
"575 365 OFFCURVE",
"532 383 QCURVE SMOOTH",
"526 386 OFFCURVE",
"487 390 OFFCURVE",
"460 392 QCURVE",
"439 392 LINE",
"439 555 LINE",
"446 555 LINE",
"469 554 OFFCURVE",
"501 552 OFFCURVE",
"504 551 QCURVE",
"503 552 LINE",
"526 542 OFFCURVE",
"553 494 OFFCURVE",
"553 462 QCURVE",
"629 462 LINE",
"629 498 OFFCURVE",
"604 560 OFFCURVE",
"562 607 OFFCURVE",
"504 634 OFFCURVE",
"471 634 QCURVE SMOOTH",
"439 634 LINE",
"439 695 LINE",
"360 695 LINE",
"360 634 LINE",
"326 634 LINE",
"326 695 LINE",
"247 695 LINE",
"247 634 LINE",
"224 634 LINE SMOOTH",
"191 634 OFFCURVE",
"133 608 OFFCURVE",
"91 564 OFFCURVE",
"66 506 OFFCURVE",
"66 474 QCURVE SMOOTH",
"66 425 OFFCURVE",
"120 349 OFFCURVE",
"163 330 QCURVE",
"177 323 OFFCURVE",
"247 320 QCURVE",
"247 159 LINE",
"232 159 LINE",
"197 161 OFFCURVE",
"191 163 QCURVE",
"192 162 LINE",
"170 172 OFFCURVE",
"142 219 OFFCURVE",
"142 252 QCURVE",
"65 252 LINE",
"65 216 OFFCURVE",
"90 154 OFFCURVE",
"134 107 OFFCURVE",
"191 80 OFFCURVE",
"224 80 QCURVE SMOOTH",
"247 80 LINE",
"247 0 LINE",
"326 0 LINE",
"326 80 LINE",
"360 80 LINE",
"360 0 LINE",
"439 0 LINE",
"439 80 LINE"
);
}
);
width = 784;
}
);
unicode = 0024;
},
{
glyphname = percent;
layers = (
{
layerId = "36A2F76C-EA0C-4AFB-832E-E1AC112461C1";
paths = (
{
nodes = (
"615 730 LINE",
"612 724 LINE",
"700 637 LINE",
"582 384 LINE",
"631 384 LINE SMOOTH",
"663 384 OFFCURVE",
"717 353 OFFCURVE",
"734 327 QCURVE",
"805 256 LINE SMOOTH",
"840 221 OFFCURVE",
"840 171 QCURVE SMOOTH",
"840 -6 LINE SMOOTH",
"840 -30 OFFCURVE",
"820 -72 OFFCURVE",
"786 -104 OFFCURVE",
"743 -122 OFFCURVE",
"721 -122 QCURVE SMOOTH",
"605 -122 LINE SMOOTH",
"580 -122 OFFCURVE",
"537 -103 OFFCURVE",
"521 -87 QCURVE SMOOTH",
"451 -17 LINE",
"430 -4 OFFCURVE",
"414 18 QCURVE",
"349 -122 LINE",
"221 -122 LINE",
"134 -35 LINE",
"126 -35 LINE",
"248 229 LINE",
"231 229 LINE SMOOTH",
"206 229 OFFCURVE",
"163 248 OFFCURVE",
"147 264 QCURVE SMOOTH",
"77 333 LINE",
"51 350 OFFCURVE",
"19 404 OFFCURVE",
"19 439 QCURVE SMOOTH",
"19 612 LINE SMOOTH",
"19 637 OFFCURVE",
"38 682 OFFCURVE",
"71 715 OFFCURVE",
"115 735 OFFCURVE",
"141 735 QCURVE SMOOTH",
"257 735 LINE SMOOTH",
"289 735 OFFCURVE",
"343 704 OFFCURVE",
"360 678 QCURVE",
"425 612 LINE",
"480 730 LINE"
);
},
{
nodes = (
"605 307 LINE",
"641 307 OFFCURVE",
"648 303 QCURVE SMOOTH",
"653 301 OFFCURVE",
"659 296 OFFCURVE",
"663 293 QCURVE SMOOTH",
"677 281 OFFCURVE",
"677 261 QCURVE SMOOTH",
"677 96 LINE SMOOTH",
"677 73 OFFCURVE",
"665 57 QCURVE SMOOTH",
"661 52 OFFCURVE",
"651 46 QCURVE SMOOTH",
"649 45 OFFCURVE",
"625 43 OFFCURVE",
"605 42 QCURVE"
);
},
{
nodes = (
"718 261 LINE SMOOTH",
"718 297 OFFCURVE",
"667 349 OFFCURVE",
"631 349 QCURVE SMOOTH",
"515 349 LINE SMOOTH",
"479 349 OFFCURVE",
"428 297 OFFCURVE",
"428 261 QCURVE SMOOTH",
"428 88 LINE SMOOTH",
"428 51 OFFCURVE",
"479 0 OFFCURVE",
"515 0 QCURVE SMOOTH",
"631 0 LINE SMOOTH",
"647 0 OFFCURVE",
"679 13 OFFCURVE",
"703 36 OFFCURVE",
"718 67 OFFCURVE",
"718 84 QCURVE SMOOTH"
);
},
{
nodes = (
"231 658 LINE",
"267 658 OFFCURVE",
"274 654 QCURVE SMOOTH",
"279 652 OFFCURVE",
"285 647 OFFCURVE",
"289 644 QCURVE SMOOTH",
"303 632 OFFCURVE",
"303 612 QCURVE SMOOTH",
"303 447 LINE SMOOTH",
"303 424 OFFCURVE",
"291 408 QCURVE SMOOTH",
"287 403 OFFCURVE",
"277 397 QCURVE SMOOTH",
"275 396 OFFCURVE",
"251 394 OFFCURVE",
"231 393 QCURVE"
);
},
{
nodes = (
"502 695 LINE",
"181 0 LINE",
"239 0 LINE",
"560 695 LINE"
);
},
{
nodes = (
"344 612 LINE SMOOTH",
"344 648 OFFCURVE",
"293 700 OFFCURVE",
"257 700 QCURVE SMOOTH",
"141 700 LINE SMOOTH",
"105 700 OFFCURVE",
"54 648 OFFCURVE",
"54 612 QCURVE SMOOTH",
"54 439 LINE SMOOTH",
"54 402 OFFCURVE",
"105 351 OFFCURVE",
"141 351 QCURVE SMOOTH",
"257 351 LINE SMOOTH",
"273 351 OFFCURVE",
"305 364 OFFCURVE",
"329 387 OFFCURVE",
"344 418 OFFCURVE",
"344 435 QCURVE SMOOTH"
);
}
);
width = 862;
}
);
unicode = 0025;
},
{
glyphname = ampersand;
layers = (
{
layerId = "36A2F76C-EA0C-4AFB-832E-E1AC112461C1";
paths = (
{
nodes = (
"104 10 LINE",
"57 44 OFFCURVE",
"3 149 OFFCURVE",
"3 212 QCURVE SMOOTH",
"3 267 OFFCURVE",
"46 356 OFFCURVE",
"84 389 QCURVE",
"38 444 OFFCURVE",
"38 519 QCURVE SMOOTH",
"38 564 OFFCURVE",
"70 641 OFFCURVE",
"127 698 OFFCURVE",
"203 730 OFFCURVE",
"248 730 QCURVE SMOOTH",
"493 730 LINE SMOOTH",
"547 730 OFFCURVE",
"633 683 OFFCURVE",
"661 645 QCURVE",
"728 578 LINE SMOOTH",
"757 549 OFFCURVE",
"773 511 QCURVE",
"772 512 LINE",
"780 494 OFFCURVE",
"788 440 OFFCURVE",
"790 403 QCURVE",
"790 399 LINE",
"828 361 LINE",
"828 224 LINE",
"788 224 LINE",
"787 176 OFFCURVE",
"788 126 OFFCURVE",
"788 121 QCURVE SMOOTH",
"788 70 OFFCURVE",
"751 -18 OFFCURVE",
"686 -84 OFFCURVE",
"597 -122 OFFCURVE",
"546 -122 QCURVE SMOOTH",
"338 -122 LINE SMOOTH",
"287 -122 OFFCURVE",
"199 -84 OFFCURVE",
"167 -52 QCURVE SMOOTH"
);
},
{
nodes = (
"597 209 LINE SMOOTH",
"597 180 OFFCURVE",
"575 129 OFFCURVE",
"538 92 OFFCURVE",
"485 70 OFFCURVE",
"456 70 QCURVE",
"456 346 LINE",
"597 346 LINE"
);
},
{
nodes = (
"597 418 LINE",
"456 417 LINE",
"456 627 LINE",
"493 626 LINE",
"538 626 OFFCURVE",
"567 596 QCURVE",
"596 568 OFFCURVE",
"597 525 QCURVE",
"667 525 LINE",
"666 559 OFFCURVE",
"653 589 QCURVE SMOOTH",
"640 621 OFFCURVE",
"593 668 OFFCURVE",
"530 695 OFFCURVE",
"493 695 QCURVE SMOOTH",
"248 695 LINE SMOOTH",
"211 695 OFFCURVE",
"147 668 OFFCURVE",
"100 620 OFFCURVE",
"73 556 OFFCURVE",
"73 519 QCURVE SMOOTH",
"73 480 OFFCURVE",
"107 411 OFFCURVE",
"138 386 QCURVE",
"90 357 OFFCURVE",
"38 269 OFFCURVE",
"38 212 QCURVE SMOOTH",
"38 168 OFFCURVE",
"70 91 OFFCURVE",
"127 33 OFFCURVE",
"203 0 OFFCURVE",
"248 0 QCURVE SMOOTH",
"456 0 LINE SMOOTH",
"500 0 OFFCURVE",
"578 33 OFFCURVE",
"634 90 OFFCURVE",
"666 167 OFFCURVE",
"666 211 QCURVE SMOOTH",
"666 221 OFFCURVE",
"667 346 QCURVE",
"706 346 LINE",
"706 419 LINE",
"685 419 OFFCURVE",
"667 418 QCURVE",
"668 438 OFFCURVE",
"668 461 QCURVE",
"597 461 LINE"
);
}
);
width = 852;
}
);
unicode = 0026;
},
{
glyphname = quotesingle;
layers = (
{
layerId = "36A2F76C-EA0C-4AFB-832E-E1AC112461C1";
paths = (
{
nodes = (
"289 730 LINE",
"377 642 LINE",
"318 286 LINE",
"133 286 LINE",
"46 373 LINE",
"40 373 LINE",
"9 735 LINE",
"290 735 LINE"
);
},
{
nodes = (
"249 700 LINE",
"47 700 LINE",
"73 408 LINE",
"200 408 LINE"
);
}
);
width = 392;
}
);
unicode = 0027;
},
{
glyphname = parenleft;
layers = (
{
layerId = "36A2F76C-EA0C-4AFB-832E-E1AC112461C1";
paths = (
{
nodes = (
"493 21 LINE",
"529 21 LINE",
"529 15 LINE",
"616 -72 LINE",
"616 -205 LINE",
"362 -205 LINE SMOOTH",
"313 -205 OFFCURVE",
"268 -185 QCURVE",
"269 -186 LINE",
"226 -168 OFFCURVE",
"192 -134 QCURVE SMOOTH",
"130 -72 LINE",
"84 -40 OFFCURVE",
"29 62 OFFCURVE",
"29 125 QCURVE SMOOTH",
"29 591 LINE SMOOTH",
"29 642 OFFCURVE",
"67 731 OFFCURVE",
"133 797 OFFCURVE",
"221 835 OFFCURVE",
"272 835 QCURVE SMOOTH",
"529 835 LINE",
"529 829 LINE",
"616 742 LINE",
"616 608 LINE",
"493 610 LINE"
);
},
{
nodes = (
"229 -83 OFFCURVE",
"272 -83 QCURVE SMOOTH",
"494 -83 LINE",
"494 -14 LINE",
"371 -14 LINE",
"371 732 LINE",
"494 730 LINE",
"494 800 LINE",
"272 800 LINE SMOOTH",
"229 800 OFFCURVE",
"153 767 OFFCURVE",
"97 710 OFFCURVE",
"64 634 OFFCURVE",
"64 591 QCURVE SMOOTH",
"64 125 LINE SMOOTH",
"64 82 OFFCURVE",
"97 6 OFFCURVE",
"153 -50 OFFCURVE",
"191 -66 QCURVE SMOOTH"
);
}
);
width = 647;
}
);
unicode = 0028;
},
{
glyphname = parenright;
layers = (
{
layerId = "36A2F76C-EA0C-4AFB-832E-E1AC112461C1";
paths = (
{
nodes = (
"1 695 LINE",
"-5 695 LINE",
"-5 835 LINE",
"252 835 LINE SMOOTH",
"313 835 OFFCURVE",
"416 780 OFFCURVE",
"449 733 QCURVE",
"511 672 LINE SMOOTH",
"544 639 OFFCURVE",
"582 552 OFFCURVE",
"582 501 QCURVE SMOOTH",
"582 35 LINE SMOOTH",
"582 -3 OFFCURVE",
"560 -71 OFFCURVE",
"521 -128 OFFCURVE",
"467 -173 OFFCURVE",
"435 -186 QCURVE",
"434 -185 LINE",
"391 -205 OFFCURVE",
"342 -205 QCURVE SMOOTH",
"88 -205 LINE",
"1 -118 LINE",
"-5 -118 LINE",
"-5 21 LINE",
"118 21 LINE",
"118 608 LINE",
"88 608 LINE"
);
},
{
nodes = (
"371 -50 OFFCURVE",
"427 6 OFFCURVE",
"460 82 OFFCURVE",
"460 125 QCURVE SMOOTH",
"460 591 LINE SMOOTH",
"460 634 OFFCURVE",
"427 710 OFFCURVE",
"371 767 OFFCURVE",
"295 800 OFFCURVE",
"252 800 QCURVE SMOOTH",
"30 800 LINE",
"30 730 LINE",
"153 732 LINE",
"153 -14 LINE",
"30 -14 LINE",
"30 -83 LINE",
"252 -83 LINE SMOOTH",
"295 -83 OFFCURVE",
"333 -66 QCURVE SMOOTH"
);
}
);
width = 481;
}
);
unicode = 0029;
},
{
glyphname = plus;
layers = (
{
layerId = "36A2F76C-EA0C-4AFB-832E-E1AC112461C1";
paths = (
{
nodes = (
"560 389 LINE",
"647 302 LINE",
"647 163 LINE",
"451 163 LINE",
"451 -35 LINE",
"312 -35 LINE",
"225 52 LINE",
"219 52 LINE",
"219 163 LINE",
"104 163 LINE",
"17 250 LINE",
"11 250 LINE",
"11 395 LINE",
"219 395 LINE",
"219 601 LINE",
"364 601 LINE",
"364 595 LINE",
"451 508 LINE",
"451 395 LINE",
"560 395 LINE"
);
},
{
nodes = (
"525 360 LINE",
"329 360 LINE",
"329 566 LINE",
"254 566 LINE",
"254 360 LINE",
"46 360 LINE",
"46 285 LINE",
"254 285 LINE",
"254 87 LINE",
"329 87 LINE",
"329 285 LINE",
"525 285 LINE"
);
}
);
width = 672;
}
);
unicode = 002B;
},
{
glyphname = comma;
layers = (
{
layerId = "36A2F76C-EA0C-4AFB-832E-E1AC112461C1";
paths = (
{
nodes = (
"20 127 LINE",
"198 127 LINE",
"198 121 LINE",
"285 34 LINE",
"285 -107 LINE",
"113 -213 LINE",
"25 -125 LINE",
"20 -129 LINE"
);
},
{
nodes = (
"55 -66 LINE",
"163 1 LINE",
"163 92 LINE",
"55 92 LINE"
);
}
);
width = 311;
}
);
unicode = 002C;
},
{
glyphname = hyphen;
layers = (
{
layerId = "36A2F76C-EA0C-4AFB-832E-E1AC112461C1";
paths = (
{
nodes = (
"564 389 LINE",
"651 302 LINE",
"651 163 LINE",
"108 163 LINE",
"21 250 LINE",
"15 250 LINE",
"15 395 LINE",
"564 395 LINE"
);
},
{
nodes = (
"529 360 LINE",
"50 360 LINE",
"50 285 LINE",
"529 285 LINE"
);
}
);
width = 672;
}
);
unicode = 002D;
},
{
glyphname = period;
layers = (
{
layerId = "36A2F76C-EA0C-4AFB-832E-E1AC112461C1";
paths = (
{
nodes = (
"203 139 LINE",
"290 52 LINE",
"290 -120 LINE",
"118 -120 LINE",
"31 -33 LINE",
"25 -33 LINE",
"25 145 LINE",
"203 145 LINE"
);
},
{
nodes = (
"168 110 LINE",
"60 110 LINE",
"60 2 LINE",
"168 2 LINE"
);
}
);
width = 317;
}
);
unicode = 002E;
},
{
glyphname = slash;
layers = (
{
layerId = "36A2F76C-EA0C-4AFB-832E-E1AC112461C1";
paths = (
{
nodes = (
"306 764 LINE",
"305 758 LINE",
"392 671 LINE",
"232 -168 LINE",
"110 -168 LINE",
"23 -81 LINE",
"16 -81 LINE",
"177 764 LINE"
);
},
{
nodes = (
"206 729 LINE",
"58 -46 LINE",
"116 -46 LINE",
"264 729 LINE"
);
}
);
width = 411;
}
);
unicode = 002F;
},
{
glyphname = zero;
layers = (
{
layerId = "36A2F76C-EA0C-4AFB-832E-E1AC112461C1";
paths = (
{
nodes = (
"479 730 LINE SMOOTH",
"540 730 OFFCURVE",
"643 675 OFFCURVE",
"676 628 QCURVE",
"738 567 LINE SMOOTH",
"771 534 OFFCURVE",
"809 447 OFFCURVE",
"809 396 QCURVE SMOOTH",
"809 111 LINE SMOOTH",
"809 63 OFFCURVE",
"769 -22 OFFCURVE",
"703 -85 OFFCURVE",
"616 -122 OFFCURVE",
"569 -122 QCURVE SMOOTH",
"360 -122 LINE SMOOTH",
"309 -122 OFFCURVE",
"222 -84 OFFCURVE",
"190 -52 QCURVE SMOOTH",
"127 10 LINE",
"81 43 OFFCURVE",
"27 146 OFFCURVE",
"27 208 QCURVE SMOOTH",
"27 486 LINE SMOOTH",
"27 537 OFFCURVE",
"65 626 OFFCURVE",
"131 692 OFFCURVE",
"219 730 OFFCURVE",
"270 730 QCURVE SMOOTH"
);
},
{
nodes = (
"618 232 LINE SMOOTH",
"618 199 OFFCURVE",
"602 139 OFFCURVE",
"568 95 OFFCURVE",
"516 69 OFFCURVE",
"479 69 QCURVE",
"479 260 LINE",
"618 399 LINE"
);
},
{
nodes = (
"618 467 LINE",
"479 328 LINE",
"479 625 LINE",
"508 625 OFFCURVE",
"559 603 OFFCURVE",
"596 566 OFFCURVE",
"618 515 OFFCURVE",
"618 486 QCURVE SMOOTH"
);
},
{
nodes = (
"270 695 LINE SMOOTH",
"227 695 OFFCURVE",
"151 662 OFFCURVE",
"95 605 OFFCURVE",
"62 529 OFFCURVE",
"62 486 QCURVE SMOOTH",
"62 208 LINE SMOOTH",
"62 165 OFFCURVE",
"95 89 OFFCURVE",
"151 33 OFFCURVE",
"227 0 OFFCURVE",
"270 0 QCURVE SMOOTH",
"479 0 LINE SMOOTH",
"519 0 OFFCURVE",
"595 32 OFFCURVE",
"652 86 OFFCURVE",
"687 159 OFFCURVE",
"687 201 QCURVE SMOOTH",
"687 486 LINE SMOOTH",
"687 529 OFFCURVE",
"654 605 OFFCURVE",
"598 662 OFFCURVE",
"522 695 OFFCURVE",
"479 695 QCURVE SMOOTH"
);
}
);
width = 837;
}
);
unicode = 0030;
},
{
glyphname = one;
layers = (
{
layerId = "36A2F76C-EA0C-4AFB-832E-E1AC112461C1";
paths = (
{
nodes = (
"618 724 LINE",
"705 637 LINE",
"705 -122 LINE",
"223 -122 LINE",
"136 -35 LINE",
"130 -35 LINE",
"130 365 LINE",
"99 365 LINE",
"12 452 LINE",
"4 452 LINE",
"143 730 LINE",
"618 730 LINE"
);
},
{
nodes = (
"583 695 LINE",
"165 695 LINE",
"61 487 LINE",
"131 487 LINE",
"165 556 LINE",
"165 0 LINE",
"583 0 LINE"
);
}
);
width = 740;
}
);
unicode = 0031;
},
{
glyphname = two;
layers = (
{
layerId = "36A2F76C-EA0C-4AFB-832E-E1AC112461C1";
paths = (
{
nodes = (
"40 -35 LINE",
"34 -35 LINE",
"34 178 LINE SMOOTH",
"34 194 OFFCURVE",
"35 227 OFFCURVE",
"39 244 QCURVE SMOOTH",
"47 284 OFFCURVE",
"85 351 OFFCURVE",
"114 377 QCURVE",
"40 452 LINE",
"34 452 LINE",
"34 500 OFFCURVE",
"60 587 OFFCURVE",
"106 659 OFFCURVE",
"171 710 OFFCURVE",
"209 721 QCURVE SMOOTH",
"230 727 OFFCURVE",
"273 731 OFFCURVE",
"295 731 QCURVE SMOOTH",
"358 731 OFFCURVE",
"450 731 OFFCURVE",
"516 728 OFFCURVE",
"562 723 OFFCURVE",
"580 719 QCURVE SMOOTH",
"620 709 OFFCURVE",
"669 670 OFFCURVE",
"692 637 QCURVE",
"757 573 LINE SMOOTH",
"784 546 OFFCURVE",
"816 475 OFFCURVE",
"816 434 QCURVE SMOOTH",
"816 238 LINE SMOOTH",
"816 189 OFFCURVE",
"783 105 OFFCURVE",
"752 75 QCURVE",
"816 12 LINE",
"816 -122 LINE",
"127 -122 LINE"
);
},
{
nodes = (
"694 524 LINE SMOOTH",
"694 556 OFFCURVE",
"673 612 OFFCURVE",
"635 655 OFFCURVE",
"583 686 OFFCURVE",
"553 692 QCURVE SMOOTH",
"530 697 OFFCURVE",
"475 697 OFFCURVE",
"451 697 QCURVE SMOOTH",
"412 697 OFFCURVE",
"334 696 OFFCURVE",
"295 696 QCURVE SMOOTH",
"276 696 OFFCURVE",
"238 692 OFFCURVE",
"219 687 QCURVE SMOOTH",
"186 678 OFFCURVE",
"131 638 OFFCURVE",
"91 585 OFFCURVE",
"69 521 OFFCURVE",
"69 487 QCURVE",
"139 487 LINE",
"139 515 OFFCURVE",
"161 566 OFFCURVE",
"198 603 OFFCURVE",
"248 625 OFFCURVE",
"277 625 QCURVE",
"277 404 LINE",
"241 404 OFFCURVE",
"173 379 OFFCURVE",
"118 334 OFFCURVE",
"80 273 OFFCURVE",
"73 237 QCURVE SMOOTH",
"70 223 OFFCURVE",
"69 193 OFFCURVE",
"69 178 QCURVE SMOOTH",
"69 0 LINE",
"694 0 LINE",
"694 70 LINE",
"278 70 LINE",
"278 142 LINE",
"520 142 LINE SMOOTH",
"560 142 OFFCURVE",
"625 171 OFFCURVE",
"670 222 OFFCURVE",
"694 289 OFFCURVE",
"694 328 QCURVE SMOOTH"
);
}
);
width = 853;
}
);
unicode = 0032;
},
{
glyphname = three;
layers = (
{
layerId = "36A2F76C-EA0C-4AFB-832E-E1AC112461C1";
paths = (
{
nodes = (
"515 729 LINE SMOOTH",
"569 729 OFFCURVE",
"659 681 OFFCURVE",
"687 639 QCURVE",
"751 576 LINE SMOOTH",
"779 548 OFFCURVE",
"811 474 OFFCURVE",
"811 431 QCURVE SMOOTH",
"811 377 OFFCURVE",
"762 288 OFFCURVE",
"720 260 QCURVE",
"751 229 LINE SMOOTH",
"779 201 OFFCURVE",
"811 127 OFFCURVE",
"811 84 QCURVE SMOOTH",
"811 41 OFFCURVE",
"779 -34 OFFCURVE",
"723 -90 OFFCURVE",
"648 -122 OFFCURVE",
"605 -122 QCURVE SMOOTH",
"362 -122 LINE SMOOTH",
"316 -122 OFFCURVE",
"236 -86 OFFCURVE",
"204 -54 QCURVE SMOOTH",
"141 8 LINE",
"90 46 OFFCURVE",
"29 168 OFFCURVE",
"29 243 QCURVE",
"168 243 LINE",
"168 237 LINE",
"237 168 LINE",
"237 206 LINE",
"166 277 LINE",
"160 277 LINE",
"160 364 LINE",
"122 364 LINE",
"35 451 LINE",
"29 451 LINE",
"29 508 OFFCURVE",
"67 610 OFFCURVE",
"133 685 OFFCURVE",
"221 729 OFFCURVE",
"272 729 QCURVE SMOOTH"
);
},
{
nodes = (
"272 694 LINE SMOOTH",
"229 694 OFFCURVE",
"153 661 OFFCURVE",
"97 605 OFFCURVE",
"64 529 OFFCURVE",
"64 486 QCURVE",
"133 486 LINE",
"133 515 OFFCURVE",
"155 566 OFFCURVE",
"192 603 OFFCURVE",
"243 625 OFFCURVE",
"272 625 QCURVE",
"272 382 LINE",
"195 382 LINE",
"195 312 LINE",
"272 312 LINE",
"272 69 LINE",
"243 69 OFFCURVE",
"193 91 OFFCURVE",
"155 129 OFFCURVE",
"133 179 OFFCURVE",
"133 208 QCURVE",
"64 208 LINE",
"64 165 OFFCURVE",
"97 89 OFFCURVE",
"153 33 OFFCURVE",
"229 0 OFFCURVE",
"272 0 QCURVE SMOOTH",
"515 0 LINE SMOOTH",
"551 0 OFFCURVE",
"614 27 OFFCURVE",
"662 75 OFFCURVE",
"689 138 OFFCURVE",
"689 174 QCURVE SMOOTH",
"689 210 OFFCURVE",
"662 273 OFFCURVE",
"614 320 OFFCURVE",
"551 347 OFFCURVE",
"515 347 QCURVE",
"551 347 OFFCURVE",
"614 374 OFFCURVE",
"662 422 OFFCURVE",
"689 485 OFFCURVE",
"689 521 QCURVE SMOOTH",
"689 557 OFFCURVE",
"662 620 OFFCURVE",
"614 667 OFFCURVE",
"551 694 OFFCURVE",
"515 694 QCURVE SMOOTH"
);
}
);
width = 840;
}
);
unicode = 0033;
},
{
glyphname = four;
layers = (
{
layerId = "36A2F76C-EA0C-4AFB-832E-E1AC112461C1";
paths = (
{
nodes = (
"36 313 LINE",
"30 313 LINE",
"30 424 LINE",
"167 730 LINE",
"643 730 LINE",
"643 724 LINE",
"730 637 LINE",
"730 428 LINE",
"799 359 LINE",
"799 226 LINE",
"730 226 LINE",
"730 -122 LINE",
"248 -122 LINE",
"161 -35 LINE",
"155 -35 LINE",
"155 226 LINE",
"123 226 LINE"
);
},
{
nodes = (
"190 417 LINE",
"135 417 LINE",
"190 541 LINE"
);
},
{
nodes = (
"677 417 LINE",
"608 417 LINE",
"608 695 LINE",
"190 695 LINE",
"65 417 LINE",
"65 348 LINE",
"190 348 LINE",
"190 0 LINE",
"608 0 LINE",
"608 348 LINE",
"677 348 LINE"
);
}
);
width = 817;
}
);
unicode = 0034;
},
{
glyphname = five;
layers = (
{
layerId = "36A2F76C-EA0C-4AFB-832E-E1AC112461C1";
paths = (
{
nodes = (
"400 486 LINE",
"521 486 LINE SMOOTH",
"574 486 OFFCURVE",
"662 438 OFFCURVE",
"691 399 QCURVE",
"757 333 LINE SMOOTH",
"785 305 OFFCURVE",
"817 230 OFFCURVE",
"817 187 QCURVE SMOOTH",
"817 83 LINE SMOOTH",
"817 40 OFFCURVE",
"785 -35 OFFCURVE",
"729 -90 OFFCURVE",
"654 -122 OFFCURVE",
"611 -122 QCURVE SMOOTH",
"368 -122 LINE SMOOTH",
"322 -122 OFFCURVE",
"240 -86 OFFCURVE",
"208 -54 QCURVE SMOOTH",
"141 12 LINE",
"92 50 OFFCURVE",
"34 171 OFFCURVE",
"34 243 QCURVE",
"174 243 LINE",
"174 237 LINE",
"243 168 LINE",
"243 260 LINE",
"127 260 LINE",
"40 347 LINE",
"34 347 LINE",
"34 729 LINE",
"730 729 LINE",
"730 723 LINE",
"817 636 LINE",
"817 503 LINE",
"400 503 LINE"
);
},
{
nodes = (
"695 277 LINE SMOOTH",
"695 313 OFFCURVE",
"668 376 OFFCURVE",
"620 424 OFFCURVE",
"557 451 OFFCURVE",
"521 451 QCURVE SMOOTH",
"278 451 LINE",
"278 625 LINE",
"695 625 LINE",
"695 694 LINE",
"69 694 LINE",
"69 382 LINE",
"278 382 LINE",
"278 69 LINE",
"249 69 OFFCURVE",
"198 91 OFFCURVE",
"161 128 OFFCURVE",
"139 179 OFFCURVE",
"139 208 QCURVE",
"69 208 LINE",
"69 165 OFFCURVE",
"102 89 OFFCURVE",
"159 33 OFFCURVE",
"235 0 OFFCURVE",
"278 0 QCURVE SMOOTH",
"521 0 LINE SMOOTH",
"557 0 OFFCURVE",
"620 27 OFFCURVE",
"668 74 OFFCURVE",
"695 137 OFFCURVE",
"695 173 QCURVE SMOOTH"
);
}
);
width = 850;
}
);
unicode = 0035;
},
{
glyphname = six;
layers = (
{
layerId = "36A2F76C-EA0C-4AFB-832E-E1AC112461C1";
paths = (
{
nodes = (
"134 9 LINE",
"87 42 OFFCURVE",
"31 146 OFFCURVE",
"31 209 QCURVE SMOOTH",
"31 522 LINE SMOOTH",
"31 565 OFFCURVE",
"64 641 OFFCURVE",
"120 698 OFFCURVE",
"196 730 OFFCURVE",
"240 730 QCURVE SMOOTH",
"483 730 LINE SMOOTH",
"537 730 OFFCURVE",
"630 680 OFFCURVE",
"664 638 QCURVE",
"733 569 LINE SMOOTH",
"771 531 OFFCURVE",
"814 426 OFFCURVE",
"814 365 QCURVE",
"680 365 LINE",
"745 288 LINE",
"777 256 OFFCURVE",
"814 170 OFFCURVE",
"814 120 QCURVE SMOOTH",
"814 69 OFFCURVE",
"777 -19 OFFCURVE",
"713 -85 OFFCURVE",
"624 -122 OFFCURVE",
"573 -122 QCURVE SMOOTH",
"365 -122 LINE SMOOTH",
"314 -122 OFFCURVE",
"228 -84 OFFCURVE",
"195 -51 QCURVE SMOOTH"
);
},
{
nodes = (
"622 180 OFFCURVE",
"600 129 OFFCURVE",
"563 92 OFFCURVE",
"512 70 OFFCURVE",
"483 70 QCURVE",
"483 348 LINE",
"511 348 OFFCURVE",
"562 326 OFFCURVE",
"600 288 OFFCURVE",
"622 237 OFFCURVE",
"622 209 QCURVE SMOOTH"
);
},
{
nodes = (
"692 487 LINE",
"692 530 OFFCURVE",
"659 606 OFFCURVE",
"602 662 OFFCURVE",
"526 695 OFFCURVE",
"483 695 QCURVE SMOOTH",
"240 695 LINE SMOOTH",
"204 695 OFFCURVE",
"141 668 OFFCURVE",
"93 621 OFFCURVE",
"66 558 OFFCURVE",
"66 522 QCURVE SMOOTH",
"66 209 LINE SMOOTH",
"66 166 OFFCURVE",
"99 90 OFFCURVE",
"156 33 OFFCURVE",
"232 0 OFFCURVE",
"275 0 QCURVE SMOOTH",
"483 0 LINE SMOOTH",
"528 0 OFFCURVE",
"604 32 OFFCURVE",
"660 89 OFFCURVE",
"692 166 OFFCURVE",
"692 210 QCURVE SMOOTH",
"692 253 OFFCURVE",
"659 329 OFFCURVE",
"602 385 OFFCURVE",
"526 417 OFFCURVE",
"483 417 QCURVE",
"483 626 LINE",
"512 626 OFFCURVE",
"563 604 OFFCURVE",
"600 567 OFFCURVE",
"622 516 OFFCURVE",
"622 487 QCURVE"
);
}
);
width = 843;
}
);
unicode = 0036;
},
{
glyphname = seven;
layers = (
{
layerId = "36A2F76C-EA0C-4AFB-832E-E1AC112461C1";
paths = (
{
nodes = (
"850 724 LINE",
"938 637 LINE",
"596 -122 LINE",
"110 -122 LINE",
"23 -35 LINE",
"15 -35 LINE",
"257 504 LINE",
"127 504 LINE",
"40 591 LINE",
"34 591 LINE",
"34 730 LINE",
"853 730 LINE"
);
},
{
nodes = (
"799 695 LINE",
"69 695 LINE",
"69 626 LINE",
"350 626 LINE",
"69 0 LINE",
"486 0 LINE"
);
}
);
width = 907;
}
);
unicode = 0037;
},
{
glyphname = eight;
layers = (
{
layerId = "36A2F76C-EA0C-4AFB-832E-E1AC112461C1";
paths = (
{
nodes = (
"126 10 LINE",
"79 44 OFFCURVE",
"25 149 OFFCURVE",
"25 212 QCURVE SMOOTH",
"25 266 OFFCURVE",
"68 356 OFFCURVE",
"106 390 QCURVE",
"85 417 OFFCURVE",
"60 484 OFFCURVE",
"60 519 QCURVE SMOOTH",
"60 563 OFFCURVE",
"92 640 OFFCURVE",
"149 697 OFFCURVE",
"226 730 OFFCURVE",
"270 730 QCURVE SMOOTH",
"478 730 LINE SMOOTH",
"532 730 OFFCURVE",
"620 683 OFFCURVE",
"648 643 QCURVE",
"714 578 LINE SMOOTH",
"742 550 OFFCURVE",
"774 474 OFFCURVE",
"774 430 QCURVE SMOOTH",
"774 356 OFFCURVE",
"727 300 QCURVE",
"740 287 LINE SMOOTH",
"772 255 OFFCURVE",
"808 170 OFFCURVE",
"808 121 QCURVE SMOOTH",
"808 70 OFFCURVE",
"771 -19 OFFCURVE",
"707 -84 OFFCURVE",
"619 -122 OFFCURVE",
"568 -122 QCURVE SMOOTH",
"360 -122 LINE SMOOTH",
"309 -122 OFFCURVE",
"221 -84 OFFCURVE",
"189 -52 QCURVE SMOOTH"
);
},
{
nodes = (
"582 477 OFFCURVE",
"523 417 OFFCURVE",
"478 417 QCURVE",
"478 626 LINE",
"522 626 OFFCURVE",
"582 566 OFFCURVE",
"582 522 QCURVE SMOOTH"
);
},
{
nodes = (
"617 180 OFFCURVE",
"595 129 OFFCURVE",
"558 92 OFFCURVE",
"507 70 OFFCURVE",
"478 70 QCURVE",
"478 348 LINE",
"506 348 OFFCURVE",
"557 326 OFFCURVE",
"595 288 OFFCURVE",
"617 237 OFFCURVE",
"617 209 QCURVE SMOOTH"
);
},
{
nodes = (
"618 411 OFFCURVE",
"652 480 OFFCURVE",
"652 520 QCURVE SMOOTH",
"652 557 OFFCURVE",
"625 621 OFFCURVE",
"578 668 OFFCURVE",
"515 695 OFFCURVE",
"478 695 QCURVE SMOOTH",
"270 695 LINE SMOOTH",
"233 695 OFFCURVE",
"169 668 OFFCURVE",
"122 620 OFFCURVE",
"95 556 OFFCURVE",
"95 519 QCURVE SMOOTH",
"95 480 OFFCURVE",
"129 411 OFFCURVE",
"160 386 QCURVE",
"113 357 OFFCURVE",
"60 268 OFFCURVE",
"60 212 QCURVE SMOOTH",
"60 168 OFFCURVE",
"92 91 OFFCURVE",
"149 33 OFFCURVE",
"225 0 OFFCURVE",
"270 0 QCURVE SMOOTH",
"478 0 LINE SMOOTH",
"522 0 OFFCURVE",
"598 33 OFFCURVE",
"654 90 OFFCURVE",
"686 167 OFFCURVE",
"686 211 QCURVE SMOOTH",
"686 266 OFFCURVE",
"634 357 OFFCURVE",
"587 386 QCURVE"
);
}
);
width = 837;
}
);
unicode = 0038;
},
{
glyphname = nine;
layers = (
{
layerId = "36A2F76C-EA0C-4AFB-832E-E1AC112461C1";
paths = (
{
nodes = (
"133 9 LINE",
"86 42 OFFCURVE",
"30 146 OFFCURVE",
"30 209 QCURVE SMOOTH",
"30 279 LINE",
"165 279 LINE",
"117 327 LINE",
"79 353 OFFCURVE",
"30 434 OFFCURVE",
"30 487 QCURVE SMOOTH",
"30 538 OFFCURVE",
"68 627 OFFCURVE",
"134 693 OFFCURVE",
"223 731 OFFCURVE",
"274 731 QCURVE SMOOTH",
"482 731 LINE SMOOTH",
"544 731 OFFCURVE",
"648 674 OFFCURVE",
"681 627 QCURVE",
"742 567 LINE SMOOTH",
"775 534 OFFCURVE",
"813 447 OFFCURVE",
"813 397 QCURVE SMOOTH",
"813 119 LINE SMOOTH",
"813 69 OFFCURVE",
"775 -19 OFFCURVE",
"710 -84 OFFCURVE",
"622 -122 OFFCURVE",
"572 -122 QCURVE SMOOTH",
"364 -122 LINE SMOOTH",
"313 -122 OFFCURVE",
"227 -84 OFFCURVE",
"194 -51 QCURVE SMOOTH"
);
},
{
nodes = (
"622 383 LINE",
"482 383 LINE",
"482 626 LINE",
"511 626 OFFCURVE",
"562 604 OFFCURVE",
"600 567 OFFCURVE",
"622 516 OFFCURVE",
"622 487 QCURVE SMOOTH"
);
},
{
nodes = (
"691 487 LINE SMOOTH",
"691 530 OFFCURVE",
"658 606 OFFCURVE",
"601 663 OFFCURVE",
"525 696 OFFCURVE",
"482 696 QCURVE SMOOTH",
"274 696 LINE SMOOTH",
"231 696 OFFCURVE",
"155 663 OFFCURVE",
"98 606 OFFCURVE",
"65 530 OFFCURVE",
"65 487 QCURVE SMOOTH",
"65 446 OFFCURVE",
"102 381 OFFCURVE",
"162 336 OFFCURVE",
"237 313 OFFCURVE",
"274 313 QCURVE SMOOTH",
"622 313 LINE",
"622 209 LINE SMOOTH",
"622 180 OFFCURVE",
"600 129 OFFCURVE",
"562 92 OFFCURVE",
"511 70 OFFCURVE",
"482 70 QCURVE",
"482 244 LINE",
"65 244 LINE",
"65 209 LINE SMOOTH",
"65 166 OFFCURVE",
"98 90 OFFCURVE",
"155 33 OFFCURVE",
"231 0 OFFCURVE",
"274 0 QCURVE SMOOTH",
"482 0 LINE SMOOTH",
"525 0 OFFCURVE",
"601 33 OFFCURVE",
"658 90 OFFCURVE",
"691 166 OFFCURVE",
"691 209 QCURVE SMOOTH"
);
}
);
width = 847;
}
);
unicode = 0039;
},
{
glyphname = colon;
layers = (
{
layerId = "36A2F76C-EA0C-4AFB-832E-E1AC112461C1";
paths = (
{
nodes = (
"202 126 LINE",
"202 120 LINE",
"289 33 LINE",
"289 -122 LINE",
"117 -122 LINE",
"30 -35 LINE",
"24 -35 LINE",
"24 126 LINE"
);
},
{
nodes = (
"201 716 LINE",
"201 710 LINE",
"288 623 LINE",
"288 468 LINE",
"116 468 LINE",
"29 555 LINE",
"23 555 LINE",
"23 716 LINE"
);
},
{
nodes = (
"58 681 LINE",
"58 590 LINE",
"166 590 LINE",
"166 681 LINE"
);
},
{
nodes = (
"59 91 LINE",
"59 0 LINE",
"167 0 LINE",
"167 91 LINE"
);
}
);
width = 320;
}
);
unicode = 003A;
},
{
glyphname = semicolon;
layers = (
{
layerId = "36A2F76C-EA0C-4AFB-832E-E1AC112461C1";
paths = (
{
nodes = (
"208 716 LINE",
"208 710 LINE",
"295 623 LINE",
"295 468 LINE",
"123 468 LINE",
"36 555 LINE",
"30 555 LINE",
"30 716 LINE"
);
},
{
nodes = (
"210 126 LINE",
"210 120 LINE",
"297 33 LINE",
"297 -108 LINE",
"125 -214 LINE",
"37 -126 LINE",
"32 -130 LINE",
"32 126 LINE"
);
},
{
nodes = (
"65 681 LINE",
"65 590 LINE",
"173 590 LINE",
"173 681 LINE"
);
},
{
nodes = (
"67 91 LINE",
"67 -67 LINE",
"175 0 LINE",
"175 91 LINE"
);
}
);
width = 333;
}
);
unicode = 003B;
},
{
glyphname = less;
layers = (
{
layerId = "36A2F76C-EA0C-4AFB-832E-E1AC112461C1";
paths = (
{
nodes = (
"573 115 LINE",
"661 28 LINE",
"605 -110 LINE",
"118 201 LINE",
"39 280 LINE",
"25 289 LINE",
"25 410 LINE",
"516 724 LINE",
"520 714 LINE",
"605 629 LINE",
"660 490 LINE",
"327 277 LINE",
"349 264 LINE",
"575 120 LINE"
);
},
{
nodes = (
"531 106 LINE",
"148 349 LINE",
"531 593 LINE",
"499 671 LINE",
"60 391 LINE",
"60 308 LINE",
"499 28 LINE"
);
}
);
width = 686;
}
);
unicode = 003C;
},
{
glyphname = equal;
layers = (
{
layerId = "36A2F76C-EA0C-4AFB-832E-E1AC112461C1";
paths = (
{
nodes = (
"867 504 LINE",
"954 417 LINE",
"954 278 LINE",
"908 278 LINE",
"954 232 LINE",
"954 93 LINE",
"107 93 LINE",
"20 180 LINE",
"14 180 LINE",
"14 325 LINE",
"60 325 LINE",
"20 365 LINE",
"14 365 LINE",
"14 510 LINE",
"867 510 LINE"
);
},
{
nodes = (
"832 475 LINE",
"49 475 LINE",
"49 400 LINE",
"832 400 LINE"
);
},
{
nodes = (
"832 290 LINE",
"49 290 LINE",
"49 215 LINE",
"832 215 LINE"
);
}
);
width = 979;
}
);
unicode = 003D;
},
{
glyphname = greater;
layers = (
{
layerId = "36A2F76C-EA0C-4AFB-832E-E1AC112461C1";
paths = (
{
nodes = (
"13 121 LINE",
"350 334 LINE",
"107 490 LINE",
"30 567 LINE",
"13 578 LINE",
"70 724 LINE",
"563 411 LINE",
"563 406 LINE",
"650 319 LINE",
"650 200 LINE",
"161 -110 LINE",
"73 -22 LINE",
"70 -25 LINE"
);
},
{
nodes = (
"87 28 LINE",
"528 308 LINE",
"528 391 LINE",
"87 671 LINE",
"56 593 LINE",
"439 349 LINE",
"56 106 LINE"
);
}
);
width = 693;
}
);
unicode = 003E;
},
{
glyphname = question;
layers = (
{
layerId = "36A2F76C-EA0C-4AFB-832E-E1AC112461C1";
paths = (
{
nodes = (
"35 453 LINE",
"29 453 LINE",
"29 501 OFFCURVE",
"55 588 OFFCURVE",
"101 660 OFFCURVE",
"166 711 OFFCURVE",
"204 722 QCURVE SMOOTH",
"225 728 OFFCURVE",
"268 732 OFFCURVE",
"290 732 QCURVE SMOOTH",
"353 732 LINE",
"422 731 OFFCURVE",
"548 733 OFFCURVE",
"611 733 QCURVE SMOOTH",
"628 733 OFFCURVE",
"659 731 OFFCURVE",
"674 727 QCURVE SMOOTH",
"712 716 OFFCURVE",
"781 669 OFFCURVE",
"804 636 QCURVE",
"869 572 LINE SMOOTH",
"896 545 OFFCURVE",
"929 475 OFFCURVE",
"929 435 QCURVE SMOOTH",
"929 328 LINE SMOOTH",
"929 283 OFFCURVE",
"900 203 OFFCURVE",
"847 144 OFFCURVE",
"771 110 OFFCURVE",
"723 110 QCURVE SMOOTH",
"704 110 LINE",
"704 25 LINE",
"703 25 LINE",
"703 -122 LINE",
"330 -122 LINE",
"243 -35 LINE",
"237 -35 LINE",
"237 126 LINE",
"238 126 LINE",
"237 366 LINE",
"122 366 LINE"
);
},
{
nodes = (
"272 91 LINE",
"272 0 LINE",
"581 0 LINE",
"581 91 LINE"
);
},
{
nodes = (
"807 525 LINE SMOOTH",
"807 557 OFFCURVE",
"786 612 OFFCURVE",
"748 656 OFFCURVE",
"696 686 OFFCURVE",
"666 693 QCURVE SMOOTH",
"638 699 OFFCURVE",
"574 696 OFFCURVE",
"545 696 QCURVE SMOOTH",
"481 696 OFFCURVE",
"354 697 OFFCURVE",
"290 697 QCURVE SMOOTH",
"271 697 OFFCURVE",
"233 693 OFFCURVE",
"214 688 QCURVE SMOOTH",
"181 679 OFFCURVE",
"126 639 OFFCURVE",
"86 586 OFFCURVE",
"64 522 OFFCURVE",
"64 488 QCURVE",
"134 488 LINE",
"134 516 OFFCURVE",
"156 567 OFFCURVE",
"193 604 OFFCURVE",
"243 626 OFFCURVE",
"272 626 QCURVE",
"273 147 LINE",
"582 147 LINE",
"582 232 LINE",
"633 232 LINE SMOOTH",
"673 232 OFFCURVE",
"738 261 OFFCURVE",
"783 312 OFFCURVE",
"807 379 OFFCURVE",
"807 418 QCURVE SMOOTH"
);
}
);
width = 960;
}
);
unicode = 003F;
},
{
glyphname = exclamdown;
layers = (
{
layerId = "36A2F76C-EA0C-4AFB-832E-E1AC112461C1";
paths = (
{
nodes = (
"35 730 LINE",
"414 730 LINE",
"414 724 LINE",
"501 637 LINE",
"501 -122 LINE",
"128 -122 LINE",
"41 -35 LINE",
"35 -35 LINE"
);
},
{
nodes = (
"70 604 LINE",
"379 604 LINE",
"379 695 LINE",
"70 695 LINE"
);
},
{
nodes = (
"70 0 LINE",
"379 0 LINE",
"379 548 LINE",
"70 548 LINE"
);
}
);
width = 526;
}
);
unicode = 00A1;
},
{
glyphname = cent;
layers = (
{
layerId = "36A2F76C-EA0C-4AFB-832E-E1AC112461C1";
paths = (
{
nodes = (
"130 10 LINE",
"83 43 OFFCURVE",
"28 146 OFFCURVE",
"28 209 QCURVE SMOOTH",
"28 487 LINE SMOOTH",
"28 538 OFFCURVE",
"66 627 OFFCURVE",
"132 693 OFFCURVE",
"220 731 OFFCURVE",
"271 731 QCURVE SMOOTH",
"303 731 LINE",
"303 902 LINE",
"448 902 LINE",
"448 896 LINE",
"535 809 LINE",
"535 724 LINE",
"573 713 OFFCURVE",
"640 666 OFFCURVE",
"665 633 QCURVE",
"728 570 LINE SMOOTH",
"766 532 OFFCURVE",
"810 426 OFFCURVE",
"810 365 QCURVE",
"677 365 LINE",
"602 440 LINE",
"602 244 LINE",
"723 244 LINE",
"723 238 LINE",
"810 151 LINE",
"810 95 OFFCURVE",
"772 -5 OFFCURVE",
"707 -79 OFFCURVE",
"620 -122 OFFCURVE",
"570 -122 QCURVE SMOOTH",
"535 -122 LINE",
"535 -286 LINE",
"396 -286 LINE",
"309 -199 LINE",
"303 -199 LINE",
"303 -114 LINE",
"271 -106 OFFCURVE",
"214 -74 OFFCURVE",
"192 -52 QCURVE SMOOTH"
);
},
{
nodes = (
"688 487 LINE",
"688 530 OFFCURVE",
"655 606 OFFCURVE",
"599 663 OFFCURVE",
"523 696 OFFCURVE",
"480 696 QCURVE SMOOTH",
"413 696 LINE",
"413 867 LINE",
"338 867 LINE",
"338 696 LINE",
"271 696 LINE SMOOTH",
"228 696 OFFCURVE",
"152 663 OFFCURVE",
"96 606 OFFCURVE",
"63 530 OFFCURVE",
"63 487 QCURVE SMOOTH",
"63 209 LINE SMOOTH",
"63 166 OFFCURVE",
"96 90 OFFCURVE",
"152 33 OFFCURVE",
"228 0 OFFCURVE",
"271 0 QCURVE SMOOTH",
"338 0 LINE",
"338 -164 LINE",
"413 -164 LINE",
"413 0 LINE",
"480 0 LINE SMOOTH",
"523 0 OFFCURVE",
"599 33 OFFCURVE",
"655 90 OFFCURVE",
"688 166 OFFCURVE",
"688 209 QCURVE",
"619 209 LINE",
"619 180 OFFCURVE",
"597 129 OFFCURVE",
"560 92 OFFCURVE",
"509 70 OFFCURVE",
"480 70 QCURVE",
"480 626 LINE",
"509 626 OFFCURVE",
"560 604 OFFCURVE",
"597 567 OFFCURVE",
"619 516 OFFCURVE",
"619 487 QCURVE"
);
}
);
width = 824;
}
);
unicode = 00A2;
},
{
glyphname = sterling;
layers = (
{
layerId = "36A2F76C-EA0C-4AFB-832E-E1AC112461C1";
paths = (
{
nodes = (
"115 -9 LINE",
"108 -7 LINE",
"108 10 LINE SMOOTH",
"108 18 OFFCURVE",
"107 29 OFFCURVE",
"109 32 QCURVE",
"109 189 LINE",
"28 270 LINE",
"22 270 LINE",
"22 415 LINE",
"109 415 LINE",
"109 486 LINE SMOOTH",
"109 537 OFFCURVE",
"147 626 OFFCURVE",
"213 692 OFFCURVE",
"301 730 OFFCURVE",
"352 730 QCURVE SMOOTH",
"635 730 LINE",
"635 724 LINE",
"722 637 LINE",
"722 504 LINE",
"561 504 LINE",
"561 415 LINE",
"571 415 LINE",
"571 409 LINE",
"658 322 LINE",
"658 271 LINE",
"733 249 LINE",
"732 244 LINE",
"819 157 LINE",
"806 93 LINE SMOOTH",
"799 59 OFFCURVE",
"780 -16 OFFCURVE",
"744 -79 OFFCURVE",
"686 -120 OFFCURVE",
"640 -120 QCURVE SMOOTH",
"593 -120 OFFCURVE",
"544 -104 QCURVE SMOOTH",
"520 -96 OFFCURVE",
"479 -83 OFFCURVE",
"459 -77 QCURVE",
"447 -75 OFFCURVE",
"421 -66 OFFCURVE",
"408 -62 QCURVE SMOOTH",
"400 -60 OFFCURVE",
"390 -56 OFFCURVE",
"391 -56 QCURVE",
"367 -56 OFFCURVE",
"330 -95 OFFCURVE",
"321 -128 QCURVE",
"201 -95 LINE"
);
},
{
nodes = (
"628 243 LINE",
"621 213 OFFCURVE",
"565 190 OFFCURVE",
"538 190 QCURVE SMOOTH",
"513 190 OFFCURVE",
"481 199 QCURVE SMOOTH",
"461 205 OFFCURVE",
"439 212 QCURVE",
"439 305 LINE",
"536 305 LINE",
"536 380 LINE",
"439 380 LINE",
"439 626 LINE",
"600 626 LINE",
"600 695 LINE",
"352 695 LINE SMOOTH",
"309 695 OFFCURVE",
"233 662 OFFCURVE",
"177 605 OFFCURVE",
"144 529 OFFCURVE",
"144 486 QCURVE SMOOTH",
"144 380 LINE",
"57 380 LINE",
"57 305 LINE",
"144 305 LINE",
"144 22 LINE",
"143 21 OFFCURVE",
"143 19 QCURVE",
"144 18 LINE",
"209 1 LINE",
"217 31 OFFCURVE",
"265 66 OFFCURVE",
"301 66 QCURVE",
"302 66 OFFCURVE",
"324 60 OFFCURVE",
"349 52 OFFCURVE",
"373 45 OFFCURVE",
"376 45 QCURVE",
"376 44 LINE",
"416 33 OFFCURVE",
"512 2 OFFCURVE",
"550 2 QCURVE SMOOTH",
"592 2 OFFCURVE",
"642 50 OFFCURVE",
"671 117 OFFCURVE",
"686 194 OFFCURVE",
"693 224 QCURVE"
);
}
);
width = 841;
}
);
unicode = 00A3;
},
{
glyphname = yen;
layers = (
{
layerId = "36A2F76C-EA0C-4AFB-832E-E1AC112461C1";
paths = (
{
nodes = (
"39 -35 LINE",
"31 -35 LINE",
"97 111 LINE",
"29 180 LINE",
"23 180 LINE",
"23 325 LINE",
"69 325 LINE",
"29 365 LINE",
"23 365 LINE",
"23 510 LINE",
"205 510 LINE",
"179 565 OFFCURVE",
"128 676 OFFCURVE",
"105 730 QCURVE",
"269 730 LINE",
"273 721 LINE",
"340 653 LINE",
"375 730 LINE",
"869 730 LINE",
"866 724 LINE",
"954 637 LINE",
"888 491 LINE",
"963 417 LINE",
"963 278 LINE",
"917 278 LINE",
"963 232 LINE",
"963 93 LINE",
"709 93 LINE",
"612 -122 LINE",
"126 -122 LINE"
);
},
{
nodes = (
"322 526 LINE",
"246 695 LINE",
"159 695 LINE",
"258 475 LINE",
"58 475 LINE",
"58 400 LINE",
"265 400 LINE",
"216 290 LINE",
"58 290 LINE",
"58 215 LINE",
"182 215 LINE",
"85 0 LINE",
"502 0 LINE",
"599 215 LINE",
"841 215 LINE",
"841 290 LINE",
"632 290 LINE",
"682 400 LINE",
"841 400 LINE",
"841 475 LINE",
"716 475 LINE",
"815 695 LINE",
"398 695 LINE"
);
}
);
width = 998;
}
);
unicode = 00A5;
},
{
glyphname = dieresis;
layers = (
{
layerId = "36A2F76C-EA0C-4AFB-832E-E1AC112461C1";
paths = (
{
nodes = (
"106 928 OFFCURVE",
"124 971 OFFCURVE",
"155 1002 OFFCURVE",
"197 1020 OFFCURVE",
"221 1020 QCURVE SMOOTH",
"253 1020 OFFCURVE",
"305 990 OFFCURVE",
"320 964 QCURVE",
"379 906 LINE",
"379 930 OFFCURVE",
"397 972 OFFCURVE",
"428 1002 OFFCURVE",
"470 1020 OFFCURVE",
"494 1020 QCURVE SMOOTH",
"526 1020 OFFCURVE",
"578 990 OFFCURVE",
"593 964 QCURVE",
"664 894 LINE SMOOTH",
"679 879 OFFCURVE",
"697 837 OFFCURVE",
"697 814 QCURVE SMOOTH",
"697 790 OFFCURVE",
"679 749 OFFCURVE",
"649 719 OFFCURVE",
"608 702 OFFCURVE",
"584 702 QCURVE SMOOTH",
"536 702 OFFCURVE",
"504 734 QCURVE SMOOTH",
"431 806 LINE",
"424 812 LINE",
"424 789 OFFCURVE",
"406 749 OFFCURVE",
"375 719 OFFCURVE",
"334 702 OFFCURVE",
"311 702 QCURVE SMOOTH",
"287 702 OFFCURVE",
"246 719 OFFCURVE",
"231 734 QCURVE SMOOTH",
"158 806 LINE",
"134 821 OFFCURVE",
"106 872 OFFCURVE",
"106 904 QCURVE SMOOTH"
);
},
{
nodes = (
"414 870 OFFCURVE",
"460 824 OFFCURVE",
"494 824 QCURVE SMOOTH",
"528 824 OFFCURVE",
"575 870 OFFCURVE",
"575 904 QCURVE SMOOTH",
"575 938 OFFCURVE",
"528 985 OFFCURVE",
"494 985 QCURVE SMOOTH",
"460 985 OFFCURVE",
"414 938 OFFCURVE",
"414 904 QCURVE SMOOTH"
);
},
{
nodes = (
"141 870 OFFCURVE",
"187 824 OFFCURVE",
"221 824 QCURVE SMOOTH",
"255 824 OFFCURVE",
"302 870 OFFCURVE",
"302 904 QCURVE SMOOTH",
"302 938 OFFCURVE",
"255 985 OFFCURVE",
"221 985 QCURVE SMOOTH",
"187 985 OFFCURVE",
"141 938 OFFCURVE",
"141 904 QCURVE SMOOTH"
);
}
);
width = 713;
}
);
unicode = 00A8;
},
{
glyphname = asterisk;
layers = (
{
layerId = "36A2F76C-EA0C-4AFB-832E-E1AC112461C1";
paths = (
{
nodes = (
"356 663 LINE",
"294 583 LINE",
"294 672 LINE",
"191 672 LINE",
"191 595 LINE",
"135 662 LINE",
"58 591 LINE",
"166 462 LINE",
"58 338 LINE",
"135 271 LINE",
"191 334 LINE",
"191 242 LINE",
"294 242 LINE",
"294 345 LINE",
"356 270 LINE",
"436 335 LINE",
"331 462 LINE",
"436 594 LINE"
);
},
{
nodes = (
"167 210 LINE",
"159 210 LINE",
"159 217 LINE",
"140 228 LINE",
"138 226 LINE",
"13 335 LINE",
"124 463 LINE",
"97 495 OFFCURVE",
"41 562 OFFCURVE",
"14 594 QCURVE",
"135 706 LINE",
"143 697 LINE",
"159 688 LINE",
"159 704 LINE",
"326 704 LINE",
"326 699 LINE",
"339 692 LINE",
"352 709 LINE",
"364 698 LINE",
"442 655 LINE",
"566 547 LINE",
"459 413 LINE",
"567 281 LINE",
"444 181 LINE",
"413 198 LINE",
"413 163 LINE",
"252 163 LINE"
);
}
);
width = 582;
}
);
unicode = 002A;
},
{
glyphname = copyright;
layers = (
{
layerId = "36A2F76C-EA0C-4AFB-832E-E1AC112461C1";
paths = (
{
nodes = (
"173 83 LINE SMOOTH",
"165 90 OFFCURVE",
"148 105 OFFCURVE",
"140 113 QCURVE SMOOTH",
"89 164 OFFCURVE",
"38 289 OFFCURVE",
"38 360 QCURVE SMOOTH",
"38 431 OFFCURVE",
"89 556 OFFCURVE",
"140 607 QCURVE SMOOTH",
"191 658 OFFCURVE",
"316 709 OFFCURVE",
"387 709 QCURVE SMOOTH",
"458 709 OFFCURVE",
"583 658 OFFCURVE",
"634 607 QCURVE SMOOTH",
"642 599 OFFCURVE",
"656 582 OFFCURVE",
"663 573 QCURVE",
"722 515 LINE SMOOTH",
"772 465 OFFCURVE",
"823 340 OFFCURVE",
"823 270 QCURVE SMOOTH",
"823 200 OFFCURVE",
"772 75 OFFCURVE",
"722 25 QCURVE SMOOTH",
"672 -25 OFFCURVE",
"547 -76 OFFCURVE",
"477 -76 QCURVE SMOOTH",
"407 -76 OFFCURVE",
"282 -25 OFFCURVE",
"232 25 QCURVE SMOOTH"
);
},
{
nodes = (
"533 254 LINE",
"508 220 OFFCURVE",
"432 180 OFFCURVE",
"387 180 QCURVE SMOOTH",
"349 180 OFFCURVE",
"284 208 OFFCURVE",
"234 257 OFFCURVE",
"206 322 OFFCURVE",
"206 360 QCURVE SMOOTH",
"206 397 OFFCURVE",
"234 463 OFFCURVE",
"284 513 OFFCURVE",
"349 541 OFFCURVE",
"387 541 QCURVE SMOOTH",
"424 541 OFFCURVE",
"488 513 OFFCURVE",
"512 490 QCURVE",
"468 444 LINE",
"452 459 OFFCURVE",
"410 477 OFFCURVE",
"387 477 QCURVE SMOOTH",
"363 477 OFFCURVE",
"320 458 OFFCURVE",
"289 427 OFFCURVE",
"270 384 OFFCURVE",
"270 360 QCURVE SMOOTH",
"270 336 OFFCURVE",
"289 294 OFFCURVE",
"320 262 OFFCURVE",
"363 244 OFFCURVE",
"387 244 QCURVE SMOOTH",
"416 244 OFFCURVE",
"465 270 OFFCURVE",
"481 292 QCURVE"
);
},
{
nodes = (
"450 46 OFFCURVE",
"564 93 OFFCURVE",
"609 138 QCURVE SMOOTH",
"654 183 OFFCURVE",
"701 297 OFFCURVE",
"701 360 QCURVE SMOOTH",
"701 423 OFFCURVE",
"654 537 OFFCURVE",
"609 582 QCURVE SMOOTH",
"564 627 OFFCURVE",
"450 674 OFFCURVE",
"387 674 QCURVE SMOOTH",
"324 674 OFFCURVE",
"210 627 OFFCURVE",
"165 582 QCURVE SMOOTH",
"120 537 OFFCURVE",
"73 423 OFFCURVE",
"73 360 QCURVE SMOOTH",
"73 297 OFFCURVE",
"120 183 OFFCURVE",
"165 138 QCURVE SMOOTH",
"210 93 OFFCURVE",
"324 46 OFFCURVE",
"387 46 QCURVE SMOOTH"
);
}
);
width = 855;
}
);
unicode = 00A9;
},
{
glyphname = ordfeminine;
layers = (
{
layerId = "36A2F76C-EA0C-4AFB-832E-E1AC112461C1";
paths = (
{
nodes = (
"73 373 LINE",
"49 388 OFFCURVE",
"19 438 OFFCURVE",
"19 467 QCURVE SMOOTH",
"19 513 LINE SMOOTH",
"19 560 OFFCURVE",
"51 592 QCURVE",
"26 618 LINE",
"20 618 LINE",
"20 715 LINE",
"314 715 LINE SMOOTH",
"345 715 OFFCURVE",
"396 685 OFFCURVE",
"410 661 QCURVE",
"482 590 LINE SMOOTH",
"497 575 OFFCURVE",
"514 535 OFFCURVE",
"514 512 QCURVE SMOOTH",
"514 271 LINE",
"394 270 LINE",
"222 270 LINE SMOOTH",
"199 270 OFFCURVE",
"159 288 OFFCURVE",
"144 303 QCURVE SMOOTH"
);
},
{
nodes = (
"196 565 LINE",
"196 419 LINE",
"132 418 LINE",
"104 418 OFFCURVE",
"80 454 OFFCURVE",
"80 478 QCURVE SMOOTH",
"80 513 LINE SMOOTH",
"80 534 OFFCURVE",
"110 565 OFFCURVE",
"132 565 QCURVE SMOOTH"
);
},
{
nodes = (
"392 602 LINE SMOOTH",
"392 618 OFFCURVE",
"380 646 OFFCURVE",
"359 667 OFFCURVE",
"330 680 OFFCURVE",
"314 680 QCURVE SMOOTH",
"55 680 LINE",
"55 653 LINE",
"194 653 LINE",
"194 591 LINE",
"137 591 LINE SMOOTH",
"116 591 OFFCURVE",
"88 579 OFFCURVE",
"77 568 QCURVE SMOOTH",
"66 557 OFFCURVE",
"54 529 OFFCURVE",
"54 513 QCURVE SMOOTH",
"54 467 LINE SMOOTH",
"54 436 OFFCURVE",
"101 392 OFFCURVE",
"132 392 QCURVE SMOOTH",
"304 392 LINE",
"392 393 LINE"
);
}
);
width = 540;
}
);
unicode = 00AA;
},
{
glyphname = registered;
layers = (
{
layerId = "36A2F76C-EA0C-4AFB-832E-E1AC112461C1";
paths = (
{
nodes = (
"171 100 LINE",
"153 115 OFFCURVE",
"137 131 QCURVE SMOOTH",
"35 233 OFFCURVE",
"35 376 QCURVE SMOOTH",
"35 446 OFFCURVE",
"86 571 OFFCURVE",
"137 620 QCURVE",
"187 671 OFFCURVE",
"311 722 OFFCURVE",
"381 722 QCURVE SMOOTH",
"451 722 OFFCURVE",
"576 672 OFFCURVE",
"625 621 QCURVE SMOOTH",
"634 612 OFFCURVE",
"650 593 OFFCURVE",
"658 583 QCURVE",
"716 526 LINE SMOOTH",
"765 477 OFFCURVE",
"815 355 OFFCURVE",
"815 286 QCURVE SMOOTH",
"815 144 OFFCURVE",
"714 43 QCURVE SMOOTH",
"665 -6 OFFCURVE",
"541 -57 OFFCURVE",
"471 -57 QCURVE SMOOTH",
"401 -57 OFFCURVE",
"278 -6 OFFCURVE",
"229 43 QCURVE SMOOTH"
);
},
{
nodes = (
"492 444 OFFCURVE",
"460 413 OFFCURVE",
"437 413 QCURVE",
"437 524 LINE",
"460 524 OFFCURVE",
"492 492 OFFCURVE",
"492 468 QCURVE SMOOTH"
);
},
{
nodes = (
"502 395 OFFCURVE",
"529 434 OFFCURVE",
"529 468 QCURVE SMOOTH",
"529 487 OFFCURVE",
"515 521 OFFCURVE",
"490 547 OFFCURVE",
"456 561 OFFCURVE",
"437 561 QCURVE SMOOTH",
"215 561 LINE",
"215 191 LINE",
"437 191 LINE",
"437 376 LINE",
"519 191 LINE",
"557 191 LINE",
"513 287 OFFCURVE",
"471 383 QCURVE"
);
},
{
nodes = (
"436 641 OFFCURVE",
"533 599 OFFCURVE",
"605 527 OFFCURVE",
"647 431 OFFCURVE",
"647 376 QCURVE SMOOTH",
"647 321 OFFCURVE",
"605 225 OFFCURVE",
"533 153 OFFCURVE",
"436 111 OFFCURVE",
"381 111 QCURVE SMOOTH",
"326 111 OFFCURVE",
"230 153 OFFCURVE",
"158 225 OFFCURVE",
"116 321 OFFCURVE",
"116 376 QCURVE SMOOTH",
"116 431 OFFCURVE",
"158 527 OFFCURVE",
"230 599 OFFCURVE",
"326 641 OFFCURVE",
"381 641 QCURVE SMOOTH"
);
},
{
nodes = (
"444 65 OFFCURVE",
"557 112 OFFCURVE",
"601 156 QCURVE SMOOTH",
"646 201 OFFCURVE",
"693 313 OFFCURVE",
"693 376 QCURVE SMOOTH",
"693 439 OFFCURVE",
"646 552 OFFCURVE",
"601 596 QCURVE SMOOTH",
"557 641 OFFCURVE",
"444 687 OFFCURVE",
"381 687 QCURVE SMOOTH",
"318 687 OFFCURVE",
"206 641 OFFCURVE",
"162 596 QCURVE SMOOTH",
"117 552 OFFCURVE",
"70 439 OFFCURVE",
"70 376 QCURVE SMOOTH",
"70 313 OFFCURVE",
"117 201 OFFCURVE",
"162 156 QCURVE SMOOTH",
"206 112 OFFCURVE",
"318 65 OFFCURVE",
"381 65 QCURVE SMOOTH"
);
}
);
width = 838;
}
);
unicode = 00AE;
},
{
glyphname = degree;
layers = (
{
layerId = "36A2F76C-EA0C-4AFB-832E-E1AC112461C1";
paths = (
{
nodes = (
"297 491 OFFCURVE",
"252 447 OFFCURVE",
"250 415 QCURVE",
"282 417 OFFCURVE",
"327 462 OFFCURVE",
"329 494 QCURVE"
);
},
{
nodes = (
"120 319 LINE",
"78 348 OFFCURVE",
"29 441 OFFCURVE",
"29 498 QCURVE SMOOTH",
"29 542 OFFCURVE",
"62 621 OFFCURVE",
"121 680 OFFCURVE",
"200 715 OFFCURVE",
"246 715 QCURVE SMOOTH",
"301 715 OFFCURVE",
"396 662 OFFCURVE",
"425 618 QCURVE",
"486 558 LINE SMOOTH",
"515 529 OFFCURVE",
"550 452 OFFCURVE",
"550 408 QCURVE SMOOTH",
"550 363 OFFCURVE",
"516 285 OFFCURVE",
"457 227 OFFCURVE",
"379 194 OFFCURVE",
"336 194 QCURVE SMOOTH",
"291 194 OFFCURVE",
"213 227 OFFCURVE",
"184 256 QCURVE SMOOTH"
);
},
{
nodes = (
"270 616 OFFCURVE",
"313 597 OFFCURVE",
"345 565 OFFCURVE",
"364 522 OFFCURVE",
"364 498 QCURVE SMOOTH",
"364 474 OFFCURVE",
"345 431 OFFCURVE",
"313 399 OFFCURVE",
"270 380 OFFCURVE",
"246 380 QCURVE SMOOTH",
"222 380 OFFCURVE",
"179 399 OFFCURVE",
"147 431 OFFCURVE",
"128 474 OFFCURVE",
"128 498 QCURVE SMOOTH",
"128 522 OFFCURVE",
"147 565 OFFCURVE",
"179 597 OFFCURVE",
"222 616 OFFCURVE",
"246 616 QCURVE SMOOTH"
);
},
{
nodes = (
"283 316 OFFCURVE",
"349 344 OFFCURVE",
"399 393 OFFCURVE",
"428 460 OFFCURVE",
"428 498 QCURVE SMOOTH",
"428 535 OFFCURVE",
"399 601 OFFCURVE",
"349 651 OFFCURVE",
"283 680 OFFCURVE",
"246 680 QCURVE SMOOTH",
"208 680 OFFCURVE",
"141 651 OFFCURVE",
"92 601 OFFCURVE",
"64 535 OFFCURVE",
"64 498 QCURVE SMOOTH",
"64 460 OFFCURVE",
"92 393 OFFCURVE",
"141 344 OFFCURVE",
"208 316 OFFCURVE",
"246 316 QCURVE SMOOTH"
);
}
);
width = 586;
}
);
unicode = 00B0;
},
{
glyphname = acute;
layers = (
{
layerId = "36A2F76C-EA0C-4AFB-832E-E1AC112461C1";
paths = (
{
nodes = (
"523 968 LINE",
"611 880 LINE",
"479 682 LINE",
"339 737 LINE",
"255 821 LINE",
"245 825 LINE",
"331 1064 LINE",
"525 971 LINE"
);
},
{
nodes = (
"473 957 LINE",
"351 1016 LINE",
"290 846 LINE",
"376 812 LINE"
);
}
);
width = 736;
}
);
unicode = 00B4;
},
{
glyphname = paragraph;
layers = (
{
layerId = "36A2F76C-EA0C-4AFB-832E-E1AC112461C1";
paths = (
{
nodes = (
"772 724 LINE",
"859 637 LINE",
"859 498 LINE",
"779 498 LINE",
"779 -294 LINE",
"640 -294 LINE",
"566 -220 LINE",
"566 -294 LINE",
"427 -294 LINE",
"340 -207 LINE",
"334 -207 LINE",
"334 225 LINE",
"313 225 LINE SMOOTH",
"270 225 OFFCURVE",
"195 257 OFFCURVE",
"167 285 QCURVE SMOOTH",
"101 351 LINE",
"61 380 OFFCURVE",
"14 467 OFFCURVE",
"14 521 QCURVE SMOOTH",
"14 564 OFFCURVE",
"47 641 OFFCURVE",
"103 697 OFFCURVE",
"179 730 OFFCURVE",
"223 730 QCURVE SMOOTH",
"772 730 LINE"
);
},
{
nodes = (
"737 695 LINE",
"223 695 LINE SMOOTH",
"187 695 OFFCURVE",
"124 668 OFFCURVE",
"76 620 OFFCURVE",
"49 557 OFFCURVE",
"49 521 QCURVE SMOOTH",
"49 485 OFFCURVE",
"76 422 OFFCURVE",
"124 374 OFFCURVE",
"187 347 OFFCURVE",
"223 347 QCURVE SMOOTH",
"369 347 LINE",
"369 -172 LINE",
"444 -172 LINE",
"444 620 LINE",
"582 620 LINE",
"582 -172 LINE",
"657 -172 LINE",
"657 620 LINE",
"737 620 LINE"
);
}
);
width = 889;
}
);
unicode = 00B6;
},
{
glyphname = cedilla;
layers = (
{
layerId = "36A2F76C-EA0C-4AFB-832E-E1AC112461C1";
paths = (
{
nodes = (
"525 -173 LINE",
"531 -178 OFFCURVE",
"540 -191 OFFCURVE",
"545 -198 QCURVE",
"616 -269 LINE SMOOTH",
"648 -301 OFFCURVE",
"648 -347 QCURVE SMOOTH",
"648 -389 LINE SMOOTH",
"648 -437 OFFCURVE",
"584 -499 OFFCURVE",
"536 -499 QCURVE SMOOTH",
"435 -499 LINE SMOOTH",
"392 -499 OFFCURVE",
"358 -465 QCURVE SMOOTH",
"287 -394 LINE",
"255 -373 OFFCURVE",
"216 -293 OFFCURVE",
"216 -242 QCURVE",
"274 -242 LINE",
"274 -72 LINE",
"438 -72 LINE",
"438 -78 LINE",
"525 -165 LINE"
);
},
{
nodes = (
"526 -257 LINE SMOOTH",
"526 -224 OFFCURVE",
"480 -178 OFFCURVE",
"446 -178 QCURVE SMOOTH",
"403 -178 LINE",
"403 -107 LINE",
"309 -107 LINE",
"309 -213 LINE",
"416 -213 LINE",
"416 -242 OFFCURVE",
"415 -305 OFFCURVE",
"415 -334 QCURVE",
"345 -334 LINE SMOOTH",
"325 -334 OFFCURVE",
"297 -300 OFFCURVE",
"297 -277 QCURVE",
"251 -277 LINE",
"251 -298 OFFCURVE",
"266 -335 OFFCURVE",
"292 -362 OFFCURVE",
"326 -377 OFFCURVE",
"345 -377 QCURVE SMOOTH",
"446 -377 LINE SMOOTH",
"480 -377 OFFCURVE",
"526 -333 OFFCURVE",
"526 -299 QCURVE SMOOTH"
);
}
);
width = 762;
}
);
unicode = 00B8;
},
{
glyphname = ordmasculine;
layers = (
{
layerId = "36A2F76C-EA0C-4AFB-832E-E1AC112461C1";
paths = (
{
nodes = (
"23 606 LINE SMOOTH",
"23 628 OFFCURVE",
"41 668 OFFCURVE",
"73 698 OFFCURVE",
"113 716 OFFCURVE",
"136 716 QCURVE SMOOTH",
"328 716 LINE SMOOTH",
"357 716 OFFCURVE",
"410 685 OFFCURVE",
"426 659 QCURVE",
"496 589 LINE SMOOTH",
"510 575 OFFCURVE",
"528 537 OFFCURVE",
"528 516 QCURVE SMOOTH",
"528 376 LINE SMOOTH",
"528 354 OFFCURVE",
"509 315 OFFCURVE",
"479 287 OFFCURVE",
"439 270 OFFCURVE",
"418 270 QCURVE SMOOTH",
"226 270 LINE SMOOTH",
"203 270 OFFCURVE",
"162 287 OFFCURVE",
"147 303 QCURVE",
"75 374 LINE",
"52 388 OFFCURVE",
"23 437 OFFCURVE",
"23 466 QCURVE SMOOTH"
);
},
{
nodes = (
"328 655 LINE",
"356 655 OFFCURVE",
"380 619 OFFCURVE",
"380 595 QCURVE SMOOTH",
"380 478 LINE SMOOTH",
"380 453 OFFCURVE",
"356 418 OFFCURVE",
"328 418 QCURVE SMOOTH",
"264 418 LINE",
"264 654 LINE"
);
},
{
nodes = (
"58 466 LINE SMOOTH",
"58 435 OFFCURVE",
"105 392 OFFCURVE",
"136 392 QCURVE SMOOTH",
"328 392 LINE SMOOTH",
"358 392 OFFCURVE",
"406 435 OFFCURVE",
"406 466 QCURVE SMOOTH",
"406 606 LINE SMOOTH",
"406 621 OFFCURVE",
"393 649 OFFCURVE",
"371 669 OFFCURVE",
"343 681 OFFCURVE",
"328 681 QCURVE SMOOTH",
"136 681 LINE SMOOTH",
"105 681 OFFCURVE",
"58 637 OFFCURVE",
"58 606 QCURVE SMOOTH"
);
}
);
width = 555;
}
);
unicode = 00BA;
},
{
glyphname = braceleft;
layers = (
{
layerId = "36A2F76C-EA0C-4AFB-832E-E1AC112461C1";
paths = (
{
nodes = (
"424 842 LINE",
"511 755 LINE",
"511 623 LINE",
"476 624 OFFCURVE",
"440 591 OFFCURVE",
"435 573 QCURVE SMOOTH",
"433 565 OFFCURVE",
"431 541 OFFCURVE",
"431 527 QCURVE SMOOTH",
"431 495 OFFCURVE",
"434 459 QCURVE SMOOTH",
"436 439 OFFCURVE",
"438 398 OFFCURVE",
"438 379 QCURVE SMOOTH",
"438 342 OFFCURVE",
"431 315 QCURVE SMOOTH",
"421 278 OFFCURVE",
"397 253 QCURVE",
"422 228 OFFCURVE",
"431 193 QCURVE SMOOTH",
"438 166 OFFCURVE",
"438 129 QCURVE SMOOTH",
"438 110 OFFCURVE",
"436 68 OFFCURVE",
"434 48 QCURVE SMOOTH",
"431 10 OFFCURVE",
"431 -19 QCURVE SMOOTH",
"431 -35 LINE",
"511 -115 LINE",
"511 -247 LINE",
"479 -247 OFFCURVE",
"457 -248 OFFCURVE",
"448 -249 QCURVE SMOOTH",
"433 -250 OFFCURVE",
"400 -252 OFFCURVE",
"383 -252 QCURVE SMOOTH",
"340 -252 OFFCURVE",
"259 -233 OFFCURVE",
"230 -204 QCURVE SMOOTH",
"154 -128 LINE",
"137 -116 OFFCURVE",
"111 -80 OFFCURVE",
"103 -56 QCURVE SMOOTH",
"98 -39 OFFCURVE",
"94 6 OFFCURVE",
"94 29 QCURVE SMOOTH",
"94 43 OFFCURVE",
"95 74 OFFCURVE",
"96 88 QCURVE",
"96 98 OFFCURVE",
"98 123 OFFCURVE",
"98 133 QCURVE",
"97 141 OFFCURVE",
"97 169 OFFCURVE",
"98 183 QCURVE",
"30 252 LINE",
"24 252 LINE",
"24 436 LINE",
"73 436 OFFCURVE",
"80 446 QCURVE SMOOTH",
"85 454 OFFCURVE",
"95 474 OFFCURVE",
"99 484 QCURVE",
"99 492 OFFCURVE",
"98 514 OFFCURVE",
"97 535 OFFCURVE",
"97 553 OFFCURVE",
"97 558 QCURVE SMOOTH",
"97 569 OFFCURVE",
"97 588 OFFCURVE",
"96 600 QCURVE SMOOTH",
"95 614 OFFCURVE",
"94 645 OFFCURVE",
"94 659 QCURVE SMOOTH",
"94 682 OFFCURVE",
"98 727 OFFCURVE",
"103 744 QCURVE SMOOTH",
"113 776 OFFCURVE",
"153 818 OFFCURVE",
"204 843 OFFCURVE",
"263 853 OFFCURVE",
"293 853 QCURVE SMOOTH",
"304 853 OFFCURVE",
"329 852 OFFCURVE",
"340 851 QCURVE",
"344 851 OFFCURVE",
"356 850 OFFCURVE",
"361 850 QCURVE",
"369 849 OFFCURVE",
"392 848 OFFCURVE",
"424 848 QCURVE"
);
},
{
nodes = (
"389 813 LINE",
"358 814 OFFCURVE",
"279 820 OFFCURVE",
"207 809 OFFCURVE",
"148 773 OFFCURVE",
"137 734 QCURVE SMOOTH",
"127 697 OFFCURVE",
"132 596 OFFCURVE",
"132 554 QCURVE",
"133 555 LINE",
"132 551 OFFCURVE",
"132 526 OFFCURVE",
"133 500 OFFCURVE",
"134 477 OFFCURVE",
"134 476 QCURVE",
"126 452 OFFCURVE",
"90 401 OFFCURVE",
"59 401 QCURVE",
"59 287 LINE",
"90 287 OFFCURVE",
"126 236 OFFCURVE",
"134 212 QCURVE",
"134 211 OFFCURVE",
"133 188 OFFCURVE",
"132 162 OFFCURVE",
"132 137 OFFCURVE",
"133 133 QCURVE",
"132 134 LINE",
"132 92 OFFCURVE",
"127 -9 OFFCURVE",
"137 -46 QCURVE SMOOTH",
"148 -85 OFFCURVE",
"207 -121 OFFCURVE",
"279 -132 OFFCURVE",
"358 -126 OFFCURVE",
"389 -125 QCURVE",
"389 -58 LINE",
"359 -59 OFFCURVE",
"322 -10 OFFCURVE",
"315 16 QCURVE SMOOTH",
"308 39 OFFCURVE",
"311 105 OFFCURVE",
"316 180 OFFCURVE",
"317 249 OFFCURVE",
"310 275 QCURVE SMOOTH",
"299 316 OFFCURVE",
"270 334 QCURVE SMOOTH",
"261 339 OFFCURVE",
"251 344 QCURVE",
"261 348 OFFCURVE",
"270 354 QCURVE SMOOTH",
"299 372 OFFCURVE",
"310 413 QCURVE SMOOTH",
"317 439 OFFCURVE",
"316 508 OFFCURVE",
"311 583 OFFCURVE",
"308 649 OFFCURVE",
"315 672 QCURVE SMOOTH",
"322 698 OFFCURVE",
"359 747 OFFCURVE",
"389 746 QCURVE"
);
}
);
width = 540;
}
);
unicode = 007B;
},
{
glyphname = bar;
layers = (
{
layerId = "36A2F76C-EA0C-4AFB-832E-E1AC112461C1";
paths = (
{
nodes = (
"185 902 LINE",
"185 896 LINE",
"272 809 LINE",
"272 -286 LINE",
"133 -286 LINE",
"46 -199 LINE",
"40 -199 LINE",
"40 902 LINE"
);
},
{
nodes = (
"75 867 LINE",
"75 -164 LINE",
"150 -164 LINE",
"150 867 LINE"
);
}
);
width = 296;
}
);
unicode = 007C;
},
{
glyphname = braceright;
layers = (
{
layerId = "36A2F76C-EA0C-4AFB-832E-E1AC112461C1";
paths = (
{
nodes = (
"22 848 LINE",
"51 848 OFFCURVE",
"76 849 OFFCURVE",
"87 850 QCURVE",
"92 850 OFFCURVE",
"100 851 OFFCURVE",
"105 851 QCURVE",
"116 852 OFFCURVE",
"142 853 OFFCURVE",
"153 853 QCURVE SMOOTH",
"204 853 OFFCURVE",
"297 825 OFFCURVE",
"325 783 QCURVE",
"396 712 LINE SMOOTH",
"420 688 OFFCURVE",
"430 653 QCURVE SMOOTH",
"435 635 OFFCURVE",
"439 592 OFFCURVE",
"439 569 QCURVE SMOOTH",
"439 555 OFFCURVE",
"438 524 OFFCURVE",
"437 510 QCURVE SMOOTH",
"435 465 LINE",
"436 457 OFFCURVE",
"436 430 OFFCURVE",
"435 416 QCURVE",
"509 343 LINE",
"509 165 LINE",
"461 165 OFFCURVE",
"454 153 QCURVE",
"447 144 OFFCURVE",
"437 127 OFFCURVE",
"434 116 QCURVE",
"434 108 OFFCURVE",
"435 87 OFFCURVE",
"436 64 OFFCURVE",
"436 45 OFFCURVE",
"436 40 QCURVE SMOOTH",
"436 29 OFFCURVE",
"436 10 OFFCURVE",
"437 -2 QCURVE SMOOTH",
"438 -16 OFFCURVE",
"439 -47 OFFCURVE",
"439 -61 QCURVE SMOOTH",
"439 -84 OFFCURVE",
"435 -128 OFFCURVE",
"430 -145 QCURVE SMOOTH",
"420 -178 OFFCURVE",
"382 -219 OFFCURVE",
"332 -243 OFFCURVE",
"273 -252 OFFCURVE",
"243 -252 QCURVE SMOOTH",
"226 -252 OFFCURVE",
"192 -250 OFFCURVE",
"177 -249 QCURVE SMOOTH",
"168 -248 OFFCURVE",
"146 -247 OFFCURVE",
"115 -247 QCURVE",
"28 -160 LINE",
"22 -160 LINE",
"22 -22 LINE",
"57 -23 OFFCURVE",
"92 8 OFFCURVE",
"97 25 QCURVE SMOOTH",
"102 43 OFFCURVE",
"102 71 QCURVE SMOOTH",
"102 81 OFFCURVE",
"101 101 OFFCURVE",
"100 112 QCURVE",
"100 119 OFFCURVE",
"99 132 OFFCURVE",
"99 139 QCURVE",
"97 157 OFFCURVE",
"95 202 OFFCURVE",
"95 219 QCURVE SMOOTH",
"95 257 OFFCURVE",
"102 284 QCURVE SMOOTH",
"107 301 OFFCURVE",
"123 332 OFFCURVE",
"134 344 QCURVE",
"111 369 OFFCURVE",
"102 404 QCURVE SMOOTH",
"95 431 OFFCURVE",
"95 469 QCURVE SMOOTH",
"95 488 OFFCURVE",
"97 529 OFFCURVE",
"99 549 QCURVE",
"99 554 OFFCURVE",
"100 566 OFFCURVE",
"100 571 QCURVE",
"101 583 OFFCURVE",
"102 606 OFFCURVE",
"102 617 QCURVE SMOOTH",
"102 622 OFFCURVE",
"102 630 OFFCURVE",
"101 635 QCURVE",
"28 710 LINE",
"22 710 LINE"
);
},
{
nodes = (
"57 746 LINE",
"87 747 OFFCURVE",
"124 698 OFFCURVE",
"131 672 QCURVE SMOOTH",
"138 649 OFFCURVE",
"135 583 OFFCURVE",
"130 508 OFFCURVE",
"129 439 OFFCURVE",
"136 413 QCURVE SMOOTH",
"147 372 OFFCURVE",
"176 354 QCURVE SMOOTH",
"185 348 OFFCURVE",
"195 344 QCURVE",
"185 339 OFFCURVE",
"176 334 QCURVE SMOOTH",
"147 316 OFFCURVE",
"136 275 QCURVE SMOOTH",
"129 249 OFFCURVE",
"130 180 OFFCURVE",
"135 105 OFFCURVE",
"138 39 OFFCURVE",
"131 16 QCURVE SMOOTH",
"124 -10 OFFCURVE",
"87 -59 OFFCURVE",
"57 -58 QCURVE",
"57 -125 LINE",
"88 -126 OFFCURVE",
"167 -132 OFFCURVE",
"239 -121 OFFCURVE",
"298 -85 OFFCURVE",
"309 -46 QCURVE SMOOTH",
"319 -9 OFFCURVE",
"314 92 OFFCURVE",
"314 134 QCURVE",
"313 133 LINE",
"314 137 OFFCURVE",
"314 162 OFFCURVE",
"313 188 OFFCURVE",
"312 211 OFFCURVE",
"312 212 QCURVE",
"320 236 OFFCURVE",
"356 287 OFFCURVE",
"387 287 QCURVE",
"387 401 LINE",
"356 401 OFFCURVE",
"320 452 OFFCURVE",
"312 476 QCURVE",
"312 477 OFFCURVE",
"313 500 OFFCURVE",
"314 526 OFFCURVE",
"314 551 OFFCURVE",
"313 555 QCURVE",
"314 554 LINE",
"314 596 OFFCURVE",
"319 697 OFFCURVE",
"309 734 QCURVE SMOOTH",
"298 773 OFFCURVE",
"239 809 OFFCURVE",
"167 820 OFFCURVE",
"88 814 OFFCURVE",
"57 813 QCURVE"
);
}
);
width = 543;
}
);
unicode = 007D;
},
{
glyphname = asciitilde;
layers = (
{
layerId = "36A2F76C-EA0C-4AFB-832E-E1AC112461C1";
paths = (
{
nodes = (
"652 509 LINE",
"651 504 LINE",
"738 417 LINE",
"725 353 LINE SMOOTH",
"718 319 OFFCURVE",
"699 244 OFFCURVE",
"663 181 OFFCURVE",
"605 140 OFFCURVE",
"559 140 QCURVE SMOOTH",
"512 140 OFFCURVE",
"463 156 QCURVE SMOOTH",
"439 164 OFFCURVE",
"398 177 OFFCURVE",
"378 183 QCURVE",
"366 185 OFFCURVE",
"340 194 OFFCURVE",
"327 198 QCURVE SMOOTH",
"319 200 OFFCURVE",
"309 204 OFFCURVE",
"310 204 QCURVE",
"301 204 OFFCURVE",
"278 199 OFFCURVE",
"266 195 QCURVE SMOOTH",
"252 190 OFFCURVE",
"241 145 QCURVE",
"116 179 LINE",
"31 264 LINE",
"22 267 LINE",
"35 333 LINE SMOOTH",
"42 368 OFFCURVE",
"61 444 OFFCURVE",
"98 507 OFFCURVE",
"158 548 OFFCURVE",
"205 548 QCURVE SMOOTH",
"237 548 OFFCURVE",
"311 526 OFFCURVE",
"349 513 QCURVE SMOOTH",
"380 502 OFFCURVE",
"437 485 OFFCURVE",
"457 485 QCURVE SMOOTH",
"474 485 OFFCURVE",
"514 512 OFFCURVE",
"522 547 QCURVE"
);
},
{
nodes = (
"547 503 LINE",
"540 473 OFFCURVE",
"484 450 OFFCURVE",
"457 450 QCURVE SMOOTH",
"432 450 OFFCURVE",
"369 469 OFFCURVE",
"299 494 OFFCURVE",
"233 513 OFFCURVE",
"205 513 QCURVE SMOOTH",
"162 513 OFFCURVE",
"113 467 OFFCURVE",
"84 400 OFFCURVE",
"69 323 OFFCURVE",
"62 292 QCURVE",
"128 274 LINE",
"136 304 OFFCURVE",
"195 326 OFFCURVE",
"220 326 QCURVE",
"221 326 OFFCURVE",
"243 320 OFFCURVE",
"268 312 OFFCURVE",
"292 305 OFFCURVE",
"295 305 QCURVE",
"295 304 LINE",
"335 293 OFFCURVE",
"431 262 OFFCURVE",
"469 262 QCURVE SMOOTH",
"511 262 OFFCURVE",
"561 310 OFFCURVE",
"590 377 OFFCURVE",
"605 454 OFFCURVE",
"612 484 QCURVE"
);
}
);
width = 767;
}
);
unicode = 007E;
},
{
glyphname = bracketleft;
layers = (
{
layerId = "36A2F76C-EA0C-4AFB-832E-E1AC112461C1";
paths = (
{
nodes = (
"465 877 LINE",
"465 871 LINE",
"552 784 LINE",
"552 597 LINE",
"404 597 LINE",
"404 21 LINE",
"465 21 LINE",
"465 15 LINE",
"552 -72 LINE",
"552 -259 LINE",
"119 -259 LINE",
"32 -172 LINE",
"26 -172 LINE",
"26 877 LINE"
);
},
{
nodes = (
"61 842 LINE",
"61 -137 LINE",
"430 -137 LINE",
"430 -14 LINE",
"282 -14 LINE",
"282 719 LINE",
"430 719 LINE",
"430 842 LINE"
);
}
);
width = 585;
}
);
unicode = 005B;
},
{
glyphname = backslash;
layers = (
{
layerId = "36A2F76C-EA0C-4AFB-832E-E1AC112461C1";
paths = (
{
nodes = (
"155 764 LINE",
"156 756 LINE",
"242 671 LINE",
"402 -168 LINE",
"280 -168 LINE",
"193 -81 LINE",
"187 -81 LINE",
"26 764 LINE"
);
},
{
nodes = (
"68 729 LINE",
"216 -46 LINE",
"274 -46 LINE",
"126 729 LINE"
);
}
);
width = 433;
}
);
unicode = 005C;
},
{
glyphname = bracketright;
layers = (
{
layerId = "36A2F76C-EA0C-4AFB-832E-E1AC112461C1";
paths = (
{
nodes = (
"29 684 LINE",
"23 684 LINE",
"23 877 LINE",
"462 877 LINE",
"462 871 LINE",
"549 784 LINE",
"549 -259 LINE",
"116 -259 LINE",
"29 -172 LINE",
"23 -172 LINE",
"23 21 LINE",
"171 21 LINE",
"171 597 LINE",
"116 597 LINE"
);
},
{
nodes = (
"427 -137 LINE",
"427 842 LINE",
"58 842 LINE",
"58 719 LINE",
"206 719 LINE",
"206 -14 LINE",
"58 -14 LINE",
"58 -137 LINE"
);
}
);
width = 585;
}
);
unicode = 005D;
},
{
glyphname = asciicircum;
layers = (
{
layerId = "36A2F76C-EA0C-4AFB-832E-E1AC112461C1";
paths = (
{
nodes = (
"27 219 LINE",
"17 223 LINE",
"330 716 LINE",
"453 716 LINE",
"461 702 LINE",
"541 623 LINE",
"851 134 LINE",
"712 80 LINE",
"624 167 LINE",
"620 166 LINE",
"463 414 LINE",
"251 80 LINE",
"112 134 LINE"
);
},
{
nodes = (
"713 240 LINE",
"433 681 LINE",
"350 681 LINE",
"70 240 LINE",
"148 209 LINE",
"392 592 LINE",
"635 209 LINE"
);
}
);
width = 885;
}
);
unicode = 005E;
},
{
glyphname = underscore;
layers = (
{
layerId = "36A2F76C-EA0C-4AFB-832E-E1AC112461C1";
paths = (
{
nodes = (
"730 -7 LINE",
"817 -94 LINE",
"817 -233 LINE",
"122 -233 LINE",
"35 -146 LINE",
"29 -146 LINE",
"29 -1 LINE",
"730 -1 LINE"
);
},
{
nodes = (
"695 -36 LINE",
"64 -36 LINE",
"64 -111 LINE",
"695 -111 LINE"
);
}
);
width = 849;
}
);
unicode = 005F;
},
{
glyphname = questiondown;
layers = (
{
layerId = "36A2F76C-EA0C-4AFB-832E-E1AC112461C1";
paths = (
{
nodes = (
"21 280 LINE SMOOTH",
"21 326 OFFCURVE",
"50 407 OFFCURVE",
"104 467 OFFCURVE",
"181 501 OFFCURVE",
"230 501 QCURVE SMOOTH",
"246 501 LINE",
"246 586 LINE",
"247 586 LINE",
"247 733 LINE",
"626 733 LINE",
"626 727 LINE",
"713 640 LINE",
"713 485 LINE",
"712 485 LINE",
"712 245 LINE",
"834 245 LINE",
"834 239 LINE",
"921 152 LINE",
"921 105 OFFCURVE",
"895 20 OFFCURVE",
"849 -51 OFFCURVE",
"785 -101 OFFCURVE",
"747 -111 QCURVE SMOOTH",
"726 -117 OFFCURVE",
"684 -121 OFFCURVE",
"663 -121 QCURVE",
"349 -122 LINE",
"334 -122 LINE SMOOTH",
"307 -122 OFFCURVE",
"280 -116 QCURVE SMOOTH",
"216 -101 OFFCURVE",
"172 -57 QCURVE SMOOTH",
"109 5 LINE",
"69 33 OFFCURVE",
"21 119 OFFCURVE",
"21 173 QCURVE SMOOTH"
);
},
{
nodes = (
"591 698 LINE",
"282 698 LINE",
"282 607 LINE",
"591 607 LINE"
);
},
{
nodes = (
"56 173 LINE SMOOTH",
"56 141 OFFCURVE",
"77 86 OFFCURVE",
"115 42 OFFCURVE",
"167 12 OFFCURVE",
"197 5 QCURVE SMOOTH",
"208 3 OFFCURVE",
"231 0 OFFCURVE",
"244 0 QCURVE SMOOTH",
"251 0 OFFCURVE",
"289 2 OFFCURVE",
"318 2 QCURVE SMOOTH",
"382 2 OFFCURVE",
"509 1 OFFCURVE",
"573 1 QCURVE SMOOTH",
"592 1 OFFCURVE",
"630 5 OFFCURVE",
"649 10 QCURVE SMOOTH",
"682 19 OFFCURVE",
"737 58 OFFCURVE",
"777 112 OFFCURVE",
"799 176 OFFCURVE",
"799 210 QCURVE",
"729 210 LINE",
"729 181 OFFCURVE",
"707 131 OFFCURVE",
"670 94 OFFCURVE",
"619 72 OFFCURVE",
"591 72 QCURVE",
"590 551 LINE",
"281 551 LINE",
"281 466 LINE",
"230 466 LINE SMOOTH",
"189 466 OFFCURVE",
"125 437 OFFCURVE",
"80 386 OFFCURVE",
"56 319 OFFCURVE",
"56 280 QCURVE SMOOTH"
);
}
);
width = 933;
}
);
unicode = 00BF;
},
{
glyphname = multiply;
layers = (
{
layerId = "36A2F76C-EA0C-4AFB-832E-E1AC112461C1";
paths = (
{
nodes = (
"533 241 LINE",
"621 153 LINE",
"534 45 LINE",
"365 180 LINE",
"197 45 LINE",
"109 133 LINE",
"107 131 LINE",
"16 244 LINE",
"150 351 LINE",
"110 384 LINE",
"37 457 LINE",
"16 474 LINE",
"107 587 LINE",
"275 451 LINE",
"444 587 LINE",
"461 565 LINE",
"534 493 LINE",
"621 385 LINE",
"489 279 LINE",
"535 243 LINE"
);
},
{
nodes = (
"486 238 LINE",
"335 359 LINE",
"486 480 LINE",
"439 538 LINE",
"275 407 LINE",
"112 538 LINE",
"65 479 LINE",
"215 359 LINE",
"65 239 LINE",
"112 180 LINE",
"275 311 LINE",
"439 180 LINE"
);
}
);
width = 639;
}
);
unicode = 00D7;
},
{
glyphname = divide;
layers = (
{
layerId = "36A2F76C-EA0C-4AFB-832E-E1AC112461C1";
paths = (
{
nodes = (
"185 151 OFFCURVE",
"188 163 QCURVE",
"103 163 LINE",
"16 250 LINE",
"10 250 LINE",
"10 395 LINE",
"264 395 LINE",
"234 424 LINE",
"211 437 OFFCURVE",
"185 482 OFFCURVE",
"185 511 QCURVE SMOOTH",
"185 553 OFFCURVE",
"242 611 OFFCURVE",
"284 611 QCURVE SMOOTH",
"311 611 OFFCURVE",
"355 585 OFFCURVE",
"369 563 QCURVE",
"443 490 LINE",
"456 476 OFFCURVE",
"471 441 OFFCURVE",
"471 421 QCURVE SMOOTH",
"471 414 OFFCURVE",
"469 401 OFFCURVE",
"467 395 QCURVE",
"559 395 LINE",
"559 389 LINE",
"646 302 LINE",
"646 163 LINE",
"397 163 LINE",
"443 117 LINE",
"456 103 OFFCURVE",
"471 68 OFFCURVE",
"471 48 QCURVE SMOOTH",
"471 7 OFFCURVE",
"415 -48 OFFCURVE",
"374 -48 QCURVE SMOOTH",
"354 -48 OFFCURVE",
"319 -33 OFFCURVE",
"306 -20 QCURVE SMOOTH",
"234 51 LINE",
"211 64 OFFCURVE",
"185 109 OFFCURVE",
"185 138 QCURVE SMOOTH"
);
},
{
nodes = (
"220 484 OFFCURVE",
"257 447 OFFCURVE",
"284 447 QCURVE SMOOTH",
"311 447 OFFCURVE",
"349 484 OFFCURVE",
"349 511 QCURVE SMOOTH",
"349 538 OFFCURVE",
"311 576 OFFCURVE",
"284 576 QCURVE SMOOTH",
"257 576 OFFCURVE",
"220 538 OFFCURVE",
"220 511 QCURVE SMOOTH"
);
},
{
nodes = (
"220 111 OFFCURVE",
"257 74 OFFCURVE",
"284 74 QCURVE SMOOTH",
"311 74 OFFCURVE",
"349 111 OFFCURVE",
"349 138 QCURVE SMOOTH",
"349 165 OFFCURVE",
"311 203 OFFCURVE",
"284 203 QCURVE SMOOTH",
"257 203 OFFCURVE",
"220 165 OFFCURVE",
"220 138 QCURVE SMOOTH"
);
},
{
nodes = (
"524 360 LINE",
"45 360 LINE",
"45 285 LINE",
"524 285 LINE"
);
}
);
width = 673;
}
);
unicode = 00F7;
},
{
glyphname = oslash;
layers = (
{
layerId = "36A2F76C-EA0C-4AFB-832E-E1AC112461C1";
paths = (
{
nodes = (
"105 10 LINE",
"59 43 OFFCURVE",
"5 146 OFFCURVE",
"5 208 QCURVE SMOOTH",
"5 486 LINE SMOOTH",
"5 537 OFFCURVE",
"43 626 OFFCURVE",
"109 692 OFFCURVE",
"197 730 OFFCURVE",
"248 730 QCURVE SMOOTH",
"457 730 LINE SMOOTH",
"477 730 OFFCURVE",
"514 723 OFFCURVE",
"532 718 QCURVE",
"541 764 LINE",
"670 764 LINE",
"669 758 LINE",
"756 671 LINE",
"732 548 LINE",
"758 517 OFFCURVE",
"787 440 OFFCURVE",
"787 396 QCURVE SMOOTH",
"787 111 LINE SMOOTH",
"787 70 OFFCURVE",
"759 -2 OFFCURVE",
"709 -61 OFFCURVE",
"643 -104 OFFCURVE",
"606 -114 QCURVE",
"596 -168 LINE",
"474 -168 LINE",
"428 -122 LINE",
"338 -122 LINE SMOOTH",
"287 -122 OFFCURVE",
"200 -84 OFFCURVE",
"168 -52 QCURVE SMOOTH"
);
},
{
nodes = (
"665 486 LINE SMOOTH",
"665 529 OFFCURVE",
"648 567 QCURVE SMOOTH",
"633 601 OFFCURVE",
"609 628 QCURVE",
"628 729 LINE",
"570 729 LINE",
"558 668 LINE",
"549 674 OFFCURVE",
"538 678 QCURVE",
"500 695 OFFCURVE",
"457 695 QCURVE SMOOTH",
"248 695 LINE SMOOTH",
"205 695 OFFCURVE",
"129 662 OFFCURVE",
"73 605 OFFCURVE",
"40 529 OFFCURVE",
"40 486 QCURVE SMOOTH",
"40 208 LINE SMOOTH",
"40 165 OFFCURVE",
"73 89 OFFCURVE",
"129 33 OFFCURVE",
"205 0 OFFCURVE",
"248 0 QCURVE SMOOTH",
"431 0 LINE",
"422 -46 LINE",
"480 -46 LINE",
"489 2 LINE",
"512 6 OFFCURVE",
"535 16 QCURVE SMOOTH",
"573 32 OFFCURVE",
"630 86 OFFCURVE",
"665 159 OFFCURVE",
"665 201 QCURVE SMOOTH"
);
},
{
nodes = (
"457 625 LINE",
"486 625 OFFCURVE",
"511 614 QCURVE SMOOTH",
"530 606 OFFCURVE",
"544 594 QCURVE",
"457 136 LINE"
);
},
{
nodes = (
"596 232 LINE SMOOTH",
"596 199 OFFCURVE",
"580 139 OFFCURVE",
"546 95 OFFCURVE",
"520 82 QCURVE SMOOTH",
"512 78 OFFCURVE",
"503 75 QCURVE",
"590 528 LINE",
"596 508 OFFCURVE",
"596 486 QCURVE SMOOTH"
);
}
);
width = 706;
}
);
unicode = 00F8;
},
{
glyphname = AE;
layers = (
{
layerId = "36A2F76C-EA0C-4AFB-832E-E1AC112461C1";
paths = (
{
nodes = (
"434 174 LINE",
"434 241 LINE",
"390 174 LINE"
);
},
{
nodes = (
"444 730 LINE",
"1095 730 LINE",
"1095 724 LINE",
"1182 637 LINE",
"1182 503 LINE",
"1009 503 LINE",
"1009 452 LINE",
"1095 452 LINE",
"1095 446 LINE",
"1182 359 LINE",
"1182 225 LINE",
"1009 225 LINE",
"1009 104 LINE",
"1095 104 LINE",
"1095 98 LINE",
"1182 11 LINE",
"1182 -122 LINE",
"527 -122 LINE",
"458 -53 LINE",
"244 -53 LINE",
"195 -122 LINE",
"51 -122 LINE",
"-36 -35 LINE",
"-45 -35 LINE"
);
},
{
nodes = (
"469 583 LINE",
"469 139 LINE",
"181 139 LINE"
);
},
{
nodes = (
"19 0 LINE",
"89 0 LINE",
"138 69 LINE",
"469 69 LINE",
"469 0 LINE",
"1060 0 LINE",
"1060 69 LINE",
"887 69 LINE",
"887 347 LINE",
"1060 347 LINE",
"1060 417 LINE",
"887 417 LINE",
"887 625 LINE",
"1060 625 LINE",
"1060 695 LINE",
"463 695 LINE"
);
}
);
width = 1084;
}
);
unicode = 00C6;
},
{
glyphname = ae;
layers = (
{
layerId = "36A2F76C-EA0C-4AFB-832E-E1AC112461C1";
paths = (
{
nodes = (
"434 174 LINE",
"434 241 LINE",
"390 174 LINE"
);
},
{
nodes = (
"444 730 LINE",
"1095 730 LINE",
"1095 724 LINE",
"1182 637 LINE",
"1182 503 LINE",
"1009 503 LINE",
"1009 452 LINE",
"1095 452 LINE",
"1095 446 LINE",
"1182 359 LINE",
"1182 225 LINE",
"1009 225 LINE",
"1009 104 LINE",
"1095 104 LINE",
"1095 98 LINE",
"1182 11 LINE",
"1182 -122 LINE",
"527 -122 LINE",
"458 -53 LINE",
"244 -53 LINE",
"195 -122 LINE",
"51 -122 LINE",
"-36 -35 LINE",
"-45 -35 LINE"
);
},
{
nodes = (
"469 583 LINE",
"469 139 LINE",
"181 139 LINE"
);
},
{
nodes = (
"19 0 LINE",
"89 0 LINE",
"138 69 LINE",
"469 69 LINE",
"469 0 LINE",
"1060 0 LINE",
"1060 69 LINE",
"887 69 LINE",
"887 347 LINE",
"1060 347 LINE",
"1060 417 LINE",
"887 417 LINE",
"887 625 LINE",
"1060 625 LINE",
"1060 695 LINE",
"463 695 LINE"
);
}
);
width = 1084;
}
);
unicode = 00E6;
},
{
glyphname = eth;
layers = (
{
layerId = "36A2F76C-EA0C-4AFB-832E-E1AC112461C1";
paths = (
{
nodes = (
"621 475 LINE",
"621 477 OFFCURVE",
"620 477 QCURVE"
);
},
{
nodes = (
"14 -35 LINE",
"8 -35 LINE",
"8 730 LINE",
"460 730 LINE SMOOTH",
"522 730 OFFCURVE",
"626 675 OFFCURVE",
"659 628 QCURVE",
"721 566 LINE SMOOTH",
"753 534 OFFCURVE",
"791 447 OFFCURVE",
"791 397 QCURVE SMOOTH",
"791 313 LINE SMOOTH",
"791 291 OFFCURVE",
"792 248 OFFCURVE",
"792 225 QCURVE SMOOTH",
"792 168 LINE SMOOTH",
"792 154 OFFCURVE",
"791 123 OFFCURVE",
"790 109 QCURVE SMOOTH",
"787 61 OFFCURVE",
"749 -23 OFFCURVE",
"685 -86 OFFCURVE",
"599 -122 OFFCURVE",
"550 -122 QCURVE SMOOTH",
"101 -122 LINE"
);
},
{
nodes = (
"460 626 LINE",
"488 626 OFFCURVE",
"539 604 OFFCURVE",
"577 566 OFFCURVE",
"599 515 OFFCURVE",
"599 487 QCURVE SMOOTH",
"599 227 LINE SMOOTH",
"599 194 OFFCURVE",
"582 136 OFFCURVE",
"547 94 OFFCURVE",
"495 69 OFFCURVE",
"460 69 QCURVE",
"460 307 LINE",
"551 307 LINE",
"551 381 LINE",
"460 381 LINE"
);
},
{
nodes = (
"670 315 LINE SMOOTH",
"670 360 OFFCURVE",
"669 444 OFFCURVE",
"669 487 QCURVE SMOOTH",
"669 530 OFFCURVE",
"636 606 OFFCURVE",
"579 662 OFFCURVE",
"503 695 OFFCURVE",
"460 695 QCURVE SMOOTH",
"43 695 LINE",
"43 0 LINE",
"460 0 LINE SMOOTH",
"503 0 OFFCURVE",
"577 31 OFFCURVE",
"633 86 OFFCURVE",
"666 159 OFFCURVE",
"668 201 QCURVE SMOOTH",
"669 215 OFFCURVE",
"670 244 OFFCURVE",
"670 258 QCURVE SMOOTH",
"670 264 LINE",
"670 266 LINE",
"670 273 LINE",
"670 275 LINE",
"670 277 LINE",
"670 279 LINE",
"670 281 LINE",
"670 282 LINE",
"670 284 LINE",
"670 286 LINE"
);
}
);
width = 706;
}
);
unicode = 00F0;
},
{
glyphname = Eth;
layers = (
{
layerId = "36A2F76C-EA0C-4AFB-832E-E1AC112461C1";
paths = (
{
nodes = (
"621 475 LINE",
"621 477 OFFCURVE",
"620 477 QCURVE"
);
},
{
nodes = (
"14 -35 LINE",
"8 -35 LINE",
"8 730 LINE",
"460 730 LINE SMOOTH",
"522 730 OFFCURVE",
"626 675 OFFCURVE",
"659 628 QCURVE",
"721 566 LINE SMOOTH",
"753 534 OFFCURVE",
"791 447 OFFCURVE",
"791 397 QCURVE SMOOTH",
"791 313 LINE SMOOTH",
"791 291 OFFCURVE",
"792 248 OFFCURVE",
"792 225 QCURVE SMOOTH",
"792 168 LINE SMOOTH",
"792 154 OFFCURVE",
"791 123 OFFCURVE",
"790 109 QCURVE SMOOTH",
"787 61 OFFCURVE",
"749 -23 OFFCURVE",
"685 -86 OFFCURVE",
"599 -122 OFFCURVE",
"550 -122 QCURVE SMOOTH",
"101 -122 LINE"
);
},
{
nodes = (
"460 626 LINE",
"488 626 OFFCURVE",
"539 604 OFFCURVE",
"577 566 OFFCURVE",
"599 515 OFFCURVE",
"599 487 QCURVE SMOOTH",
"599 227 LINE SMOOTH",
"599 194 OFFCURVE",
"582 136 OFFCURVE",
"547 94 OFFCURVE",
"495 69 OFFCURVE",
"460 69 QCURVE",
"460 307 LINE",
"551 307 LINE",
"551 381 LINE",
"460 381 LINE"
);
},
{
nodes = (
"670 315 LINE SMOOTH",
"670 360 OFFCURVE",
"669 444 OFFCURVE",
"669 487 QCURVE SMOOTH",
"669 530 OFFCURVE",
"636 606 OFFCURVE",
"579 662 OFFCURVE",
"503 695 OFFCURVE",
"460 695 QCURVE SMOOTH",
"43 695 LINE",
"43 0 LINE",
"460 0 LINE SMOOTH",
"503 0 OFFCURVE",
"577 31 OFFCURVE",
"633 86 OFFCURVE",
"666 159 OFFCURVE",
"668 201 QCURVE SMOOTH",
"669 215 OFFCURVE",
"670 244 OFFCURVE",
"670 258 QCURVE SMOOTH",
"670 264 LINE",
"670 266 LINE",
"670 273 LINE",
"670 275 LINE",
"670 277 LINE",
"670 279 LINE",
"670 281 LINE",
"670 282 LINE",
"670 284 LINE",
"670 286 LINE"
);
}
);
width = 706;
}
);
unicode = 00D0;
},
{
glyphname = Euro;
layers = (
{
layerId = "36A2F76C-EA0C-4AFB-832E-E1AC112461C1";
paths = (
{
nodes = (
"27 180 LINE",
"21 180 LINE",
"21 325 LINE",
"67 325 LINE",
"27 365 LINE",
"21 365 LINE",
"21 510 LINE",
"101 510 LINE",
"105 556 OFFCURVE",
"147 636 OFFCURVE",
"211 696 OFFCURVE",
"295 730 OFFCURVE",
"343 730 QCURVE SMOOTH",
"782 730 LINE",
"782 724 LINE",
"869 637 LINE",
"869 503 LINE",
"782 503 LINE",
"869 417 LINE",
"869 278 LINE",
"823 278 LINE",
"869 232 LINE",
"869 93 LINE",
"787 93 LINE",
"869 11 LINE",
"869 -122 LINE",
"433 -122 LINE SMOOTH",
"382 -122 OFFCURVE",
"295 -84 OFFCURVE",
"263 -52 QCURVE SMOOTH",
"200 10 LINE",
"155 43 OFFCURVE",
"128 93 QCURVE",
"114 93 LINE"
);
},
{
nodes = (
"442 215 LINE",
"747 215 LINE",
"747 290 LINE",
"442 290 LINE",
"442 400 LINE",
"747 400 LINE",
"747 475 LINE",
"442 475 LINE",
"442 627 LINE",
"747 625 LINE",
"747 695 LINE",
"343 695 LINE SMOOTH",
"300 695 OFFCURVE",
"224 662 OFFCURVE",
"168 605 OFFCURVE",
"135 529 OFFCURVE",
"135 486 QCURVE SMOOTH",
"135 475 LINE",
"56 475 LINE",
"56 400 LINE",
"135 400 LINE",
"135 290 LINE",
"56 290 LINE",
"56 215 LINE",
"135 215 LINE",
"135 208 LINE SMOOTH",
"135 165 OFFCURVE",
"168 89 OFFCURVE",
"224 33 OFFCURVE",
"300 0 OFFCURVE",
"343 0 QCURVE SMOOTH",
"747 0 LINE",
"747 69 LINE",
"442 69 LINE"
);
}
);
width = 907;
}
);
unicode = 20AC;
},
{
glyphname = trademark;
layers = (
{
layerId = "36A2F76C-EA0C-4AFB-832E-E1AC112461C1";
paths = (
{
nodes = (
"583 716 LINE",
"588 706 LINE",
"612 681 LINE",
"627 716 LINE",
"864 716 LINE",
"864 710 LINE",
"951 623 LINE",
"951 262 LINE",
"708 262 LINE",
"683 287 LINE",
"683 262 LINE",
"440 262 LINE",
"417 285 LINE",
"417 262 LINE",
"176 262 LINE",
"89 349 LINE",
"83 349 LINE",
"83 562 LINE",
"29 616 LINE",
"23 616 LINE",
"23 716 LINE"
);
},
{
nodes = (
"650 681 LINE",
"639 656 OFFCURVE",
"617 607 OFFCURVE",
"606 582 QCURVE",
"561 681 LINE",
"382 681 LINE",
"382 384 LINE",
"561 384 LINE",
"561 615 LINE",
"606 516 LINE",
"650 615 LINE",
"650 384 LINE",
"829 384 LINE",
"829 681 LINE"
);
},
{
nodes = (
"58 681 LINE",
"58 651 LINE",
"118 651 LINE",
"118 384 LINE",
"295 384 LINE",
"295 651 LINE",
"355 651 LINE",
"355 681 LINE"
);
}
);
width = 974;
}
);
unicode = 2122;
},
{
glyphname = ellipsis;
layers = (
{
layerId = "36A2F76C-EA0C-4AFB-832E-E1AC112461C1";
paths = (
{
nodes = (
"559 139 LINE",
"646 52 LINE",
"646 -120 LINE",
"474 -120 LINE",
"469 -115 LINE",
"469 -120 LINE",
"297 -120 LINE",
"292 -115 LINE",
"292 -120 LINE",
"120 -120 LINE",
"33 -33 LINE",
"27 -33 LINE",
"27 145 LINE",
"559 145 LINE"
);
},
{
nodes = (
"524 110 LINE",
"416 110 LINE",
"416 2 LINE",
"524 2 LINE"
);
},
{
nodes = (
"347 110 LINE",
"239 110 LINE",
"239 2 LINE",
"347 2 LINE"
);
},
{
nodes = (
"170 110 LINE",
"62 110 LINE",
"62 2 LINE",
"170 2 LINE"
);
}
);
width = 683;
}
);
unicode = 2026;
},
{
glyphname = guilsinglleft;
layers = (
{
layerId = "36A2F76C-EA0C-4AFB-832E-E1AC112461C1";
paths = (
{
nodes = (
"573 115 LINE",
"661 28 LINE",
"605 -110 LINE",
"118 201 LINE",
"39 280 LINE",
"25 289 LINE",
"25 410 LINE",
"516 724 LINE",
"520 714 LINE",
"605 629 LINE",
"660 490 LINE",
"327 277 LINE",
"349 264 LINE",
"575 120 LINE"
);
},
{
nodes = (
"531 106 LINE",
"148 349 LINE",
"531 593 LINE",
"499 671 LINE",
"60 391 LINE",
"60 308 LINE",
"499 28 LINE"
);
}
);
width = 686;
}
);
unicode = 2039;
},
{
glyphname = guilsinglright;
layers = (
{
layerId = "36A2F76C-EA0C-4AFB-832E-E1AC112461C1";
paths = (
{
nodes = (
"13 121 LINE",
"350 334 LINE",
"107 490 LINE",
"30 567 LINE",
"13 578 LINE",
"70 724 LINE",
"563 411 LINE",
"563 406 LINE",
"650 319 LINE",
"650 200 LINE",
"161 -110 LINE",
"73 -22 LINE",
"70 -25 LINE"
);
},
{
nodes = (
"87 28 LINE",
"528 308 LINE",
"528 391 LINE",
"87 671 LINE",
"56 593 LINE",
"439 349 LINE",
"56 106 LINE"
);
}
);
width = 693;
}
);
unicode = 203A;
},
{
glyphname = minus;
layers = (
{
layerId = "36A2F76C-EA0C-4AFB-832E-E1AC112461C1";
paths = (
{
nodes = (
"564 389 LINE",
"651 302 LINE",
"651 163 LINE",
"108 163 LINE",
"21 250 LINE",
"15 250 LINE",
"15 395 LINE",
"564 395 LINE"
);
},
{
nodes = (
"529 360 LINE",
"50 360 LINE",
"50 285 LINE",
"529 285 LINE"
);
}
);
width = 672;
}
);
unicode = 2212;
},
{
glyphname = germandbls;
layers = (
{
layerId = "36A2F76C-EA0C-4AFB-832E-E1AC112461C1";
paths = (
{
nodes = (
"613 196 LINE",
"613 198 OFFCURVE",
"612 198 QCURVE"
);
},
{
nodes = (
"708 293 LINE",
"709 293 OFFCURVE",
"709 292 QCURVE"
);
},
{
nodes = (
"550 243 LINE",
"549 243 OFFCURVE",
"549 245 QCURVE",
"488 305 LINE"
);
},
{
nodes = (
"-4 -35 LINE",
"-10 -35 LINE",
"-10 486 LINE SMOOTH",
"-10 537 OFFCURVE",
"28 626 OFFCURVE",
"94 692 OFFCURVE",
"182 730 OFFCURVE",
"233 730 QCURVE SMOOTH",
"452 730 LINE SMOOTH",
"506 730 OFFCURVE",
"595 683 OFFCURVE",
"623 642 QCURVE",
"688 578 LINE SMOOTH",
"716 550 OFFCURVE",
"748 475 OFFCURVE",
"748 430 QCURVE SMOOTH",
"748 356 OFFCURVE",
"701 300 QCURVE",
"709 292 LINE",
"717 285 LINE",
"783 219 OFFCURVE",
"783 120 QCURVE SMOOTH",
"783 70 OFFCURVE",
"746 -18 OFFCURVE",
"681 -84 OFFCURVE",
"593 -122 OFFCURVE",
"542 -122 QCURVE SMOOTH",
"83 -122 LINE"
);
},
{
nodes = (
"556 476 OFFCURVE",
"497 417 OFFCURVE",
"452 417 QCURVE",
"452 625 LINE",
"497 625 OFFCURVE",
"556 566 OFFCURVE",
"556 521 QCURVE SMOOTH"
);
},
{
nodes = (
"591 179 OFFCURVE",
"569 128 OFFCURVE",
"532 91 OFFCURVE",
"481 69 OFFCURVE",
"452 69 QCURVE",
"452 347 LINE",
"481 347 OFFCURVE",
"532 325 OFFCURVE",
"569 288 OFFCURVE",
"591 237 OFFCURVE",
"591 208 QCURVE SMOOTH"
);
},
{
nodes = (
"592 411 OFFCURVE",
"626 480 OFFCURVE",
"626 520 QCURVE SMOOTH",
"626 557 OFFCURVE",
"599 621 OFFCURVE",
"552 668 OFFCURVE",
"489 695 OFFCURVE",
"452 695 QCURVE SMOOTH",
"233 695 LINE SMOOTH",
"190 695 OFFCURVE",
"114 662 OFFCURVE",
"58 605 OFFCURVE",
"25 529 OFFCURVE",
"25 486 QCURVE SMOOTH",
"25 0 LINE",
"233 0 LINE",
"132 0 LINE",
"140 0 LINE",
"452 0 LINE SMOOTH",
"496 0 OFFCURVE",
"573 33 OFFCURVE",
"629 90 OFFCURVE",
"661 166 OFFCURVE",
"661 210 QCURVE SMOOTH",
"661 267 OFFCURVE",
"609 357 OFFCURVE",
"561 386 QCURVE"
);
}
);
width = 687;
}
);
unicode = 00DF;
},
{
glyphname = Germandbls;
layers = (
{
layerId = "36A2F76C-EA0C-4AFB-832E-E1AC112461C1";
paths = (
{
nodes = (
"613 196 LINE",
"613 198 OFFCURVE",
"612 198 QCURVE"
);
},
{
nodes = (
"708 293 LINE",
"709 293 OFFCURVE",
"709 292 QCURVE"
);
},
{
nodes = (
"550 243 LINE",
"549 243 OFFCURVE",
"549 245 QCURVE",
"488 305 LINE"
);
},
{
nodes = (
"-4 -35 LINE",
"-10 -35 LINE",
"-10 486 LINE SMOOTH",
"-10 537 OFFCURVE",
"28 626 OFFCURVE",
"94 692 OFFCURVE",
"182 730 OFFCURVE",
"233 730 QCURVE SMOOTH",
"452 730 LINE SMOOTH",
"506 730 OFFCURVE",
"595 683 OFFCURVE",
"623 642 QCURVE",
"688 578 LINE SMOOTH",
"716 550 OFFCURVE",
"748 475 OFFCURVE",
"748 430 QCURVE SMOOTH",
"748 356 OFFCURVE",
"701 300 QCURVE",
"709 292 LINE",
"717 285 LINE",
"783 219 OFFCURVE",
"783 120 QCURVE SMOOTH",
"783 70 OFFCURVE",
"746 -18 OFFCURVE",
"681 -84 OFFCURVE",
"593 -122 OFFCURVE",
"542 -122 QCURVE SMOOTH",
"83 -122 LINE"
);
},
{
nodes = (
"556 476 OFFCURVE",
"497 417 OFFCURVE",
"452 417 QCURVE",
"452 625 LINE",
"497 625 OFFCURVE",
"556 566 OFFCURVE",
"556 521 QCURVE SMOOTH"
);
},
{
nodes = (
"591 179 OFFCURVE",
"569 128 OFFCURVE",
"532 91 OFFCURVE",
"481 69 OFFCURVE",
"452 69 QCURVE",
"452 347 LINE",
"481 347 OFFCURVE",
"532 325 OFFCURVE",
"569 288 OFFCURVE",
"591 237 OFFCURVE",
"591 208 QCURVE SMOOTH"
);
},
{
nodes = (
"592 411 OFFCURVE",
"626 480 OFFCURVE",
"626 520 QCURVE SMOOTH",
"626 557 OFFCURVE",
"599 621 OFFCURVE",
"552 668 OFFCURVE",
"489 695 OFFCURVE",
"452 695 QCURVE SMOOTH",
"233 695 LINE SMOOTH",
"190 695 OFFCURVE",
"114 662 OFFCURVE",
"58 605 OFFCURVE",
"25 529 OFFCURVE",
"25 486 QCURVE SMOOTH",
"25 0 LINE",
"233 0 LINE",
"132 0 LINE",
"140 0 LINE",
"452 0 LINE SMOOTH",
"496 0 OFFCURVE",
"573 33 OFFCURVE",
"629 90 OFFCURVE",
"661 166 OFFCURVE",
"661 210 QCURVE SMOOTH",
"661 267 OFFCURVE",
"609 357 OFFCURVE",
"561 386 QCURVE"
);
}
);
width = 687;
}
);
},
{
glyphname = uni0327;
layers = (
{
layerId = "36A2F76C-EA0C-4AFB-832E-E1AC112461C1";
paths = (
{
nodes = (
"525 -173 LINE",
"531 -178 OFFCURVE",
"540 -191 OFFCURVE",
"545 -198 QCURVE",
"616 -269 LINE SMOOTH",
"648 -301 OFFCURVE",
"648 -347 QCURVE SMOOTH",
"648 -389 LINE SMOOTH",
"648 -437 OFFCURVE",
"584 -499 OFFCURVE",
"536 -499 QCURVE SMOOTH",
"435 -499 LINE SMOOTH",
"392 -499 OFFCURVE",
"358 -465 QCURVE SMOOTH",
"287 -394 LINE",
"255 -373 OFFCURVE",
"216 -293 OFFCURVE",
"216 -242 QCURVE",
"274 -242 LINE",
"274 -72 LINE",
"438 -72 LINE",
"438 -78 LINE",
"525 -165 LINE"
);
},
{
nodes = (
"526 -257 LINE SMOOTH",
"526 -224 OFFCURVE",
"480 -178 OFFCURVE",
"446 -178 QCURVE SMOOTH",
"403 -178 LINE",
"403 -107 LINE",
"309 -107 LINE",
"309 -213 LINE",
"416 -213 LINE",
"416 -242 OFFCURVE",
"415 -305 OFFCURVE",
"415 -334 QCURVE",
"345 -334 LINE SMOOTH",
"325 -334 OFFCURVE",
"297 -300 OFFCURVE",
"297 -277 QCURVE",
"251 -277 LINE",
"251 -298 OFFCURVE",
"266 -335 OFFCURVE",
"292 -362 OFFCURVE",
"326 -377 OFFCURVE",
"345 -377 QCURVE SMOOTH",
"446 -377 LINE SMOOTH",
"480 -377 OFFCURVE",
"526 -333 OFFCURVE",
"526 -299 QCURVE SMOOTH"
);
}
);
width = 762;
}
);
unicode = 0327;
},
{
glyphname = uni0326;
layers = (
{
layerId = "36A2F76C-EA0C-4AFB-832E-E1AC112461C1";
paths = (
{
nodes = (
"169 -98 LINE",
"347 -98 LINE",
"347 -104 LINE",
"434 -191 LINE",
"434 -332 LINE",
"262 -438 LINE",
"174 -351 LINE",
"169 -354 LINE"
);
},
{
nodes = (
"204 -291 LINE",
"312 -224 LINE",
"312 -133 LINE",
"204 -133 LINE"
);
}
);
width = 510;
}
);
unicode = 0326;
},
{
glyphname = uni0328;
layers = (
{
layerId = "36A2F76C-EA0C-4AFB-832E-E1AC112461C1";
paths = (
{
nodes = (
"216 -256 LINE SMOOTH",
"216 -232 OFFCURVE",
"234 -190 OFFCURVE",
"265 -160 OFFCURVE",
"307 -142 OFFCURVE",
"331 -142 QCURVE SMOOTH",
"339 -142 LINE",
"339 -71 LINE",
"503 -71 LINE",
"503 -77 LINE",
"590 -164 LINE",
"590 -276 LINE",
"648 -334 LINE",
"648 -369 OFFCURVE",
"628 -429 OFFCURVE",
"593 -473 OFFCURVE",
"547 -498 OFFCURVE",
"522 -498 QCURVE SMOOTH",
"421 -498 LINE SMOOTH",
"372 -498 OFFCURVE",
"340 -466 QCURVE SMOOTH",
"267 -393 LINE",
"244 -379 OFFCURVE",
"216 -329 OFFCURVE",
"216 -298 QCURVE SMOOTH"
);
},
{
nodes = (
"251 -298 LINE SMOOTH",
"251 -332 OFFCURVE",
"297 -376 OFFCURVE",
"331 -376 QCURVE SMOOTH",
"432 -376 LINE SMOOTH",
"451 -376 OFFCURVE",
"485 -361 OFFCURVE",
"511 -334 OFFCURVE",
"526 -297 OFFCURVE",
"526 -276 QCURVE",
"480 -276 LINE",
"480 -299 OFFCURVE",
"452 -333 OFFCURVE",
"432 -333 QCURVE SMOOTH",
"362 -333 LINE",
"362 -304 OFFCURVE",
"361 -241 OFFCURVE",
"361 -212 QCURVE",
"468 -212 LINE",
"468 -106 LINE",
"374 -106 LINE",
"374 -177 LINE",
"331 -177 LINE SMOOTH",
"297 -177 OFFCURVE",
"251 -223 OFFCURVE",
"251 -256 QCURVE SMOOTH"
);
}
);
width = 687;
}
);
unicode = 0328;
},
{
glyphname = uni030C.alt;
layers = (
{
layerId = "36A2F76C-EA0C-4AFB-832E-E1AC112461C1";
paths = (
{
nodes = (
"224 789 LINE",
"219 789 LINE",
"128 1018 LINE",
"275 1076 LINE",
"286 1059 LINE",
"361 984 LINE",
"423 1076 LINE",
"569 1018 LINE",
"567 1013 LINE",
"655 926 LINE",
"566 702 LINE",
"311 702 LINE"
);
},
{
nodes = (
"348 901 LINE",
"260 1032 LINE",
"174 998 LINE",
"243 824 LINE",
"454 824 LINE",
"523 998 LINE",
"437 1032 LINE"
);
}
);
width = 739;
}
);
},
{
glyphname = uni030A;
layers = (
{
layerId = "36A2F76C-EA0C-4AFB-832E-E1AC112461C1";
paths = (
{
nodes = (
"279 804 LINE",
"250 822 OFFCURVE",
"214 884 OFFCURVE",
"214 921 QCURVE SMOOTH",
"214 950 OFFCURVE",
"235 1000 OFFCURVE",
"273 1036 OFFCURVE",
"323 1057 OFFCURVE",
"352 1057 QCURVE SMOOTH",
"388 1057 OFFCURVE",
"450 1022 OFFCURVE",
"469 993 QCURVE",
"538 924 LINE SMOOTH",
"556 906 OFFCURVE",
"577 858 OFFCURVE",
"577 831 QCURVE SMOOTH",
"577 804 OFFCURVE",
"555 755 OFFCURVE",
"518 718 OFFCURVE",
"469 696 OFFCURVE",
"442 696 QCURVE SMOOTH",
"414 696 OFFCURVE",
"365 718 OFFCURVE",
"347 736 QCURVE SMOOTH"
);
},
{
nodes = (
"375 968 OFFCURVE",
"403 942 OFFCURVE",
"403 922 QCURVE SMOOTH",
"403 905 OFFCURVE",
"375 876 OFFCURVE",
"355 876 QCURVE SMOOTH",
"333 876 OFFCURVE",
"306 905 OFFCURVE",
"306 922 QCURVE SMOOTH",
"306 942 OFFCURVE",
"333 968 OFFCURVE",
"355 968 QCURVE SMOOTH"
);
},
{
nodes = (
"373 818 OFFCURVE",
"410 834 OFFCURVE",
"438 863 OFFCURVE",
"455 900 OFFCURVE",
"455 921 QCURVE SMOOTH",
"455 942 OFFCURVE",
"438 979 OFFCURVE",
"410 1006 OFFCURVE",
"373 1022 OFFCURVE",
"352 1022 QCURVE SMOOTH",
"309 1022 OFFCURVE",
"249 964 OFFCURVE",
"249 921 QCURVE SMOOTH",
"249 900 OFFCURVE",
"265 863 OFFCURVE",
"293 834 OFFCURVE",
"331 818 OFFCURVE",
"352 818 QCURVE SMOOTH"
);
}
);
width = 703;
}
);
unicode = 030A;
},
{
glyphname = uni0304;
layers = (
{
layerId = "36A2F76C-EA0C-4AFB-832E-E1AC112461C1";
paths = (
{
nodes = (
"61 970 LINE",
"532 970 LINE",
"532 964 LINE",
"619 877 LINE",
"619 702 LINE",
"154 702 LINE",
"67 789 LINE",
"61 789 LINE"
);
},
{
nodes = (
"96 824 LINE",
"497 824 LINE",
"497 935 LINE",
"96 935 LINE"
);
}
);
width = 587;
}
);
unicode = 0304;
},
{
glyphname = tildecomb;
layers = (
{
layerId = "36A2F76C-EA0C-4AFB-832E-E1AC112461C1";
paths = (
{
nodes = (
"582 998 LINE",
"580 993 LINE",
"668 906 LINE",
"654 853 LINE",
"649 829 OFFCURVE",
"635 775 OFFCURVE",
"608 731 OFFCURVE",
"565 702 OFFCURVE",
"531 702 QCURVE SMOOTH",
"510 702 OFFCURVE",
"461 714 OFFCURVE",
"438 722 QCURVE SMOOTH",
"429 725 OFFCURVE",
"414 728 OFFCURVE",
"406 731 QCURVE SMOOTH",
"398 733 OFFCURVE",
"378 739 OFFCURVE",
"370 741 QCURVE SMOOTH",
"364 742 OFFCURVE",
"362 744 QCURVE",
"361 745 LINE",
"352 744 OFFCURVE",
"329 726 OFFCURVE",
"323 703 QCURVE",
"219 730 LINE",
"133 816 LINE",
"125 818 LINE",
"135 873 LINE SMOOTH",
"140 898 OFFCURVE",
"154 954 OFFCURVE",
"181 999 OFFCURVE",
"226 1029 OFFCURVE",
"262 1029 QCURVE SMOOTH",
"284 1029 OFFCURVE",
"338 1013 OFFCURVE",
"363 1005 QCURVE SMOOTH",
"383 998 OFFCURVE",
"422 986 OFFCURVE",
"433 986 QCURVE SMOOTH",
"441 986 OFFCURVE",
"463 1005 OFFCURVE",
"469 1031 QCURVE"
);
},
{
nodes = (
"494 987 LINE",
"489 967 OFFCURVE",
"451 951 OFFCURVE",
"433 951 QCURVE SMOOTH",
"416 951 OFFCURVE",
"373 964 OFFCURVE",
"326 981 OFFCURVE",
"281 994 OFFCURVE",
"262 994 QCURVE SMOOTH",
"233 994 OFFCURVE",
"200 963 OFFCURVE",
"180 917 OFFCURVE",
"170 865 OFFCURVE",
"165 844 QCURVE",
"210 832 LINE",
"215 852 OFFCURVE",
"255 867 OFFCURVE",
"272 867 QCURVE",
"273 867 OFFCURVE",
"288 863 OFFCURVE",
"305 858 OFFCURVE",
"321 853 OFFCURVE",
"323 853 QCURVE",
"323 852 LINE",
"350 845 OFFCURVE",
"415 824 OFFCURVE",
"441 824 QCURVE SMOOTH",
"469 824 OFFCURVE",
"503 856 OFFCURVE",
"523 902 OFFCURVE",
"533 954 OFFCURVE",
"538 974 QCURVE"
);
}
);
width = 708;
}
);
unicode = 0303;
},
{
glyphname = uni0302;
layers = (
{
layerId = "36A2F76C-EA0C-4AFB-832E-E1AC112461C1";
paths = (
{
nodes = (
"409 831 LINE",
"312 686 LINE",
"172 741 LINE",
"88 825 LINE",
"78 829 LINE",
"164 1068 LINE",
"336 985 LINE",
"508 1068 LINE",
"511 1058 LINE",
"596 974 LINE",
"680 741 LINE",
"540 686 LINE",
"452 773 LINE",
"449 772 LINE"
);
},
{
nodes = (
"306 961 LINE",
"184 1020 LINE",
"123 850 LINE",
"209 816 LINE"
);
},
{
nodes = (
"463 816 LINE",
"549 850 LINE",
"488 1020 LINE",
"366 961 LINE"
);
}
);
width = 661;
}
);
unicode = 0302;
},
{
glyphname = acutecomb;
layers = (
{
layerId = "36A2F76C-EA0C-4AFB-832E-E1AC112461C1";
paths = (
{
nodes = (
"523 968 LINE",
"611 880 LINE",
"479 682 LINE",
"339 737 LINE",
"255 821 LINE",
"245 825 LINE",
"331 1064 LINE",
"525 971 LINE"
);
},
{
nodes = (
"473 957 LINE",
"351 1016 LINE",
"290 846 LINE",
"376 812 LINE"
);
}
);
width = 736;
}
);
unicode = 0301;
},
{
glyphname = uni0308;
layers = (
{
layerId = "36A2F76C-EA0C-4AFB-832E-E1AC112461C1";
paths = (
{
nodes = (
"106 928 OFFCURVE",
"124 971 OFFCURVE",
"155 1002 OFFCURVE",
"197 1020 OFFCURVE",
"221 1020 QCURVE SMOOTH",
"253 1020 OFFCURVE",
"305 990 OFFCURVE",
"320 964 QCURVE",
"379 906 LINE",
"379 930 OFFCURVE",
"397 972 OFFCURVE",
"428 1002 OFFCURVE",
"470 1020 OFFCURVE",
"494 1020 QCURVE SMOOTH",
"526 1020 OFFCURVE",
"578 990 OFFCURVE",
"593 964 QCURVE",
"664 894 LINE SMOOTH",
"679 879 OFFCURVE",
"697 837 OFFCURVE",
"697 814 QCURVE SMOOTH",
"697 790 OFFCURVE",
"679 749 OFFCURVE",
"649 719 OFFCURVE",
"608 702 OFFCURVE",
"584 702 QCURVE SMOOTH",
"536 702 OFFCURVE",
"504 734 QCURVE SMOOTH",
"431 806 LINE",
"424 812 LINE",
"424 789 OFFCURVE",
"406 749 OFFCURVE",
"375 719 OFFCURVE",
"334 702 OFFCURVE",
"311 702 QCURVE SMOOTH",
"287 702 OFFCURVE",
"246 719 OFFCURVE",
"231 734 QCURVE SMOOTH",
"158 806 LINE",
"134 821 OFFCURVE",
"106 872 OFFCURVE",
"106 904 QCURVE SMOOTH"
);
},
{
nodes = (
"414 870 OFFCURVE",
"460 824 OFFCURVE",
"494 824 QCURVE SMOOTH",
"528 824 OFFCURVE",
"575 870 OFFCURVE",
"575 904 QCURVE SMOOTH",
"575 938 OFFCURVE",
"528 985 OFFCURVE",
"494 985 QCURVE SMOOTH",
"460 985 OFFCURVE",
"414 938 OFFCURVE",
"414 904 QCURVE SMOOTH"
);
},
{
nodes = (
"141 870 OFFCURVE",
"187 824 OFFCURVE",
"221 824 QCURVE SMOOTH",
"255 824 OFFCURVE",
"302 870 OFFCURVE",
"302 904 QCURVE SMOOTH",
"302 938 OFFCURVE",
"255 985 OFFCURVE",
"221 985 QCURVE SMOOTH",
"187 985 OFFCURVE",
"141 938 OFFCURVE",
"141 904 QCURVE SMOOTH"
);
}
);
width = 713;
}
);
unicode = 0308;
},
{
glyphname = uni0307;
layers = (
{
layerId = "36A2F76C-EA0C-4AFB-832E-E1AC112461C1";
paths = (
{
nodes = (
"48 938 OFFCURVE",
"67 983 OFFCURVE",
"100 1017 OFFCURVE",
"144 1037 OFFCURVE",
"170 1037 QCURVE SMOOTH",
"202 1037 OFFCURVE",
"255 1006 OFFCURVE",
"272 980 QCURVE",
"344 909 LINE SMOOTH",
"361 892 OFFCURVE",
"380 848 OFFCURVE",
"380 823 QCURVE SMOOTH",
"380 798 OFFCURVE",
"361 754 OFFCURVE",
"328 721 OFFCURVE",
"284 702 OFFCURVE",
"260 702 QCURVE SMOOTH",
"235 702 OFFCURVE",
"192 721 OFFCURVE",
"176 737 QCURVE SMOOTH",
"105 807 LINE",
"79 824 OFFCURVE",
"48 879 OFFCURVE",
"48 913 QCURVE SMOOTH"
);
},
{
nodes = (
"83 876 OFFCURVE",
"134 824 OFFCURVE",
"170 824 QCURVE SMOOTH",
"188 824 OFFCURVE",
"220 838 OFFCURVE",
"244 862 OFFCURVE",
"258 895 OFFCURVE",
"258 913 QCURVE SMOOTH",
"258 931 OFFCURVE",
"244 963 OFFCURVE",
"220 988 OFFCURVE",
"188 1002 OFFCURVE",
"170 1002 QCURVE SMOOTH",
"152 1002 OFFCURVE",
"120 988 OFFCURVE",
"97 963 OFFCURVE",
"83 931 OFFCURVE",
"83 913 QCURVE SMOOTH"
);
}
);
width = 333;
}
);
unicode = 0307;
},
{
glyphname = uni030B;
layers = (
{
layerId = "36A2F76C-EA0C-4AFB-832E-E1AC112461C1";
paths = (
{
nodes = (
"642 982 LINE",
"730 894 LINE",
"598 696 LINE",
"458 751 LINE",
"400 809 LINE",
"325 696 LINE",
"185 751 LINE",
"101 835 LINE",
"91 839 LINE",
"177 1078 LINE",
"371 985 LINE",
"369 982 LINE",
"403 947 LINE",
"450 1078 LINE",
"644 985 LINE"
);
},
{
nodes = (
"592 971 LINE",
"470 1030 LINE",
"409 860 LINE",
"495 826 LINE"
);
},
{
nodes = (
"319 971 LINE",
"197 1030 LINE",
"136 860 LINE",
"222 826 LINE"
);
}
);
width = 755;
}
);
unicode = 030B;
},
{
glyphname = uni030C;
layers = (
{
layerId = "36A2F76C-EA0C-4AFB-832E-E1AC112461C1";
paths = (
{
nodes = (
"224 789 LINE",
"219 789 LINE",
"128 1018 LINE",
"275 1076 LINE",
"286 1059 LINE",
"361 984 LINE",
"423 1076 LINE",
"569 1018 LINE",
"567 1013 LINE",
"655 926 LINE",
"566 702 LINE",
"311 702 LINE"
);
},
{
nodes = (
"348 901 LINE",
"260 1032 LINE",
"174 998 LINE",
"243 824 LINE",
"454 824 LINE",
"523 998 LINE",
"437 1032 LINE"
);
}
);
width = 739;
}
);
unicode = 030C;
},
{
glyphname = gravecomb;
layers = (
{
layerId = "36A2F76C-EA0C-4AFB-832E-E1AC112461C1";
paths = (
{
nodes = (
"238 988 LINE",
"432 1081 LINE",
"435 1071 LINE",
"520 987 LINE",
"604 754 LINE",
"464 699 LINE",
"376 786 LINE",
"373 785 LINE"
);
},
{
nodes = (
"387 829 LINE",
"473 863 LINE",
"412 1033 LINE",
"290 974 LINE"
);
}
);
width = 765;
}
);
unicode = 0300;
},
{
glyphname = uni0306;
layers = (
{
layerId = "36A2F76C-EA0C-4AFB-832E-E1AC112461C1";
paths = (
{
nodes = (
"251 820 LINE",
"207 851 OFFCURVE",
"153 959 OFFCURVE",
"153 1025 QCURVE",
"317 1025 LINE",
"317 1019 LINE",
"363 973 LINE",
"371 994 OFFCURVE",
"371 1025 QCURVE",
"535 1025 LINE",
"535 1019 LINE",
"622 932 LINE",
"622 885 OFFCURVE",
"593 802 OFFCURVE",
"542 739 OFFCURVE",
"474 702 OFFCURVE",
"434 702 QCURVE SMOOTH",
"401 702 OFFCURVE",
"342 730 OFFCURVE",
"317 754 QCURVE SMOOTH"
);
},
{
nodes = (
"318 918 OFFCURVE",
"282 961 OFFCURVE",
"282 990 QCURVE",
"188 990 LINE",
"188 956 OFFCURVE",
"213 896 OFFCURVE",
"256 851 OFFCURVE",
"312 824 OFFCURVE",
"344 824 QCURVE SMOOTH",
"377 824 OFFCURVE",
"434 851 OFFCURVE",
"476 896 OFFCURVE",
"500 956 OFFCURVE",
"500 990 QCURVE",
"406 990 LINE",
"406 961 OFFCURVE",
"370 918 OFFCURVE",
"344 918 QCURVE SMOOTH"
);
}
);
width = 697;
}
);
unicode = 0306;
},
{
glyphname = dotlessi;
layers = (
{
layerId = "36A2F76C-EA0C-4AFB-832E-E1AC112461C1";
paths = (
{
nodes = (
"522 724 LINE",
"609 637 LINE",
"609 -122 LINE",
"128 -122 LINE",
"41 -35 LINE",
"35 -35 LINE",
"35 730 LINE",
"522 730 LINE"
);
},
{
nodes = (
"487 695 LINE",
"70 695 LINE",
"70 0 LINE",
"487 0 LINE"
);
}
);
width = 641;
}
);
unicode = 0131;
},
{
glyphname = Dcroat;
layers = (
{
layerId = "36A2F76C-EA0C-4AFB-832E-E1AC112461C1";
paths = (
{
nodes = (
"621 475 LINE",
"621 477 OFFCURVE",
"620 477 QCURVE"
);
},
{
nodes = (
"14 -35 LINE",
"8 -35 LINE",
"8 730 LINE",
"460 730 LINE SMOOTH",
"522 730 OFFCURVE",
"626 675 OFFCURVE",
"659 628 QCURVE",
"721 566 LINE SMOOTH",
"753 534 OFFCURVE",
"791 447 OFFCURVE",
"791 397 QCURVE SMOOTH",
"791 313 LINE SMOOTH",
"791 291 OFFCURVE",
"792 248 OFFCURVE",
"792 225 QCURVE SMOOTH",
"792 168 LINE SMOOTH",
"792 154 OFFCURVE",
"791 123 OFFCURVE",
"790 109 QCURVE SMOOTH",
"787 61 OFFCURVE",
"749 -23 OFFCURVE",
"685 -86 OFFCURVE",
"599 -122 OFFCURVE",
"550 -122 QCURVE SMOOTH",
"101 -122 LINE"
);
},
{
nodes = (
"460 626 LINE",
"488 626 OFFCURVE",
"539 604 OFFCURVE",
"577 566 OFFCURVE",
"599 515 OFFCURVE",
"599 487 QCURVE SMOOTH",
"599 227 LINE SMOOTH",
"599 194 OFFCURVE",
"582 136 OFFCURVE",
"547 94 OFFCURVE",
"495 69 OFFCURVE",
"460 69 QCURVE",
"460 307 LINE",
"551 307 LINE",
"551 381 LINE",
"460 381 LINE"
);
},
{
nodes = (
"670 315 LINE SMOOTH",
"670 360 OFFCURVE",
"669 444 OFFCURVE",
"669 487 QCURVE SMOOTH",
"669 530 OFFCURVE",
"636 606 OFFCURVE",
"579 662 OFFCURVE",
"503 695 OFFCURVE",
"460 695 QCURVE SMOOTH",
"43 695 LINE",
"43 0 LINE",
"460 0 LINE SMOOTH",
"503 0 OFFCURVE",
"577 31 OFFCURVE",
"633 86 OFFCURVE",
"666 159 OFFCURVE",
"668 201 QCURVE SMOOTH",
"669 215 OFFCURVE",
"670 244 OFFCURVE",
"670 258 QCURVE SMOOTH",
"670 264 LINE",
"670 266 LINE",
"670 273 LINE",
"670 275 LINE",
"670 277 LINE",
"670 279 LINE",
"670 281 LINE",
"670 282 LINE",
"670 284 LINE",
"670 286 LINE"
);
}
);
width = 706;
}
);
unicode = 0110;
},
{
glyphname = uni013B;
layers = (
{
layerId = "36A2F76C-EA0C-4AFB-832E-E1AC112461C1";
paths = (
{
nodes = (
"729 98 LINE",
"816 11 LINE",
"816 -122 LINE",
"126 -122 LINE",
"39 -35 LINE",
"33 -35 LINE",
"33 730 LINE",
"520 730 LINE",
"520 724 LINE",
"607 637 LINE",
"607 104 LINE",
"729 104 LINE"
);
},
{
nodes = (
"694 69 LINE",
"485 69 LINE",
"485 695 LINE",
"68 695 LINE",
"68 0 LINE",
"694 0 LINE"
);
},
{
nodes = (
"304 -107 LINE",
"482 -107 LINE",
"482 -113 LINE",
"569 -200 LINE",
"569 -341 LINE",
"397 -447 LINE",
"309 -359 LINE",
"304 -363 LINE"
);
},
{
nodes = (
"339 -300 LINE",
"447 -233 LINE",
"447 -142 LINE",
"339 -142 LINE"
);
}
);
width = 822;
}
);
unicode = 013B;
},
{
glyphname = uni013C;
layers = (
{
layerId = "36A2F76C-EA0C-4AFB-832E-E1AC112461C1";
paths = (
{
nodes = (
"729 98 LINE",
"816 11 LINE",
"816 -122 LINE",
"126 -122 LINE",
"39 -35 LINE",
"33 -35 LINE",
"33 730 LINE",
"520 730 LINE",
"520 724 LINE",
"607 637 LINE",
"607 104 LINE",
"729 104 LINE"
);
},
{
nodes = (
"694 69 LINE",
"485 69 LINE",
"485 695 LINE",
"68 695 LINE",
"68 0 LINE",
"694 0 LINE"
);
},
{
nodes = (
"304 -107 LINE",
"482 -107 LINE",
"482 -113 LINE",
"569 -200 LINE",
"569 -341 LINE",
"397 -447 LINE",
"309 -359 LINE",
"304 -363 LINE"
);
},
{
nodes = (
"339 -300 LINE",
"447 -233 LINE",
"447 -142 LINE",
"339 -142 LINE"
);
}
);
width = 822;
}
);
unicode = 013C;
},
{
glyphname = Lcaron;
layers = (
{
layerId = "36A2F76C-EA0C-4AFB-832E-E1AC112461C1";
paths = (
{
nodes = (
"729 98 LINE",
"816 11 LINE",
"816 -122 LINE",
"126 -122 LINE",
"39 -35 LINE",
"33 -35 LINE",
"33 730 LINE",
"520 730 LINE",
"520 724 LINE",
"607 637 LINE",
"607 104 LINE",
"729 104 LINE"
);
},
{
nodes = (
"694 69 LINE",
"485 69 LINE",
"485 695 LINE",
"68 695 LINE",
"68 0 LINE",
"694 0 LINE"
);
},
{
nodes = (
"224 789 LINE",
"219 789 LINE",
"128 1018 LINE",
"275 1076 LINE",
"286 1059 LINE",
"361 984 LINE",
"423 1076 LINE",
"569 1018 LINE",
"567 1013 LINE",
"655 926 LINE",
"566 702 LINE",
"311 702 LINE"
);
},
{
nodes = (
"348 901 LINE",
"260 1032 LINE",
"174 998 LINE",
"243 824 LINE",
"454 824 LINE",
"523 998 LINE",
"437 1032 LINE"
);
}
);
width = 822;
}
);
unicode = 013D;
},
{
glyphname = lcaron;
layers = (
{
layerId = "36A2F76C-EA0C-4AFB-832E-E1AC112461C1";
paths = (
{
nodes = (
"729 98 LINE",
"816 11 LINE",
"816 -122 LINE",
"126 -122 LINE",
"39 -35 LINE",
"33 -35 LINE",
"33 730 LINE",
"520 730 LINE",
"520 724 LINE",
"607 637 LINE",
"607 104 LINE",
"729 104 LINE"
);
},
{
nodes = (
"694 69 LINE",
"485 69 LINE",
"485 695 LINE",
"68 695 LINE",
"68 0 LINE",
"694 0 LINE"
);
},
{
nodes = (
"224 789 LINE",
"219 789 LINE",
"128 1018 LINE",
"275 1076 LINE",
"286 1059 LINE",
"361 984 LINE",
"423 1076 LINE",
"569 1018 LINE",
"567 1013 LINE",
"655 926 LINE",
"566 702 LINE",
"311 702 LINE"
);
},
{
nodes = (
"348 901 LINE",
"260 1032 LINE",
"174 998 LINE",
"243 824 LINE",
"454 824 LINE",
"523 998 LINE",
"437 1032 LINE"
);
}
);
width = 822;
}
);
unicode = 013E;
},
{
glyphname = uni0137;
layers = (
{
layerId = "36A2F76C-EA0C-4AFB-832E-E1AC112461C1";
paths = (
{
nodes = (
"40 -35 LINE",
"34 -35 LINE",
"34 730 LINE",
"521 730 LINE",
"521 724 LINE",
"563 681 LINE",
"585 730 LINE",
"731 730 LINE",
"728 724 LINE",
"816 637 LINE",
"663 296 LINE",
"862 -122 LINE",
"711 -122 LINE",
"624 -35 LINE",
"619 -35 LINE",
"608 -10 LINE",
"608 -122 LINE",
"127 -122 LINE"
);
},
{
nodes = (
"538 386 LINE",
"677 695 LINE",
"608 695 LINE",
"486 424 LINE",
"486 695 LINE",
"69 695 LINE",
"69 0 LINE",
"486 0 LINE",
"486 270 LINE",
"503 309 LINE",
"642 0 LINE",
"712 0 LINE"
);
},
{
nodes = (
"304 -107 LINE",
"482 -107 LINE",
"482 -113 LINE",
"569 -200 LINE",
"569 -341 LINE",
"397 -447 LINE",
"309 -359 LINE",
"304 -363 LINE"
);
},
{
nodes = (
"339 -300 LINE",
"447 -233 LINE",
"447 -142 LINE",
"339 -142 LINE"
);
}
);
width = 842;
}
);
unicode = 0137;
},
{
glyphname = uni0136;
layers = (
{
layerId = "36A2F76C-EA0C-4AFB-832E-E1AC112461C1";
paths = (
{
nodes = (
"40 -35 LINE",
"34 -35 LINE",
"34 730 LINE",
"521 730 LINE",
"521 724 LINE",
"563 681 LINE",
"585 730 LINE",
"731 730 LINE",
"728 724 LINE",
"816 637 LINE",
"663 296 LINE",
"862 -122 LINE",
"711 -122 LINE",
"624 -35 LINE",
"619 -35 LINE",
"608 -10 LINE",
"608 -122 LINE",
"127 -122 LINE"
);
},
{
nodes = (
"538 386 LINE",
"677 695 LINE",
"608 695 LINE",
"486 424 LINE",
"486 695 LINE",
"69 695 LINE",
"69 0 LINE",
"486 0 LINE",
"486 270 LINE",
"503 309 LINE",
"642 0 LINE",
"712 0 LINE"
);
},
{
nodes = (
"304 -107 LINE",
"482 -107 LINE",
"482 -113 LINE",
"569 -200 LINE",
"569 -341 LINE",
"397 -447 LINE",
"309 -359 LINE",
"304 -363 LINE"
);
},
{
nodes = (
"339 -300 LINE",
"447 -233 LINE",
"447 -142 LINE",
"339 -142 LINE"
);
}
);
width = 842;
}
);
unicode = 0136;
},
{
glyphname = Hbar;
layers = (
{
layerId = "36A2F76C-EA0C-4AFB-832E-E1AC112461C1";
paths = (
{
nodes = (
"731 730 LINE",
"731 724 LINE",
"818 637 LINE",
"818 495 LINE",
"903 410 LINE",
"903 271 LINE",
"818 271 LINE",
"818 -122 LINE",
"685 -122 LINE",
"633 -70 LINE",
"633 -122 LINE",
"194 -122 LINE",
"107 -35 LINE",
"101 -35 LINE",
"101 285 LINE",
"28 358 LINE",
"22 358 LINE",
"22 503 LINE",
"101 503 LINE",
"101 730 LINE",
"546 730 LINE",
"546 724 LINE",
"592 678 LINE",
"592 730 LINE"
);
},
{
nodes = (
"627 695 LINE",
"627 468 LINE",
"511 468 LINE",
"511 695 LINE",
"136 695 LINE",
"136 468 LINE",
"57 468 LINE",
"57 393 LINE",
"136 393 LINE",
"136 0 LINE",
"511 0 LINE",
"511 129 LINE",
"627 129 LINE",
"627 0 LINE",
"696 0 LINE",
"696 393 LINE",
"784 393 LINE",
"784 468 LINE",
"696 468 LINE",
"696 695 LINE"
);
},
{
nodes = (
"511 198 LINE",
"511 393 LINE",
"627 393 LINE",
"627 198 LINE"
);
}
);
width = 924;
}
);
unicode = 0126;
},
{
glyphname = hbar;
layers = (
{
layerId = "36A2F76C-EA0C-4AFB-832E-E1AC112461C1";
paths = (
{
nodes = (
"731 730 LINE",
"731 724 LINE",
"818 637 LINE",
"818 495 LINE",
"903 410 LINE",
"903 271 LINE",
"818 271 LINE",
"818 -122 LINE",
"685 -122 LINE",
"633 -70 LINE",
"633 -122 LINE",
"194 -122 LINE",
"107 -35 LINE",
"101 -35 LINE",
"101 285 LINE",
"28 358 LINE",
"22 358 LINE",
"22 503 LINE",
"101 503 LINE",
"101 730 LINE",
"546 730 LINE",
"546 724 LINE",
"592 678 LINE",
"592 730 LINE"
);
},
{
nodes = (
"627 695 LINE",
"627 468 LINE",
"511 468 LINE",
"511 695 LINE",
"136 695 LINE",
"136 468 LINE",
"57 468 LINE",
"57 393 LINE",
"136 393 LINE",
"136 0 LINE",
"511 0 LINE",
"511 129 LINE",
"627 129 LINE",
"627 0 LINE",
"696 0 LINE",
"696 393 LINE",
"784 393 LINE",
"784 468 LINE",
"696 468 LINE",
"696 695 LINE"
);
},
{
nodes = (
"511 198 LINE",
"511 393 LINE",
"627 393 LINE",
"627 198 LINE"
);
}
);
width = 924;
}
);
unicode = 0127;
},
{
glyphname = uni0122;
layers = (
{
layerId = "36A2F76C-EA0C-4AFB-832E-E1AC112461C1";
paths = (
{
nodes = (
"603 468 LINE",
"603 348 LINE",
"724 348 LINE",
"724 342 LINE",
"811 255 LINE",
"811 118 LINE SMOOTH",
"811 68 OFFCURVE",
"773 -19 OFFCURVE",
"708 -84 OFFCURVE",
"621 -122 OFFCURVE",
"571 -122 QCURVE SMOOTH",
"362 -122 LINE SMOOTH",
"311 -122 OFFCURVE",
"224 -84 OFFCURVE",
"192 -52 QCURVE SMOOTH",
"129 10 LINE",
"83 43 OFFCURVE",
"29 146 OFFCURVE",
"29 208 QCURVE SMOOTH",
"29 487 LINE SMOOTH",
"29 538 OFFCURVE",
"67 626 OFFCURVE",
"133 692 OFFCURVE",
"221 730 OFFCURVE",
"272 730 QCURVE SMOOTH",
"481 730 LINE SMOOTH",
"538 730 OFFCURVE",
"633 676 OFFCURVE",
"667 631 QCURVE",
"729 569 LINE SMOOTH",
"767 531 OFFCURVE",
"811 426 OFFCURVE",
"811 365 QCURVE",
"710 365 LINE",
"623 452 LINE",
"619 452 LINE"
);
},
{
nodes = (
"689 487 LINE",
"689 530 OFFCURVE",
"656 606 OFFCURVE",
"600 662 OFFCURVE",
"524 695 OFFCURVE",
"481 695 QCURVE SMOOTH",
"272 695 LINE SMOOTH",
"229 695 OFFCURVE",
"153 662 OFFCURVE",
"97 606 OFFCURVE",
"64 530 OFFCURVE",
"64 487 QCURVE SMOOTH",
"64 208 LINE SMOOTH",
"64 165 OFFCURVE",
"97 89 OFFCURVE",
"153 33 OFFCURVE",
"229 0 OFFCURVE",
"272 0 QCURVE SMOOTH",
"481 0 LINE SMOOTH",
"524 0 OFFCURVE",
"600 33 OFFCURVE",
"656 89 OFFCURVE",
"689 165 OFFCURVE",
"689 208 QCURVE SMOOTH",
"689 313 LINE",
"550 313 LINE",
"550 243 LINE",
"620 243 LINE",
"620 208 LINE SMOOTH",
"620 179 OFFCURVE",
"598 129 OFFCURVE",
"560 91 OFFCURVE",
"509 69 OFFCURVE",
"481 69 QCURVE",
"481 625 LINE",
"509 625 OFFCURVE",
"560 604 OFFCURVE",
"598 566 OFFCURVE",
"620 516 OFFCURVE",
"620 487 QCURVE"
);
},
{
nodes = (
"304 -107 LINE",
"482 -107 LINE",
"482 -113 LINE",
"569 -200 LINE",
"569 -341 LINE",
"397 -447 LINE",
"309 -359 LINE",
"304 -363 LINE"
);
},
{
nodes = (
"339 -300 LINE",
"447 -233 LINE",
"447 -142 LINE",
"339 -142 LINE"
);
}
);
width = 848;
}
);
unicode = 0122;
},
{
glyphname = uni0123;
layers = (
{
layerId = "36A2F76C-EA0C-4AFB-832E-E1AC112461C1";
paths = (
{
nodes = (
"603 468 LINE",
"603 348 LINE",
"724 348 LINE",
"724 342 LINE",
"811 255 LINE",
"811 118 LINE SMOOTH",
"811 68 OFFCURVE",
"773 -19 OFFCURVE",
"708 -84 OFFCURVE",
"621 -122 OFFCURVE",
"571 -122 QCURVE SMOOTH",
"362 -122 LINE SMOOTH",
"311 -122 OFFCURVE",
"224 -84 OFFCURVE",
"192 -52 QCURVE SMOOTH",
"129 10 LINE",
"83 43 OFFCURVE",
"29 146 OFFCURVE",
"29 208 QCURVE SMOOTH",
"29 487 LINE SMOOTH",
"29 538 OFFCURVE",
"67 626 OFFCURVE",
"133 692 OFFCURVE",
"221 730 OFFCURVE",
"272 730 QCURVE SMOOTH",
"481 730 LINE SMOOTH",
"538 730 OFFCURVE",
"633 676 OFFCURVE",
"667 631 QCURVE",
"729 569 LINE SMOOTH",
"767 531 OFFCURVE",
"811 426 OFFCURVE",
"811 365 QCURVE",
"710 365 LINE",
"623 452 LINE",
"619 452 LINE"
);
},
{
nodes = (
"689 487 LINE",
"689 530 OFFCURVE",
"656 606 OFFCURVE",
"600 662 OFFCURVE",
"524 695 OFFCURVE",
"481 695 QCURVE SMOOTH",
"272 695 LINE SMOOTH",
"229 695 OFFCURVE",
"153 662 OFFCURVE",
"97 606 OFFCURVE",
"64 530 OFFCURVE",
"64 487 QCURVE SMOOTH",
"64 208 LINE SMOOTH",
"64 165 OFFCURVE",
"97 89 OFFCURVE",
"153 33 OFFCURVE",
"229 0 OFFCURVE",
"272 0 QCURVE SMOOTH",
"481 0 LINE SMOOTH",
"524 0 OFFCURVE",
"600 33 OFFCURVE",
"656 89 OFFCURVE",
"689 165 OFFCURVE",
"689 208 QCURVE SMOOTH",
"689 313 LINE",
"550 313 LINE",
"550 243 LINE",
"620 243 LINE",
"620 208 LINE SMOOTH",
"620 179 OFFCURVE",
"598 129 OFFCURVE",
"560 91 OFFCURVE",
"509 69 OFFCURVE",
"481 69 QCURVE",
"481 625 LINE",
"509 625 OFFCURVE",
"560 604 OFFCURVE",
"598 566 OFFCURVE",
"620 516 OFFCURVE",
"620 487 QCURVE"
);
},
{
nodes = (
"304 -107 LINE",
"482 -107 LINE",
"482 -113 LINE",
"569 -200 LINE",
"569 -341 LINE",
"397 -447 LINE",
"309 -359 LINE",
"304 -363 LINE"
);
},
{
nodes = (
"339 -300 LINE",
"447 -233 LINE",
"447 -142 LINE",
"339 -142 LINE"
);
}
);
width = 848;
}
);
unicode = 0123;
},
{
glyphname = lslash;
layers = (
{
layerId = "36A2F76C-EA0C-4AFB-832E-E1AC112461C1";
paths = (
{
nodes = (
"683 104 LINE",
"805 104 LINE",
"805 98 LINE",
"892 11 LINE",
"892 -122 LINE",
"202 -122 LINE",
"115 -35 LINE",
"109 -35 LINE",
"109 153 LINE",
"65 196 LINE",
"61 195 LINE",
"18 331 LINE",
"109 365 LINE",
"109 730 LINE",
"596 730 LINE",
"596 724 LINE",
"683 637 LINE",
"683 549 LINE",
"754 478 LINE",
"805 354 LINE",
"683 308 LINE"
);
},
{
nodes = (
"561 69 LINE",
"561 420 LINE",
"673 462 LINE",
"646 527 LINE",
"561 495 LINE",
"561 695 LINE",
"144 695 LINE",
"144 340 LINE",
"61 309 LINE",
"83 241 LINE",
"144 264 LINE",
"144 0 LINE",
"770 0 LINE",
"770 69 LINE"
);
}
);
width = 923;
}
);
unicode = 0142;
},
{
glyphname = Lslash;
layers = (
{
layerId = "36A2F76C-EA0C-4AFB-832E-E1AC112461C1";
paths = (
{
nodes = (
"683 104 LINE",
"805 104 LINE",
"805 98 LINE",
"892 11 LINE",
"892 -122 LINE",
"202 -122 LINE",
"115 -35 LINE",
"109 -35 LINE",
"109 153 LINE",
"65 196 LINE",
"61 195 LINE",
"18 331 LINE",
"109 365 LINE",
"109 730 LINE",
"596 730 LINE",
"596 724 LINE",
"683 637 LINE",
"683 549 LINE",
"754 478 LINE",
"805 354 LINE",
"683 308 LINE"
);
},
{
nodes = (
"561 69 LINE",
"561 420 LINE",
"673 462 LINE",
"646 527 LINE",
"561 495 LINE",
"561 695 LINE",
"144 695 LINE",
"144 340 LINE",
"61 309 LINE",
"83 241 LINE",
"144 264 LINE",
"144 0 LINE",
"770 0 LINE",
"770 69 LINE"
);
}
);
width = 923;
}
);
unicode = 0141;
},
{
glyphname = uni0146;
layers = (
{
layerId = "36A2F76C-EA0C-4AFB-832E-E1AC112461C1";
paths = (
{
nodes = (
"726 724 LINE",
"813 637 LINE",
"813 -122 LINE",
"680 -122 LINE",
"605 -47 LINE",
"605 -122 LINE",
"124 -122 LINE",
"37 -35 LINE",
"31 -35 LINE",
"31 730 LINE",
"505 730 LINE",
"509 721 LINE",
"587 643 LINE",
"587 730 LINE",
"726 730 LINE"
);
},
{
nodes = (
"691 695 LINE",
"622 695 LINE",
"622 386 LINE",
"483 695 LINE",
"66 695 LINE",
"66 0 LINE",
"483 0 LINE",
"483 540 LINE",
"622 232 LINE",
"622 0 LINE",
"691 0 LINE"
);
},
{
nodes = (
"304 -107 LINE",
"482 -107 LINE",
"482 -113 LINE",
"569 -200 LINE",
"569 -341 LINE",
"397 -447 LINE",
"309 -359 LINE",
"304 -363 LINE"
);
},
{
nodes = (
"339 -300 LINE",
"447 -233 LINE",
"447 -142 LINE",
"339 -142 LINE"
);
}
);
width = 851;
}
);
unicode = 0146;
},
{
glyphname = uni0145;
layers = (
{
layerId = "36A2F76C-EA0C-4AFB-832E-E1AC112461C1";
paths = (
{
nodes = (
"726 724 LINE",
"813 637 LINE",
"813 -122 LINE",
"680 -122 LINE",
"605 -47 LINE",
"605 -122 LINE",
"124 -122 LINE",
"37 -35 LINE",
"31 -35 LINE",
"31 730 LINE",
"505 730 LINE",
"509 721 LINE",
"587 643 LINE",
"587 730 LINE",
"726 730 LINE"
);
},
{
nodes = (
"691 695 LINE",
"622 695 LINE",
"622 386 LINE",
"483 695 LINE",
"66 695 LINE",
"66 0 LINE",
"483 0 LINE",
"483 540 LINE",
"622 232 LINE",
"622 0 LINE",
"691 0 LINE"
);
},
{
nodes = (
"304 -107 LINE",
"482 -107 LINE",
"482 -113 LINE",
"569 -200 LINE",
"569 -341 LINE",
"397 -447 LINE",
"309 -359 LINE",
"304 -363 LINE"
);
},
{
nodes = (
"339 -300 LINE",
"447 -233 LINE",
"447 -142 LINE",
"339 -142 LINE"
);
}
);
width = 851;
}
);
unicode = 0145;
},
{
glyphname = guillemotleft;
layers = (
{
layerId = "36A2F76C-EA0C-4AFB-832E-E1AC112461C1";
paths = (
{
nodes = (
"946 115 LINE",
"1034 28 LINE",
"978 -110 LINE",
"491 201 LINE",
"412 280 LINE",
"398 289 LINE",
"390 341 LINE",
"317 304 LINE",
"349 264 LINE",
"575 120 LINE",
"573 115 LINE",
"661 28 LINE",
"605 -110 LINE",
"118 201 LINE",
"39 280 LINE",
"25 289 LINE",
"25 410 LINE",
"516 724 LINE",
"520 714 LINE",
"605 629 LINE",
"635 561 LINE",
"889 724 LINE",
"893 714 LINE",
"978 629 LINE",
"1033 490 LINE",
"700 277 LINE",
"722 264 LINE",
"948 120 LINE"
);
},
{
nodes = (
"531 106 LINE",
"148 349 LINE",
"531 593 LINE",
"499 671 LINE",
"60 391 LINE",
"60 308 LINE",
"499 28 LINE"
);
},
{
nodes = (
"904 106 LINE",
"521 349 LINE",
"904 593 LINE",
"872 671 LINE",
"649 529 LINE",
"650 527 LINE",
"576 482 LINE",
"433 391 LINE",
"433 308 LINE",
"872 28 LINE"
);
}
);
width = 1067;
}
);
unicode = 00AB;
},
{
glyphname = OE;
layers = (
{
layerId = "36A2F76C-EA0C-4AFB-832E-E1AC112461C1";
paths = (
{
nodes = (
"618 474 LINE",
"618 476 OFFCURVE",
"617 476 QCURVE"
);
},
{
nodes = (
"555 521 LINE",
"554 521 OFFCURVE",
"554 523 QCURVE",
"493 583 LINE"
);
},
{
nodes = (
"1169 452 LINE",
"1255 452 LINE",
"1255 446 LINE",
"1342 359 LINE",
"1342 225 LINE",
"1169 225 LINE",
"1169 104 LINE",
"1255 104 LINE",
"1255 98 LINE",
"1342 11 LINE",
"1342 -122 LINE",
"687 -122 LINE",
"658 -93 LINE",
"632 -107 OFFCURVE",
"576 -122 OFFCURVE",
"547 -122 QCURVE SMOOTH",
"338 -122 LINE SMOOTH",
"287 -122 OFFCURVE",
"200 -84 OFFCURVE",
"168 -52 QCURVE SMOOTH",
"105 10 LINE",
"59 43 OFFCURVE",
"5 146 OFFCURVE",
"5 208 QCURVE SMOOTH",
"5 486 LINE SMOOTH",
"5 537 OFFCURVE",
"43 626 OFFCURVE",
"109 692 OFFCURVE",
"197 730 OFFCURVE",
"248 730 QCURVE SMOOTH",
"457 730 LINE SMOOTH",
"495 730 OFFCURVE",
"565 708 OFFCURVE",
"594 688 QCURVE",
"594 730 LINE",
"1255 730 LINE",
"1255 724 LINE",
"1342 637 LINE",
"1342 503 LINE",
"1169 503 LINE"
);
},
{
nodes = (
"457 625 LINE",
"486 625 OFFCURVE",
"537 603 OFFCURVE",
"574 566 OFFCURVE",
"596 515 OFFCURVE",
"596 486 QCURVE SMOOTH",
"596 232 LINE SMOOTH",
"596 199 OFFCURVE",
"580 139 OFFCURVE",
"546 95 OFFCURVE",
"494 69 OFFCURVE",
"457 69 QCURVE"
);
},
{
nodes = (
"1047 69 LINE",
"1047 347 LINE",
"1220 347 LINE",
"1220 417 LINE",
"1047 417 LINE",
"1047 625 LINE",
"1220 625 LINE",
"1220 695 LINE",
"629 695 LINE",
"629 603 LINE",
"618 619 OFFCURVE",
"604 633 QCURVE SMOOTH",
"576 662 OFFCURVE",
"500 695 OFFCURVE",
"457 695 QCURVE SMOOTH",
"248 695 LINE SMOOTH",
"205 695 OFFCURVE",
"129 662 OFFCURVE",
"73 605 OFFCURVE",
"40 529 OFFCURVE",
"40 486 QCURVE SMOOTH",
"40 208 LINE SMOOTH",
"40 165 OFFCURVE",
"73 89 OFFCURVE",
"129 33 OFFCURVE",
"205 0 OFFCURVE",
"248 0 QCURVE SMOOTH",
"457 0 LINE SMOOTH",
"497 0 OFFCURVE",
"573 32 OFFCURVE",
"601 59 QCURVE SMOOTH",
"616 73 OFFCURVE",
"629 90 QCURVE",
"629 0 LINE",
"1220 0 LINE",
"1220 69 LINE"
);
}
);
width = 1245;
}
);
unicode = 0152;
},
{
glyphname = oe;
layers = (
{
layerId = "36A2F76C-EA0C-4AFB-832E-E1AC112461C1";
paths = (
{
nodes = (
"618 474 LINE",
"618 476 OFFCURVE",
"617 476 QCURVE"
);
},
{
nodes = (
"555 521 LINE",
"554 521 OFFCURVE",
"554 523 QCURVE",
"493 583 LINE"
);
},
{
nodes = (
"1169 452 LINE",
"1255 452 LINE",
"1255 446 LINE",
"1342 359 LINE",
"1342 225 LINE",
"1169 225 LINE",
"1169 104 LINE",
"1255 104 LINE",
"1255 98 LINE",
"1342 11 LINE",
"1342 -122 LINE",
"687 -122 LINE",
"658 -93 LINE",
"632 -107 OFFCURVE",
"576 -122 OFFCURVE",
"547 -122 QCURVE SMOOTH",
"338 -122 LINE SMOOTH",
"287 -122 OFFCURVE",
"200 -84 OFFCURVE",
"168 -52 QCURVE SMOOTH",
"105 10 LINE",
"59 43 OFFCURVE",
"5 146 OFFCURVE",
"5 208 QCURVE SMOOTH",
"5 486 LINE SMOOTH",
"5 537 OFFCURVE",
"43 626 OFFCURVE",
"109 692 OFFCURVE",
"197 730 OFFCURVE",
"248 730 QCURVE SMOOTH",
"457 730 LINE SMOOTH",
"495 730 OFFCURVE",
"565 708 OFFCURVE",
"594 688 QCURVE",
"594 730 LINE",
"1255 730 LINE",
"1255 724 LINE",
"1342 637 LINE",
"1342 503 LINE",
"1169 503 LINE"
);
},
{
nodes = (
"457 625 LINE",
"486 625 OFFCURVE",
"537 603 OFFCURVE",
"574 566 OFFCURVE",
"596 515 OFFCURVE",
"596 486 QCURVE SMOOTH",
"596 232 LINE SMOOTH",
"596 199 OFFCURVE",
"580 139 OFFCURVE",
"546 95 OFFCURVE",
"494 69 OFFCURVE",
"457 69 QCURVE"
);
},
{
nodes = (
"1047 69 LINE",
"1047 347 LINE",
"1220 347 LINE",
"1220 417 LINE",
"1047 417 LINE",
"1047 625 LINE",
"1220 625 LINE",
"1220 695 LINE",
"629 695 LINE",
"629 603 LINE",
"618 619 OFFCURVE",
"604 633 QCURVE SMOOTH",
"576 662 OFFCURVE",
"500 695 OFFCURVE",
"457 695 QCURVE SMOOTH",
"248 695 LINE SMOOTH",
"205 695 OFFCURVE",
"129 662 OFFCURVE",
"73 605 OFFCURVE",
"40 529 OFFCURVE",
"40 486 QCURVE SMOOTH",
"40 208 LINE SMOOTH",
"40 165 OFFCURVE",
"73 89 OFFCURVE",
"129 33 OFFCURVE",
"205 0 OFFCURVE",
"248 0 QCURVE SMOOTH",
"457 0 LINE SMOOTH",
"497 0 OFFCURVE",
"573 32 OFFCURVE",
"601 59 QCURVE SMOOTH",
"616 73 OFFCURVE",
"629 90 QCURVE",
"629 0 LINE",
"1220 0 LINE",
"1220 69 LINE"
);
}
);
width = 1245;
}
);
unicode = 0153;
},
{
glyphname = uni0219;
layers = (
{
layerId = "36A2F76C-EA0C-4AFB-832E-E1AC112461C1";
paths = (
{
nodes = (
"683 351 LINE",
"739 295 LINE",
"747 288 LINE",
"779 256 OFFCURVE",
"816 170 OFFCURVE",
"816 121 QCURVE SMOOTH",
"816 72 OFFCURVE",
"779 -16 OFFCURVE",
"714 -83 OFFCURVE",
"626 -122 OFFCURVE",
"576 -122 QCURVE SMOOTH",
"367 -122 LINE SMOOTH",
"316 -122 OFFCURVE",
"229 -84 OFFCURVE",
"197 -52 QCURVE SMOOTH",
"134 10 LINE",
"88 43 OFFCURVE",
"34 146 OFFCURVE",
"34 208 QCURVE SMOOTH",
"34 313 LINE",
"159 313 LINE",
"121 350 LINE",
"81 379 OFFCURVE",
"34 467 OFFCURVE",
"34 521 QCURVE SMOOTH",
"34 564 OFFCURVE",
"67 641 OFFCURVE",
"123 697 OFFCURVE",
"199 730 OFFCURVE",
"243 730 QCURVE SMOOTH",
"486 730 LINE SMOOTH",
"541 730 OFFCURVE",
"636 679 OFFCURVE",
"669 634 QCURVE",
"735 569 LINE SMOOTH",
"773 531 OFFCURVE",
"817 425 OFFCURVE",
"817 364 QCURVE",
"683 364 LINE"
);
},
{
nodes = (
"486 0 LINE SMOOTH",
"529 0 OFFCURVE",
"605 34 OFFCURVE",
"662 92 OFFCURVE",
"694 168 OFFCURVE",
"694 211 QCURVE SMOOTH",
"694 254 OFFCURVE",
"661 329 OFFCURVE",
"604 385 OFFCURVE",
"529 417 OFFCURVE",
"486 417 QCURVE",
"486 625 LINE",
"515 625 OFFCURVE",
"566 603 OFFCURVE",
"603 566 OFFCURVE",
"625 515 OFFCURVE",
"625 486 QCURVE",
"695 486 LINE",
"695 529 OFFCURVE",
"662 605 OFFCURVE",
"605 662 OFFCURVE",
"529 695 OFFCURVE",
"486 695 QCURVE SMOOTH",
"243 695 LINE SMOOTH",
"207 695 OFFCURVE",
"144 668 OFFCURVE",
"96 620 OFFCURVE",
"69 557 OFFCURVE",
"69 521 QCURVE SMOOTH",
"69 485 OFFCURVE",
"96 422 OFFCURVE",
"144 374 OFFCURVE",
"207 347 OFFCURVE",
"243 347 QCURVE SMOOTH",
"486 347 LINE SMOOTH",
"515 347 OFFCURVE",
"566 325 OFFCURVE",
"603 288 OFFCURVE",
"625 237 OFFCURVE",
"625 208 QCURVE SMOOTH",
"625 179 OFFCURVE",
"603 128 OFFCURVE",
"566 91 OFFCURVE",
"515 69 OFFCURVE",
"486 69 QCURVE",
"486 278 LINE",
"69 278 LINE",
"69 208 LINE SMOOTH",
"69 165 OFFCURVE",
"102 89 OFFCURVE",
"158 33 OFFCURVE",
"234 0 OFFCURVE",
"277 0 QCURVE SMOOTH"
);
},
{
nodes = (
"304 -107 LINE",
"482 -107 LINE",
"482 -113 LINE",
"569 -200 LINE",
"569 -341 LINE",
"397 -447 LINE",
"309 -359 LINE",
"304 -363 LINE"
);
},
{
nodes = (
"339 -300 LINE",
"447 -233 LINE",
"447 -142 LINE",
"339 -142 LINE"
);
}
);
width = 838;
}
);
unicode = 0219;
},
{
glyphname = uni0218;
layers = (
{
layerId = "36A2F76C-EA0C-4AFB-832E-E1AC112461C1";
paths = (
{
nodes = (
"683 351 LINE",
"739 295 LINE",
"747 288 LINE",
"779 256 OFFCURVE",
"816 170 OFFCURVE",
"816 121 QCURVE SMOOTH",
"816 72 OFFCURVE",
"779 -16 OFFCURVE",
"714 -83 OFFCURVE",
"626 -122 OFFCURVE",
"576 -122 QCURVE SMOOTH",
"367 -122 LINE SMOOTH",
"316 -122 OFFCURVE",
"229 -84 OFFCURVE",
"197 -52 QCURVE SMOOTH",
"134 10 LINE",
"88 43 OFFCURVE",
"34 146 OFFCURVE",
"34 208 QCURVE SMOOTH",
"34 313 LINE",
"159 313 LINE",
"121 350 LINE",
"81 379 OFFCURVE",
"34 467 OFFCURVE",
"34 521 QCURVE SMOOTH",
"34 564 OFFCURVE",
"67 641 OFFCURVE",
"123 697 OFFCURVE",
"199 730 OFFCURVE",
"243 730 QCURVE SMOOTH",
"486 730 LINE SMOOTH",
"541 730 OFFCURVE",
"636 679 OFFCURVE",
"669 634 QCURVE",
"735 569 LINE SMOOTH",
"773 531 OFFCURVE",
"817 425 OFFCURVE",
"817 364 QCURVE",
"683 364 LINE"
);
},
{
nodes = (
"486 0 LINE SMOOTH",
"529 0 OFFCURVE",
"605 34 OFFCURVE",
"662 92 OFFCURVE",
"694 168 OFFCURVE",
"694 211 QCURVE SMOOTH",
"694 254 OFFCURVE",
"661 329 OFFCURVE",
"604 385 OFFCURVE",
"529 417 OFFCURVE",
"486 417 QCURVE",
"486 625 LINE",
"515 625 OFFCURVE",
"566 603 OFFCURVE",
"603 566 OFFCURVE",
"625 515 OFFCURVE",
"625 486 QCURVE",
"695 486 LINE",
"695 529 OFFCURVE",
"662 605 OFFCURVE",
"605 662 OFFCURVE",
"529 695 OFFCURVE",
"486 695 QCURVE SMOOTH",
"243 695 LINE SMOOTH",
"207 695 OFFCURVE",
"144 668 OFFCURVE",
"96 620 OFFCURVE",
"69 557 OFFCURVE",
"69 521 QCURVE SMOOTH",
"69 485 OFFCURVE",
"96 422 OFFCURVE",
"144 374 OFFCURVE",
"207 347 OFFCURVE",
"243 347 QCURVE SMOOTH",
"486 347 LINE SMOOTH",
"515 347 OFFCURVE",
"566 325 OFFCURVE",
"603 288 OFFCURVE",
"625 237 OFFCURVE",
"625 208 QCURVE SMOOTH",
"625 179 OFFCURVE",
"603 128 OFFCURVE",
"566 91 OFFCURVE",
"515 69 OFFCURVE",
"486 69 QCURVE",
"486 278 LINE",
"69 278 LINE",
"69 208 LINE SMOOTH",
"69 165 OFFCURVE",
"102 89 OFFCURVE",
"158 33 OFFCURVE",
"234 0 OFFCURVE",
"277 0 QCURVE SMOOTH"
);
},
{
nodes = (
"304 -107 LINE",
"482 -107 LINE",
"482 -113 LINE",
"569 -200 LINE",
"569 -341 LINE",
"397 -447 LINE",
"309 -359 LINE",
"304 -363 LINE"
);
},
{
nodes = (
"339 -300 LINE",
"447 -233 LINE",
"447 -142 LINE",
"339 -142 LINE"
);
}
);
width = 838;
}
);
unicode = 0218;
},
{
glyphname = caron;
layers = (
{
layerId = "36A2F76C-EA0C-4AFB-832E-E1AC112461C1";
paths = (
{
nodes = (
"224 789 LINE",
"219 789 LINE",
"128 1018 LINE",
"275 1076 LINE",
"286 1059 LINE",
"361 984 LINE",
"423 1076 LINE",
"569 1018 LINE",
"567 1013 LINE",
"655 926 LINE",
"566 702 LINE",
"311 702 LINE"
);
},
{
nodes = (
"348 901 LINE",
"260 1032 LINE",
"174 998 LINE",
"243 824 LINE",
"454 824 LINE",
"523 998 LINE",
"437 1032 LINE"
);
}
);
width = 739;
}
);
unicode = 02C7;
},
{
glyphname = circumflex;
layers = (
{
layerId = "36A2F76C-EA0C-4AFB-832E-E1AC112461C1";
paths = (
{
nodes = (
"409 831 LINE",
"312 686 LINE",
"172 741 LINE",
"88 825 LINE",
"78 829 LINE",
"164 1068 LINE",
"336 985 LINE",
"508 1068 LINE",
"511 1058 LINE",
"596 974 LINE",
"680 741 LINE",
"540 686 LINE",
"452 773 LINE",
"449 772 LINE"
);
},
{
nodes = (
"306 961 LINE",
"184 1020 LINE",
"123 850 LINE",
"209 816 LINE"
);
},
{
nodes = (
"463 816 LINE",
"549 850 LINE",
"488 1020 LINE",
"366 961 LINE"
);
}
);
width = 661;
}
);
unicode = 02C6;
},
{
glyphname = hungarumlaut;
layers = (
{
layerId = "36A2F76C-EA0C-4AFB-832E-E1AC112461C1";
paths = (
{
nodes = (
"642 982 LINE",
"730 894 LINE",
"598 696 LINE",
"458 751 LINE",
"400 809 LINE",
"325 696 LINE",
"185 751 LINE",
"101 835 LINE",
"91 839 LINE",
"177 1078 LINE",
"371 985 LINE",
"369 982 LINE",
"403 947 LINE",
"450 1078 LINE",
"644 985 LINE"
);
},
{
nodes = (
"592 971 LINE",
"470 1030 LINE",
"409 860 LINE",
"495 826 LINE"
);
},
{
nodes = (
"319 971 LINE",
"197 1030 LINE",
"136 860 LINE",
"222 826 LINE"
);
}
);
width = 755;
}
);
unicode = 02DD;
},
{
glyphname = tilde;
layers = (
{
layerId = "36A2F76C-EA0C-4AFB-832E-E1AC112461C1";
paths = (
{
nodes = (
"582 998 LINE",
"580 993 LINE",
"668 906 LINE",
"654 853 LINE",
"649 829 OFFCURVE",
"635 775 OFFCURVE",
"608 731 OFFCURVE",
"565 702 OFFCURVE",
"531 702 QCURVE SMOOTH",
"510 702 OFFCURVE",
"461 714 OFFCURVE",
"438 722 QCURVE SMOOTH",
"429 725 OFFCURVE",
"414 728 OFFCURVE",
"406 731 QCURVE SMOOTH",
"398 733 OFFCURVE",
"378 739 OFFCURVE",
"370 741 QCURVE SMOOTH",
"364 742 OFFCURVE",
"362 744 QCURVE",
"361 745 LINE",
"352 744 OFFCURVE",
"329 726 OFFCURVE",
"323 703 QCURVE",
"219 730 LINE",
"133 816 LINE",
"125 818 LINE",
"135 873 LINE SMOOTH",
"140 898 OFFCURVE",
"154 954 OFFCURVE",
"181 999 OFFCURVE",
"226 1029 OFFCURVE",
"262 1029 QCURVE SMOOTH",
"284 1029 OFFCURVE",
"338 1013 OFFCURVE",
"363 1005 QCURVE SMOOTH",
"383 998 OFFCURVE",
"422 986 OFFCURVE",
"433 986 QCURVE SMOOTH",
"441 986 OFFCURVE",
"463 1005 OFFCURVE",
"469 1031 QCURVE"
);
},
{
nodes = (
"494 987 LINE",
"489 967 OFFCURVE",
"451 951 OFFCURVE",
"433 951 QCURVE SMOOTH",
"416 951 OFFCURVE",
"373 964 OFFCURVE",
"326 981 OFFCURVE",
"281 994 OFFCURVE",
"262 994 QCURVE SMOOTH",
"233 994 OFFCURVE",
"200 963 OFFCURVE",
"180 917 OFFCURVE",
"170 865 OFFCURVE",
"165 844 QCURVE",
"210 832 LINE",
"215 852 OFFCURVE",
"255 867 OFFCURVE",
"272 867 QCURVE",
"273 867 OFFCURVE",
"288 863 OFFCURVE",
"305 858 OFFCURVE",
"321 853 OFFCURVE",
"323 853 QCURVE",
"323 852 LINE",
"350 845 OFFCURVE",
"415 824 OFFCURVE",
"441 824 QCURVE SMOOTH",
"469 824 OFFCURVE",
"503 856 OFFCURVE",
"523 902 OFFCURVE",
"533 954 OFFCURVE",
"538 974 QCURVE"
);
}
);
width = 708;
}
);
unicode = 02DC;
},
{
glyphname = ogonek;
layers = (
{
layerId = "36A2F76C-EA0C-4AFB-832E-E1AC112461C1";
paths = (
{
nodes = (
"216 -256 LINE SMOOTH",
"216 -232 OFFCURVE",
"234 -190 OFFCURVE",
"265 -160 OFFCURVE",
"307 -142 OFFCURVE",
"331 -142 QCURVE SMOOTH",
"339 -142 LINE",
"339 -71 LINE",
"503 -71 LINE",
"503 -77 LINE",
"590 -164 LINE",
"590 -276 LINE",
"648 -334 LINE",
"648 -369 OFFCURVE",
"628 -429 OFFCURVE",
"593 -473 OFFCURVE",
"547 -498 OFFCURVE",
"522 -498 QCURVE SMOOTH",
"421 -498 LINE SMOOTH",
"372 -498 OFFCURVE",
"340 -466 QCURVE SMOOTH",
"267 -393 LINE",
"244 -379 OFFCURVE",
"216 -329 OFFCURVE",
"216 -298 QCURVE SMOOTH"
);
},
{
nodes = (
"251 -298 LINE SMOOTH",
"251 -332 OFFCURVE",
"297 -376 OFFCURVE",
"331 -376 QCURVE SMOOTH",
"432 -376 LINE SMOOTH",
"451 -376 OFFCURVE",
"485 -361 OFFCURVE",
"511 -334 OFFCURVE",
"526 -297 OFFCURVE",
"526 -276 QCURVE",
"480 -276 LINE",
"480 -299 OFFCURVE",
"452 -333 OFFCURVE",
"432 -333 QCURVE SMOOTH",
"362 -333 LINE",
"362 -304 OFFCURVE",
"361 -241 OFFCURVE",
"361 -212 QCURVE",
"468 -212 LINE",
"468 -106 LINE",
"374 -106 LINE",
"374 -177 LINE",
"331 -177 LINE SMOOTH",
"297 -177 OFFCURVE",
"251 -223 OFFCURVE",
"251 -256 QCURVE SMOOTH"
);
}
);
width = 687;
}
);
unicode = 02DB;
},
{
glyphname = ring;
layers = (
{
layerId = "36A2F76C-EA0C-4AFB-832E-E1AC112461C1";
paths = (
{
nodes = (
"279 804 LINE",
"250 822 OFFCURVE",
"214 884 OFFCURVE",
"214 921 QCURVE SMOOTH",
"214 950 OFFCURVE",
"235 1000 OFFCURVE",
"273 1036 OFFCURVE",
"323 1057 OFFCURVE",
"352 1057 QCURVE SMOOTH",
"388 1057 OFFCURVE",
"450 1022 OFFCURVE",
"469 993 QCURVE",
"538 924 LINE SMOOTH",
"556 906 OFFCURVE",
"577 858 OFFCURVE",
"577 831 QCURVE SMOOTH",
"577 804 OFFCURVE",
"555 755 OFFCURVE",
"518 718 OFFCURVE",
"469 696 OFFCURVE",
"442 696 QCURVE SMOOTH",
"414 696 OFFCURVE",
"365 718 OFFCURVE",
"347 736 QCURVE SMOOTH"
);
},
{
nodes = (
"375 968 OFFCURVE",
"403 942 OFFCURVE",
"403 922 QCURVE SMOOTH",
"403 905 OFFCURVE",
"375 876 OFFCURVE",
"355 876 QCURVE SMOOTH",
"333 876 OFFCURVE",
"306 905 OFFCURVE",
"306 922 QCURVE SMOOTH",
"306 942 OFFCURVE",
"333 968 OFFCURVE",
"355 968 QCURVE SMOOTH"
);
},
{
nodes = (
"373 818 OFFCURVE",
"410 834 OFFCURVE",
"438 863 OFFCURVE",
"455 900 OFFCURVE",
"455 921 QCURVE SMOOTH",
"455 942 OFFCURVE",
"438 979 OFFCURVE",
"410 1006 OFFCURVE",
"373 1022 OFFCURVE",
"352 1022 QCURVE SMOOTH",
"309 1022 OFFCURVE",
"249 964 OFFCURVE",
"249 921 QCURVE SMOOTH",
"249 900 OFFCURVE",
"265 863 OFFCURVE",
"293 834 OFFCURVE",
"331 818 OFFCURVE",
"352 818 QCURVE SMOOTH"
);
}
);
width = 703;
}
);
unicode = 02DA;
},
{
glyphname = dotaccent;
layers = (
{
layerId = "36A2F76C-EA0C-4AFB-832E-E1AC112461C1";
paths = (
{
nodes = (
"48 938 OFFCURVE",
"67 983 OFFCURVE",
"100 1017 OFFCURVE",
"144 1037 OFFCURVE",
"170 1037 QCURVE SMOOTH",
"202 1037 OFFCURVE",
"255 1006 OFFCURVE",
"272 980 QCURVE",
"344 909 LINE SMOOTH",
"361 892 OFFCURVE",
"380 848 OFFCURVE",
"380 823 QCURVE SMOOTH",
"380 798 OFFCURVE",
"361 754 OFFCURVE",
"328 721 OFFCURVE",
"284 702 OFFCURVE",
"260 702 QCURVE SMOOTH",
"235 702 OFFCURVE",
"192 721 OFFCURVE",
"176 737 QCURVE SMOOTH",
"105 807 LINE",
"79 824 OFFCURVE",
"48 879 OFFCURVE",
"48 913 QCURVE SMOOTH"
);
},
{
nodes = (
"83 876 OFFCURVE",
"134 824 OFFCURVE",
"170 824 QCURVE SMOOTH",
"188 824 OFFCURVE",
"220 838 OFFCURVE",
"244 862 OFFCURVE",
"258 895 OFFCURVE",
"258 913 QCURVE SMOOTH",
"258 931 OFFCURVE",
"244 963 OFFCURVE",
"220 988 OFFCURVE",
"188 1002 OFFCURVE",
"170 1002 QCURVE SMOOTH",
"152 1002 OFFCURVE",
"120 988 OFFCURVE",
"97 963 OFFCURVE",
"83 931 OFFCURVE",
"83 913 QCURVE SMOOTH"
);
}
);
width = 333;
}
);
unicode = 02D9;
},
{
glyphname = breve;
layers = (
{
layerId = "36A2F76C-EA0C-4AFB-832E-E1AC112461C1";
paths = (
{
nodes = (
"251 820 LINE",
"207 851 OFFCURVE",
"153 959 OFFCURVE",
"153 1025 QCURVE",
"317 1025 LINE",
"317 1019 LINE",
"363 973 LINE",
"371 994 OFFCURVE",
"371 1025 QCURVE",
"535 1025 LINE",
"535 1019 LINE",
"622 932 LINE",
"622 885 OFFCURVE",
"593 802 OFFCURVE",
"542 739 OFFCURVE",
"474 702 OFFCURVE",
"434 702 QCURVE SMOOTH",
"401 702 OFFCURVE",
"342 730 OFFCURVE",
"317 754 QCURVE SMOOTH"
);
},
{
nodes = (
"318 918 OFFCURVE",
"282 961 OFFCURVE",
"282 990 QCURVE",
"188 990 LINE",
"188 956 OFFCURVE",
"213 896 OFFCURVE",
"256 851 OFFCURVE",
"312 824 OFFCURVE",
"344 824 QCURVE SMOOTH",
"377 824 OFFCURVE",
"434 851 OFFCURVE",
"476 896 OFFCURVE",
"500 956 OFFCURVE",
"500 990 QCURVE",
"406 990 LINE",
"406 961 OFFCURVE",
"370 918 OFFCURVE",
"344 918 QCURVE SMOOTH"
);
}
);
width = 697;
}
);
unicode = 02D8;
},
{
glyphname = endash;
layers = (
{
layerId = "36A2F76C-EA0C-4AFB-832E-E1AC112461C1";
paths = (
{
nodes = (
"721 389 LINE",
"808 302 LINE",
"808 163 LINE",
"107 163 LINE",
"20 250 LINE",
"14 250 LINE",
"14 395 LINE",
"721 395 LINE"
);
},
{
nodes = (
"686 360 LINE",
"49 360 LINE",
"49 285 LINE",
"686 285 LINE"
);
}
);
width = 833;
}
);
unicode = 2013;
},
{
glyphname = emdash;
layers = (
{
layerId = "36A2F76C-EA0C-4AFB-832E-E1AC112461C1";
paths = (
{
nodes = (
"911 389 LINE",
"998 302 LINE",
"998 163 LINE",
"112 163 LINE",
"25 250 LINE",
"19 250 LINE",
"19 395 LINE",
"911 395 LINE"
);
},
{
nodes = (
"876 360 LINE",
"54 360 LINE",
"54 285 LINE",
"876 285 LINE"
);
}
);
width = 1022;
}
);
unicode = 2014;
},
{
glyphname = quoteleft;
layers = (
{
layerId = "36A2F76C-EA0C-4AFB-832E-E1AC112461C1";
paths = (
{
nodes = (
"199 751 LINE",
"286 664 LINE",
"286 417 LINE",
"114 417 LINE",
"27 504 LINE",
"21 504 LINE",
"21 650 LINE",
"199 760 LINE"
);
},
{
nodes = (
"164 697 LINE",
"56 630 LINE",
"56 539 LINE",
"164 539 LINE"
);
}
);
width = 318;
}
);
unicode = 2018;
},
{
glyphname = quoteright;
layers = (
{
layerId = "36A2F76C-EA0C-4AFB-832E-E1AC112461C1";
paths = (
{
nodes = (
"21 732 LINE",
"199 732 LINE",
"199 726 LINE",
"286 639 LINE",
"286 498 LINE",
"114 392 LINE",
"26 479 LINE",
"21 476 LINE"
);
},
{
nodes = (
"56 539 LINE",
"164 606 LINE",
"164 697 LINE",
"56 697 LINE"
);
}
);
width = 309;
}
);
unicode = 2019;
},
{
glyphname = quotedblleft;
layers = (
{
layerId = "36A2F76C-EA0C-4AFB-832E-E1AC112461C1";
paths = (
{
nodes = (
"357 751 LINE",
"444 664 LINE",
"444 417 LINE",
"114 417 LINE",
"27 504 LINE",
"21 504 LINE",
"21 650 LINE",
"199 760 LINE",
"199 751 LINE",
"253 695 LINE",
"357 760 LINE"
);
},
{
nodes = (
"164 697 LINE",
"56 630 LINE",
"56 539 LINE",
"164 539 LINE"
);
},
{
nodes = (
"322 697 LINE",
"214 630 LINE",
"214 539 LINE",
"322 539 LINE"
);
}
);
width = 467;
}
);
unicode = 201C;
},
{
glyphname = quotedblright;
layers = (
{
layerId = "36A2F76C-EA0C-4AFB-832E-E1AC112461C1";
paths = (
{
nodes = (
"23 732 LINE",
"359 732 LINE",
"359 726 LINE",
"446 639 LINE",
"446 498 LINE",
"274 392 LINE",
"214 452 LINE",
"116 392 LINE",
"28 479 LINE",
"23 476 LINE"
);
},
{
nodes = (
"216 539 LINE",
"324 606 LINE",
"324 697 LINE",
"216 697 LINE"
);
},
{
nodes = (
"58 539 LINE",
"166 606 LINE",
"166 697 LINE",
"58 697 LINE"
);
}
);
width = 470;
}
);
unicode = 201D;
},
{
glyphname = quotesinglbase;
layers = (
{
layerId = "36A2F76C-EA0C-4AFB-832E-E1AC112461C1";
paths = (
{
nodes = (
"32 127 LINE",
"210 127 LINE",
"210 121 LINE",
"297 34 LINE",
"297 -107 LINE",
"125 -213 LINE",
"37 -125 LINE",
"32 -129 LINE"
);
},
{
nodes = (
"67 -66 LINE",
"175 1 LINE",
"175 92 LINE",
"67 92 LINE"
);
}
);
width = 335;
}
);
unicode = 201A;
},
{
glyphname = quotedblbase;
layers = (
{
layerId = "36A2F76C-EA0C-4AFB-832E-E1AC112461C1";
paths = (
{
nodes = (
"32 127 LINE",
"210 127 LINE",
"210 121 LINE",
"297 34 LINE",
"297 -107 LINE",
"125 -213 LINE",
"37 -125 LINE",
"32 -129 LINE"
);
},
{
nodes = (
"67 -66 LINE",
"175 1 LINE",
"175 92 LINE",
"67 92 LINE"
);
},
{
nodes = (
"273 127 LINE",
"451 127 LINE",
"451 121 LINE",
"538 34 LINE",
"538 -107 LINE",
"366 -213 LINE",
"278 -125 LINE",
"273 -129 LINE"
);
},
{
nodes = (
"308 -66 LINE",
"416 1 LINE",
"416 92 LINE",
"308 92 LINE"
);
}
);
width = 559;
}
);
unicode = 201E;
},
{
glyphname = bullet;
layers = (
{
layerId = "36A2F76C-EA0C-4AFB-832E-E1AC112461C1";
paths = (
{
nodes = (
"-8 389 OFFCURVE",
"19 452 OFFCURVE",
"66 499 OFFCURVE",
"129 526 OFFCURVE",
"165 526 QCURVE SMOOTH",
"210 526 OFFCURVE",
"286 483 OFFCURVE",
"309 448 QCURVE",
"375 383 LINE SMOOTH",
"398 360 OFFCURVE",
"425 298 OFFCURVE",
"425 263 QCURVE SMOOTH",
"425 228 OFFCURVE",
"398 166 OFFCURVE",
"352 120 OFFCURVE",
"290 93 OFFCURVE",
"255 93 QCURVE SMOOTH",
"220 93 OFFCURVE",
"158 120 OFFCURVE",
"135 143 QCURVE SMOOTH",
"69 208 LINE",
"34 231 OFFCURVE",
"-8 307 OFFCURVE",
"-8 353 QCURVE SMOOTH"
);
},
{
nodes = (
"27 324 OFFCURVE",
"49 274 OFFCURVE",
"86 237 OFFCURVE",
"136 215 OFFCURVE",
"165 215 QCURVE SMOOTH",
"193 215 OFFCURVE",
"244 237 OFFCURVE",
"281 274 OFFCURVE",
"303 324 OFFCURVE",
"303 353 QCURVE SMOOTH",
"303 381 OFFCURVE",
"281 432 OFFCURVE",
"244 469 OFFCURVE",
"193 491 OFFCURVE",
"165 491 QCURVE SMOOTH",
"136 491 OFFCURVE",
"86 469 OFFCURVE",
"49 432 OFFCURVE",
"27 381 OFFCURVE",
"27 353 QCURVE SMOOTH"
);
}
);
width = 324;
}
);
unicode = 2022;
},
{
glyphname = uni000D;
layers = (
{
layerId = "36A2F76C-EA0C-4AFB-832E-E1AC112461C1";
paths = (
{
nodes = (
"47 -21 LINE",
"225 -21 LINE",
"225 -27 LINE",
"312 -114 LINE",
"312 -255 LINE",
"140 -361 LINE",
"52 -273 LINE",
"47 -277 LINE"
);
},
{
nodes = (
"82 -214 LINE",
"190 -147 LINE",
"190 -56 LINE",
"82 -56 LINE"
);
}
);
width = 267;
}
);
unicode = 000D;
},
{
glyphname = ygrave;
layers = (
{
layerId = "36A2F76C-EA0C-4AFB-832E-E1AC112461C1";
paths = (
{
nodes = (
"10 -35 LINE",
"3 -35 LINE",
"185 486 LINE",
"-23 731 LINE",
"171 731 LINE",
"192 705 LINE",
"243 653 LINE",
"271 731 LINE",
"761 731 LINE",
"759 726 LINE",
"847 638 LINE",
"582 -122 LINE",
"97 -122 LINE"
);
},
{
nodes = (
"255 580 LINE",
"156 696 LINE",
"52 696 LINE",
"224 493 LINE",
"52 0 LINE",
"469 0 LINE",
"712 696 LINE",
"295 696 LINE"
);
}
);
width = 856;
}
);
unicode = 1EF3;
},
{
glyphname = Ygrave;
layers = (
{
layerId = "36A2F76C-EA0C-4AFB-832E-E1AC112461C1";
paths = (
{
nodes = (
"10 -35 LINE",
"3 -35 LINE",
"185 486 LINE",
"-23 731 LINE",
"171 731 LINE",
"192 705 LINE",
"243 653 LINE",
"271 731 LINE",
"761 731 LINE",
"759 726 LINE",
"847 638 LINE",
"582 -122 LINE",
"97 -122 LINE"
);
},
{
nodes = (
"255 580 LINE",
"156 696 LINE",
"52 696 LINE",
"224 493 LINE",
"52 0 LINE",
"469 0 LINE",
"712 696 LINE",
"295 696 LINE"
);
}
);
width = 856;
}
);
unicode = 1EF2;
},
{
glyphname = Idotaccent;
layers = (
{
layerId = "36A2F76C-EA0C-4AFB-832E-E1AC112461C1";
paths = (
{
nodes = (
"522 724 LINE",
"609 637 LINE",
"609 -122 LINE",
"128 -122 LINE",
"41 -35 LINE",
"35 -35 LINE",
"35 730 LINE",
"522 730 LINE"
);
},
{
nodes = (
"487 695 LINE",
"70 695 LINE",
"70 0 LINE",
"487 0 LINE"
);
}
);
width = 641;
}
);
unicode = 0130;
},
{
glyphname = idotaccent;
layers = (
{
layerId = "36A2F76C-EA0C-4AFB-832E-E1AC112461C1";
paths = (
{
nodes = (
"522 724 LINE",
"609 637 LINE",
"609 -122 LINE",
"128 -122 LINE",
"41 -35 LINE",
"35 -35 LINE",
"35 730 LINE",
"522 730 LINE"
);
},
{
nodes = (
"487 695 LINE",
"70 695 LINE",
"70 0 LINE",
"487 0 LINE"
);
},
{
nodes = (
"124 936 OFFCURVE",
"143 981 OFFCURVE",
"176 1015 OFFCURVE",
"220 1035 OFFCURVE",
"246 1035 QCURVE SMOOTH",
"278 1035 OFFCURVE",
"331 1004 OFFCURVE",
"348 978 QCURVE",
"420 907 LINE SMOOTH",
"437 890 OFFCURVE",
"456 846 OFFCURVE",
"456 821 QCURVE SMOOTH",
"456 796 OFFCURVE",
"437 752 OFFCURVE",
"404 719 OFFCURVE",
"360 700 OFFCURVE",
"336 700 QCURVE SMOOTH",
"311 700 OFFCURVE",
"268 719 OFFCURVE",
"252 735 QCURVE SMOOTH",
"181 805 LINE",
"155 822 OFFCURVE",
"124 877 OFFCURVE",
"124 911 QCURVE SMOOTH"
);
},
{
nodes = (
"159 874 OFFCURVE",
"210 822 OFFCURVE",
"246 822 QCURVE SMOOTH",
"264 822 OFFCURVE",
"296 836 OFFCURVE",
"320 860 OFFCURVE",
"334 893 OFFCURVE",
"334 911 QCURVE SMOOTH",
"334 929 OFFCURVE",
"320 961 OFFCURVE",
"296 986 OFFCURVE",
"264 1000 OFFCURVE",
"246 1000 QCURVE SMOOTH",
"228 1000 OFFCURVE",
"196 986 OFFCURVE",
"173 961 OFFCURVE",
"159 929 OFFCURVE",
"159 911 QCURVE SMOOTH"
);
}
);
width = 641;
}
);
},
{
glyphname = dcroat;
layers = (
{
layerId = "36A2F76C-EA0C-4AFB-832E-E1AC112461C1";
paths = (
{
nodes = (
"621 475 LINE",
"621 477 OFFCURVE",
"620 477 QCURVE"
);
},
{
nodes = (
"14 -35 LINE",
"8 -35 LINE",
"8 730 LINE",
"460 730 LINE SMOOTH",
"522 730 OFFCURVE",
"626 675 OFFCURVE",
"659 628 QCURVE",
"721 566 LINE SMOOTH",
"753 534 OFFCURVE",
"791 447 OFFCURVE",
"791 397 QCURVE SMOOTH",
"791 313 LINE SMOOTH",
"791 291 OFFCURVE",
"792 248 OFFCURVE",
"792 225 QCURVE SMOOTH",
"792 168 LINE SMOOTH",
"792 154 OFFCURVE",
"791 123 OFFCURVE",
"790 109 QCURVE SMOOTH",
"787 61 OFFCURVE",
"749 -23 OFFCURVE",
"685 -86 OFFCURVE",
"599 -122 OFFCURVE",
"550 -122 QCURVE SMOOTH",
"101 -122 LINE"
);
},
{
nodes = (
"460 626 LINE",
"488 626 OFFCURVE",
"539 604 OFFCURVE",
"577 566 OFFCURVE",
"599 515 OFFCURVE",
"599 487 QCURVE SMOOTH",
"599 227 LINE SMOOTH",
"599 194 OFFCURVE",
"582 136 OFFCURVE",
"547 94 OFFCURVE",
"495 69 OFFCURVE",
"460 69 QCURVE",
"460 307 LINE",
"551 307 LINE",
"551 381 LINE",
"460 381 LINE"
);
},
{
nodes = (
"670 315 LINE SMOOTH",
"670 360 OFFCURVE",
"669 444 OFFCURVE",
"669 487 QCURVE SMOOTH",
"669 530 OFFCURVE",
"636 606 OFFCURVE",
"579 662 OFFCURVE",
"503 695 OFFCURVE",
"460 695 QCURVE SMOOTH",
"43 695 LINE",
"43 0 LINE",
"460 0 LINE SMOOTH",
"503 0 OFFCURVE",
"577 31 OFFCURVE",
"633 86 OFFCURVE",
"666 159 OFFCURVE",
"668 201 QCURVE SMOOTH",
"669 215 OFFCURVE",
"670 244 OFFCURVE",
"670 258 QCURVE SMOOTH",
"670 264 LINE",
"670 266 LINE",
"670 273 LINE",
"670 275 LINE",
"670 277 LINE",
"670 279 LINE",
"670 281 LINE",
"670 282 LINE",
"670 284 LINE",
"670 286 LINE"
);
}
);
width = 706;
}
);
unicode = 0111;
},
{
glyphname = macron;
layers = (
{
layerId = "36A2F76C-EA0C-4AFB-832E-E1AC112461C1";
paths = (
{
nodes = (
"61 970 LINE",
"532 970 LINE",
"532 964 LINE",
"619 877 LINE",
"619 702 LINE",
"154 702 LINE",
"67 789 LINE",
"61 789 LINE"
);
},
{
nodes = (
"96 824 LINE",
"497 824 LINE",
"497 935 LINE",
"96 935 LINE"
);
}
);
width = 587;
}
);
unicode = 00AF;
},
{
glyphname = section;
layers = (
{
layerId = "36A2F76C-EA0C-4AFB-832E-E1AC112461C1";
paths = (
{
nodes = (
"462 444 LINE",
"490 444 OFFCURVE",
"540 423 OFFCURVE",
"578 386 OFFCURVE",
"600 337 OFFCURVE",
"601 309 QCURVE",
"599 251 OFFCURVE",
"558 213 QCURVE",
"514 236 OFFCURVE",
"462 236 QCURVE"
);
},
{
nodes = (
"671 305 LINE",
"671 311 OFFCURVE",
"671 323 OFFCURVE",
"670 328 QCURVE",
"668 369 OFFCURVE",
"633 440 OFFCURVE",
"577 493 OFFCURVE",
"503 523 OFFCURVE",
"462 523 QCURVE",
"462 731 LINE",
"491 731 OFFCURVE",
"542 709 OFFCURVE",
"579 672 OFFCURVE",
"601 621 OFFCURVE",
"601 592 QCURVE",
"671 592 LINE",
"671 635 OFFCURVE",
"638 711 OFFCURVE",
"581 768 OFFCURVE",
"505 801 OFFCURVE",
"462 801 QCURVE SMOOTH",
"219 801 LINE SMOOTH",
"183 801 OFFCURVE",
"120 774 OFFCURVE",
"72 726 OFFCURVE",
"45 663 OFFCURVE",
"45 627 QCURVE SMOOTH",
"45 582 OFFCURVE",
"86 507 OFFCURVE",
"121 483 QCURVE",
"86 460 OFFCURVE",
"45 385 OFFCURVE",
"45 340 QCURVE SMOOTH",
"45 304 OFFCURVE",
"72 241 OFFCURVE",
"120 193 OFFCURVE",
"183 166 OFFCURVE",
"219 166 QCURVE SMOOTH",
"462 166 LINE SMOOTH",
"491 166 OFFCURVE",
"542 144 OFFCURVE",
"579 107 OFFCURVE",
"601 56 OFFCURVE",
"601 27 QCURVE SMOOTH",
"601 -2 OFFCURVE",
"579 -53 OFFCURVE",
"542 -90 OFFCURVE",
"491 -112 OFFCURVE",
"463 -112 QCURVE",
"463 -181 LINE",
"506 -181 OFFCURVE",
"582 -147 OFFCURVE",
"638 -89 OFFCURVE",
"670 -13 OFFCURVE",
"670 30 QCURVE SMOOTH",
"670 72 OFFCURVE",
"639 144 OFFCURVE",
"613 172 QCURVE",
"638 198 OFFCURVE",
"668 267 OFFCURVE",
"670 305 QCURVE"
);
},
{
nodes = (
"657 752 LINE SMOOTH",
"717 719 OFFCURVE",
"790 592 OFFCURVE",
"790 513 QCURVE",
"662 513 LINE",
"581 558 LINE",
"581 520 LINE",
"585 518 LINE",
"585 518 OFFCURVE",
"583 520 QCURVE",
"608 506 LINE",
"660 477 LINE",
"659 477 LINE",
"662 475 LINE",
"660 477 OFFCURVE",
"660 477 QCURVE",
"669 472 LINE",
"662 475 LINE",
"669 472 LINE",
"720 443 OFFCURVE",
"785 344 OFFCURVE",
"789 282 QCURVE",
"790 277 OFFCURVE",
"790 244 OFFCURVE",
"790 226 QCURVE",
"786 228 LINE",
"775 167 OFFCURVE",
"741 122 QCURVE",
"764 92 OFFCURVE",
"789 20 OFFCURVE",
"789 -20 QCURVE SMOOTH",
"789 -69 OFFCURVE",
"748 -156 OFFCURVE",
"676 -222 OFFCURVE",
"579 -260 OFFCURVE",
"524 -260 QCURVE",
"439 -213 LINE",
"431 -213 LINE",
"431 -80 LINE",
"459 -80 OFFCURVE",
"510 -63 OFFCURVE",
"547 -34 OFFCURVE",
"569 5 OFFCURVE",
"569 27 QCURVE SMOOTH",
"569 60 OFFCURVE",
"550 87 QCURVE",
"309 87 LINE SMOOTH",
"256 87 OFFCURVE",
"211 112 QCURVE SMOOTH",
"151 145 LINE",
"121 155 OFFCURVE",
"70 194 OFFCURVE",
"33 245 OFFCURVE",
"13 306 OFFCURVE",
"13 340 QCURVE SMOOTH",
"13 382 OFFCURVE",
"42 455 OFFCURVE",
"71 483 QCURVE",
"44 511 OFFCURVE",
"13 585 OFFCURVE",
"13 627 QCURVE SMOOTH",
"13 670 OFFCURVE",
"45 745 OFFCURVE",
"101 801 OFFCURVE",
"176 833 OFFCURVE",
"219 833 QCURVE SMOOTH",
"462 833 LINE SMOOTH",
"500 833 OFFCURVE",
"570 807 OFFCURVE",
"599 784 QCURVE"
);
}
);
width = 833;
}
);
unicode = 00A7;
},
{
glyphname = Oslash;
layers = (
{
layerId = "36A2F76C-EA0C-4AFB-832E-E1AC112461C1";
paths = (
{
nodes = (
"105 10 LINE",
"59 43 OFFCURVE",
"5 146 OFFCURVE",
"5 208 QCURVE SMOOTH",
"5 486 LINE SMOOTH",
"5 537 OFFCURVE",
"43 626 OFFCURVE",
"109 692 OFFCURVE",
"197 730 OFFCURVE",
"248 730 QCURVE SMOOTH",
"457 730 LINE SMOOTH",
"477 730 OFFCURVE",
"514 723 OFFCURVE",
"532 718 QCURVE",
"541 764 LINE",
"670 764 LINE",
"669 758 LINE",
"756 671 LINE",
"732 548 LINE",
"758 517 OFFCURVE",
"787 440 OFFCURVE",
"787 396 QCURVE SMOOTH",
"787 111 LINE SMOOTH",
"787 70 OFFCURVE",
"759 -2 OFFCURVE",
"709 -61 OFFCURVE",
"643 -104 OFFCURVE",
"606 -114 QCURVE",
"596 -168 LINE",
"474 -168 LINE",
"428 -122 LINE",
"338 -122 LINE SMOOTH",
"287 -122 OFFCURVE",
"200 -84 OFFCURVE",
"168 -52 QCURVE SMOOTH"
);
},
{
nodes = (
"665 486 LINE SMOOTH",
"665 529 OFFCURVE",
"648 567 QCURVE SMOOTH",
"633 601 OFFCURVE",
"609 628 QCURVE",
"628 729 LINE",
"570 729 LINE",
"558 668 LINE",
"549 674 OFFCURVE",
"538 678 QCURVE",
"500 695 OFFCURVE",
"457 695 QCURVE SMOOTH",
"248 695 LINE SMOOTH",
"205 695 OFFCURVE",
"129 662 OFFCURVE",
"73 605 OFFCURVE",
"40 529 OFFCURVE",
"40 486 QCURVE SMOOTH",
"40 208 LINE SMOOTH",
"40 165 OFFCURVE",
"73 89 OFFCURVE",
"129 33 OFFCURVE",
"205 0 OFFCURVE",
"248 0 QCURVE SMOOTH",
"431 0 LINE",
"422 -46 LINE",
"480 -46 LINE",
"489 2 LINE",
"512 6 OFFCURVE",
"535 16 QCURVE SMOOTH",
"573 32 OFFCURVE",
"630 86 OFFCURVE",
"665 159 OFFCURVE",
"665 201 QCURVE SMOOTH"
);
},
{
nodes = (
"457 625 LINE",
"486 625 OFFCURVE",
"511 614 QCURVE SMOOTH",
"530 606 OFFCURVE",
"544 594 QCURVE",
"457 136 LINE"
);
},
{
nodes = (
"596 232 LINE SMOOTH",
"596 199 OFFCURVE",
"580 139 OFFCURVE",
"546 95 OFFCURVE",
"520 82 QCURVE SMOOTH",
"512 78 OFFCURVE",
"503 75 QCURVE",
"590 528 LINE",
"596 508 OFFCURVE",
"596 486 QCURVE SMOOTH"
);
}
